<?xml version="1.0" standalone="no"?>
<!DOCTYPE svg PUBLIC "-//W3C//DTD SVG 1.1//EN" "http://www.w3.org/Graphics/SVG/1.1/DTD/svg11.dtd" >
<svg xmlns="http://www.w3.org/2000/svg">
<metadata>
Created by FontPrep 20130207 at Tue May 22 16:48:52 2018
 By anganoza
Copyright (c) 2017 by Emily Spadoni Creative Type &#38; Design Inc.. All rights reserved.
</metadata>
<defs>
<font id="70bc01530f59b0e6e8a1939ee5280441" horiz-adv-x='1024' >
  <font-face 
    font-family="Smoothie_Shoppe"
    font-weight="400"
    font-stretch="normal"
    units-per-em="2048"
    panose-1="0 0 0 0 0 0 0 0 0 0"
    ascent="1638"
    descent="-410"
    x-height="726"
    cap-height="1530"
    bbox="-814 -984 2722 1960"
    underline-thickness="2"
    underline-position="-4"
    unicode-range="U+000D-E01E"
  />
<missing-glyph horiz-adv-x="560" 
 />
    <glyph glyph-name=".notdef" horiz-adv-x="560" 
 />
    <glyph glyph-name=".null" horiz-adv-x="0" 
 />
    <glyph glyph-name="nonmarkingreturn" unicode="&#xd;" horiz-adv-x="0" 
 />
    <glyph glyph-name="NULL" horiz-adv-x="0" 
 />
    <glyph glyph-name="NULL" horiz-adv-x="0" 
 />
    <glyph glyph-name="space" unicode=" " horiz-adv-x="560" 
 />
    <glyph glyph-name="exclam" unicode="!" horiz-adv-x="514" 
d="M140 -2q0 20 2 36q8 60 80 60t95 -51q15 -33 15 -53t-4 -34q-10 -40 -80 -56q-28 -6 -52 -6t-36 14q6 30 -7 50t-13 40zM186 974q0 391 -54 416q16 66 104 96q32 12 63 12t39 -34q10 -27 10 -124v-24q-5 -265 -50 -776q-8 -114 -8 -154q-30 -17 -68 -2q-38 16 -52 52
l16 406v132z" />
    <glyph glyph-name="quotedbl" unicode="&#x22;" horiz-adv-x="574" 
d="M300 1540q0 12 22 43t53 32t62 -53t12 -142t-53 -144q-6 -8 -17 -8t-27 20q16 56 -10 132q-24 76 -33 92t-9 28zM126 1516q0 12 22 43t53 32t56 -43t24 -85q-3 -119 -59 -211q-6 -8 -17 -8t-27 20q16 56 -8 132q-26 76 -35 92t-9 28z" />
    <glyph glyph-name="numbersign" unicode="#" horiz-adv-x="1074" 
d="M672 830h-210q-12 -70 -18 -110t-8 -50q24 4 152 4l60 2q24 144 24 154zM780 918l272 10q14 -16 14 -32t-8 -30q-16 -36 -44 -50q-22 5 -250 12l-26 -152l254 10q12 -16 12 -32q0 -56 -52 -80q-40 10 -230 10q0 -60 -57 -345l-9 -45q-24 -20 -44 -20t-45 24t-31 56
q37 -6 96 332q-28 2 -56 2h-154l-6 -46q-52 -314 -62 -346q-24 -20 -43 -20t-45 24t-32 56q38 -3 96 332q-234 0 -266 -14q-22 28 -22 52t14 42h142q68 0 146 2l26 154v6q-216 0 -244 -14q-24 34 -24 55t14 39h266q48 360 48 386q26 38 74 38q26 2 42 -18q-8 -27 -70 -404
q22 2 75 2t133 2q15 91 32 227q16 137 16 151q26 38 62 38t54 -18q-13 -43 -68 -396z" />
    <glyph glyph-name="dollar" unicode="$" horiz-adv-x="664" 
d="M340 280l14 -174v-6q0 -34 -32 -34q-60 0 -72 42l36 172q-60 10 -88 28q-86 55 -86 164q0 66 40 114q38 32 84 13t50 -57q-61 -15 -85 -63q-25 -47 -1 -100t89 -64t109 37t40 150q-4 48 -32 82q-30 32 -89 73t-143 103t-83 202t97 206q70 46 148 50q-12 162 -12 176v6
q0 32 32 32q6 2 14 0q48 -8 58 -40q-7 -42 -40 -174q72 0 128 -56q72 -64 82 -162v-18q0 -84 -78 -126q-48 -22 -70 21t-8 87q68 -14 70 58q0 70 -54 116q-29 24 -66 28q-76 8 -129 -56t-45 -146t90 -146t158 -126t79 -182t-83 -182q-58 -40 -122 -48z" />
    <glyph glyph-name="percent" unicode="%" horiz-adv-x="1066" 
d="M418 1282q-10 86 -44 76q-28 -6 -16 -41t52 -63q6 -4 10 -8q0 18 -2 36zM1020 324v-22q-4 -126 -63 -240t-163 -112h-4q-112 4 -186 82t-74 228q0 151 92 274q70 92 178 94q38 0 38 -28q2 -20 -12 -40q-58 4 -96 -67t-52 -177t11 -213t101 -109q56 -2 84 84q30 86 34 171
t-10 141q-12 56 -40 50q-32 18 -23 57t45 55q76 8 108 -66t32 -162zM214 -68q-24 0 -48 14q-56 38 -48 94q112 63 466 874q156 369 156 396q-12 -18 -52 -59q-81 -83 -166 -107q-14 -96 -58 -184q-60 -114 -171 -111t-175 75q-80 83 -80 235t92 275q70 92 178 92h8
q28 -6 30 -27t-12 -39q-58 4 -96 -68t-53 -177t11 -212t102 -109q44 -2 74 60q41 94 48 212q-91 45 -127 133q-36 87 33 133q24 14 60 18q76 8 112 -68q32 -74 30 -168q32 4 80 47t102 112t68 119q34 22 94 4q60 -16 58 -68q-28 -60 -100 -218t-139 -304t-235 -517
t-193 -414t-49 -43z" />
    <glyph glyph-name="ampersand" unicode="&#x26;" horiz-adv-x="1656" 
d="M614 902q87 -49 92 -14q2 14 -31 17t-61 -3zM1228 530q0 -215 -92 -359q-92 -145 -256 -205q-98 -36 -173 -36q-244 0 -393 130q-166 144 -166 384v6q0 126 38 217q69 165 206 229q38 20 78 32q-6 6 -30 27t-53 67q-64 101 -49 214q24 174 143 250t247 76h12
q170 -8 276 -154q52 -72 45 -175t-105 -163q-50 -31 -89 -11q-39 19 -49 70t20 75q43 -24 75 -3q31 21 22 102t-66 142t-139 63t-153 -68t-87 -205t46 -239q14 -26 28 -46q74 10 134 -6q84 -20 80 -66q-6 -54 -78 -52t-156 50h-2q-124 -56 -170 -180t-46 -248
q0 -227 136 -354q110 -102 264 -89t258 151q146 193 98 542q-8 2 -65 3t-143 -19t-112 -112q-8 2 -20 16t-12 32q30 150 272 176.5t314 83t92 122.5q70 -4 112 -66t4 -116q-79 -124 -316 -124q20 -98 20 -164z" />
    <glyph glyph-name="quotesingle" unicode="'" horiz-adv-x="208" 
d="M32 1535q0 13 22 44t53 31t61 -54q31 -54 13 -142q-19 -88 -53 -144q-6 -6 -18 -6t-26 20q16 56 -9 131t-34 91t-9 29z" />
    <glyph glyph-name="parenleft" unicode="(" horiz-adv-x="852" 
d="M642 -346q-16 0 -24 4q-187 103 -301 319q-167 318 -167 719t174 722q114 216 310 328q26 0 43 -36t19 -66q-156 -64 -249 -245q-145 -282 -139 -663q0 -388 140 -702q92 -200 238 -292q14 -24 -7 -56t-37 -32z" />
    <glyph glyph-name="parenright" unicode=")" 
d="M223 -348q-15 0 -37 31t-6 57q146 90 238 292q140 314 140 702t-140 662q-92 182 -250 246q2 30 20 66t44 36q102 -60 184 -148q80 -90 138 -202q162 -303 162 -708q-6 -411 -170 -718q-114 -210 -298 -312q-10 -4 -25 -4z" />
    <glyph glyph-name="asterisk" unicode="*" horiz-adv-x="856" 
d="M336 1570q20 0 44 -8q55 -124 62 -236q66 137 136 204q38 10 68 -32q28 -44 28 -82q-50 -44 -104 -68t-106 -44q122 -34 216 -90q4 -14 4 -35t-29 -49t-69 -28q-73 59 -142 182q-5 -148 -40 -236q-14 -10 -31 -10t-39 10q-44 18 -60 56q41 97 148 186q-174 -56 -224 -58
q-42 21 -42 78q0 30 18 52q127 -4 242 -42q-101 97 -150 184q2 40 26 53t44 13z" />
    <glyph glyph-name="plus" unicode="+" horiz-adv-x="636" 
d="M190 572q-52 0 -120 6q-28 14 -28 40q0 6 2 12q8 34 30 40q16 -6 81 -3t117 5q-10 102 -10 188q28 38 52 44h8q20 0 42 -18q-10 -112 -2 -210h2q58 2 112 4h104q37 -32 24 -59q-14 -27 -16 -41q-118 14 -216 4q6 -60 6 -118t-2 -112q-20 -50 -50 -50h-8q-34 8 -56 60
q26 23 22 118q0 42 -4 92q-38 -2 -90 -2z" />
    <glyph glyph-name="comma" unicode="," horiz-adv-x="410" 
d="M96 -30v16q8 58 48 74q56 23 80 15q24 -7 44 -37q20 -24 20 -54t-2 -53t-34 -105t-78 -104q-6 2 -14 10t-6 18q16 12 40 61t14 85q-40 -20 -76 7t-36 67z" />
    <glyph glyph-name="hyphen" unicode="-" horiz-adv-x="706" 
d="M698 386q0 -28 -18 -52q-150 16 -266 5t-196 -11t-156 6q-52 20 -53 67t65 73q26 -28 126 -28t218 6l124 8q62 2 112 2q40 -32 44 -66v-10z" />
    <glyph glyph-name="period" unicode="." horiz-adv-x="452" 
d="M272 -16q0 -20 -15 -52q-24 -52 -95.5 -52t-79.5 62q-2 14 -2 34t13 40t7 50q12 14 36 14t54 -6q68 -16 78 -56q4 -14 4 -34z" />
    <glyph glyph-name="slash" unicode="/" horiz-adv-x="1140" 
d="M182 -102q-30 0 -55 16t-25 52t16 80q46 -19 272 404q121 216 372 724q165 350 170 368q40 22 82 22t84 -24q-42 -48 -367 -693q-51 -101 -155 -301.5t-206 -401.5q-102 -200 -116 -226q-42 -20 -72 -20z" />
    <glyph glyph-name="zero" unicode="0" horiz-adv-x="1148" 
d="M562 -30q94 0 169 110t124 265t52 282q1 41 1 108t-27 215t-75 231t-92 118t-100 39h-8q-98 0 -178 -107t-119 -223q-69 -205 -73 -366q-2 -22 -2 -44q0 -126 33 -265t86 -216t99 -110t100 -37h10zM1070 662v-28q-4 -156 -67 -325t-181 -286t-270 -117h-8
q-154 4 -263 107q-165 156 -207 431q-12 72 -10 146v40q8 176 66 353t178 297t294 124h8q94 -2 165 -41q196 -108 259 -395q36 -162 36 -306z" />
    <glyph glyph-name="one" unicode="1" horiz-adv-x="464" 
d="M68 1177.5q0 28.5 4 44.5q64 -4 130 68t100 130q14 8 33 8t49 -25t38 -47q-32 -16 -52 -556q-6 -174 -6 -344q0 -404 38 -442q-64 -84 -137 -85t-101 41q24 40 84 956q18 286 24 368q-16 -24 -66 -82q-52 -56 -106 -82q-32 19 -32 47.5z" />
    <glyph glyph-name="two" unicode="2" horiz-adv-x="1040" 
d="M332 62q-18 8 -46 21t-74 15q-68 4 -74 -52q-8 -54 66 -56q51 0 128 72zM540 1432q240 0 344 -110q72 -78 92 -186q6 -44 6 -113t-34 -199q-56 -214 -190 -422q-134 -207 -266 -328q50 -32 107 -76t117 -41t88 83q26 80 -34 104q30 48 88 81t102 -25q38 -68 6 -135
t-83 -99q-96 -60 -169 -60h-8q-104 0 -170 39t-118 69l-2 -2q-112 -86 -193 -89t-119 35t-38 86v4q3 86 80.5 117t187.5 -7q30 -12 60 -26q134 167 231 378q279 605 127 792q-34 44 -96 54q-102 18 -197 -25q-218 -99 -246 -327q-9 -74 25 -147t99 -86t143 69q32 -24 21 -86
t-33 -88q-103 -55 -196 -14q-94 42 -150 144q-54 102 -35 233t101 233q78 92 179 131t173 39z" />
    <glyph glyph-name="three" unicode="3" horiz-adv-x="1014" 
d="M558 810q-76 14 -74 -9q3 -32 88 5q-8 2 -14 4zM508 1450q146 0 252 -90t101 -246t-141 -272l-4 -4q33 0 99 -58q141 -122 141 -338t-104 -360q-82 -106 -186 -151t-221 -45t-206 58t-128 115q-65 95 -65 205v20q6 102 66 175t158 67q42 -16 35 -60t-33 -54
q-52 16 -70 -52t0 -149t54 -132t70 -75t80 -34q140 -26 255 88t121 332q4 112 -19 189q-42 141 -137 203q-72 -36 -135 -38t-70 43t57 68t152 9q4 -2 8 -2q88 106 92 237t-64 219t-182 82q-72 -4 -126 -59t-66 -126t15 -87t65 8q30 -26 21 -70q-14 -66 -89 -66q-22 2 -50 18
q-90 44 -82 156q10 112 102 194q92 78 212 82h22z" />
    <glyph glyph-name="four" unicode="4" horiz-adv-x="1074" 
d="M172 600q-20 4 -42 5t-20 -12t34 -17q12 -2 28 24zM58 614q0 22 26 44t60 19t64 -9q50 112 127 362t103 412q42 30 78 30t64 -14q72 -30 54 -76q-28 -66 -79 -222q-122 -375 -231 -524q28 -5 143 -47q115 -43 143 -55q4 40 28 207t36 279q12 6 29 6t39 -12q38 -18 48 -54
q-8 -42 -25 -199l-25 -239q32 12 56 34q38 30 53 73t-15 71q20 44 93 46t73 -92q0 -58 -49 -110t-131 -72q-42 -14 -86 -14l-4 -58q-30 -401 24 -428q-22 -66 -104 -76h-24q-60 0 -66 46q-4 14 -4 50v4q0 90 19 250t27 234l-326 96h-4q-64 -60 -128 -54t-80 56q-6 14 -6 36z
" />
    <glyph glyph-name="five" unicode="5" horiz-adv-x="1012" 
d="M214 1282q-28 2 -36 -14q-9 -26 64 -20q-12 34 -28 34zM217 1332q55 0 93 -70q242 73 432 78h14q124 0 142 -70q12 -48 -18 -99t-62 -41q-46 53 -203 60q-158 8 -277 -4q30 -130 -20 -330q261 76 426 -36q101 -66 148 -190q32 -84 32 -144t-2 -88q-23 -242 -188.5 -357
t-330.5 -115q-106 0 -195 68q-85 69 -120 188q-18 62 -18 124t18 122q36 120 140 136q40 4 60 -16q34 -28 33 -76t-41 -50q-59 43 -94 12q-32 -24 -35 -90t27 -144t88 -132q91 -78 219 -52q127 26 183 150q58 124 44 262q-8 92 -63.5 215t-224.5 153q-76 12 -174 -20
q-18 2 -30 16q-10 16 -14 22q37 99 50 220q6 84 0 148q-53 0 -75 9q-69 29 -39 96q20 45 75 45z" />
    <glyph glyph-name="six" unicode="6" horiz-adv-x="950" 
d="M216 494q23 -237 88 -370q60 -118 160 -125t164 69q62 76 87 182t9 230t-115 196t-209 25q-111 -47 -184 -207zM868 392v-38q-13 -211 -146 -344q-82 -82 -228 -82h-34q-170 10 -291 174t-121 476v8q4 210 58 376q70 240 224 366q94 78 214 78h12q94 -4 162 -77t81 -188
q19 -164 -99 -235q-32 -18 -74 -24q-86 -12 -119 26t7 102q53 -7 106 32q54 40 60 132q11 129 -86 178q-24 10 -56 12q-159 4 -254 -272q-70 -210 -70 -480q58 104 158 153t208 25t187 -104q101 -102 101 -294z" />
    <glyph glyph-name="seven" unicode="7" horiz-adv-x="972" 
d="M850 1224q32 -2 28 16t-32 22q-10 0 -30 -32q22 -6 34 -6zM184 1396q155 0 564 -146q54 68 106 60q68 -10 68 -86q0 -20 -26 -38q-18 -18 -51 -15l-55 5q-92 -195 -154 -538q-63 -338 -52 -666q-38 -46 -112 -64q-18 -6 -53 -6t-77 38q28 236 130 612q109 421 236 636
q-468 71 -570 18q-28 -4 -52 48q-14 30 -14 65q0 77 112 77z" />
    <glyph glyph-name="eight" unicode="8" horiz-adv-x="914" 
d="M458 622l-68 56q-12 -12 -61 -57t-108 -129t-63 -164q-7 -142 59 -218q67 -76 157 -87t162 51q81 64 104 202q18 99 -39 188q-57 88 -143 158zM860 1288q0 -116 -85 -230t-271 -278q46 -42 138 -122.5t148 -195.5q38 -76 24 -174q-27 -188 -156 -290q-102 -78 -230 -78
h-30q-144 10 -243 110t-99 260q0 20 4 64t41 111q65 118 227 271q-188 167 -186 342t118 258q40 30 88 43t72 13t28 -2q92 0 165 -45t83 -115q-10 -28 -46 -43t-54 7q-4 91 -50 124q-46 34 -107 13t-95 -63q-62 -77 -61 -165q1 -89 67 -167q42 -50 92 -100q153 123 243 230
q89 107 31 176q16 62 58 84t86 -30v-8z" />
    <glyph glyph-name="nine" unicode="9" horiz-adv-x="926" 
d="M694 908q-26 291 -106 363.5t-134 75.5q-105 6 -174 -81q-62 -72 -84 -183t-8 -207q20 -138 119 -210t209 -25t184 203q-4 32 -6 64zM46 950v40q13 211 148 346q82 84 211 84t207 -46q204 -121 250 -438q12 -92 12 -233t-40 -274t-74 -203q-66 -132 -164 -215t-224 -83
h-6q-81 4 -154 63q-72 59 -92 175q-22 116 28 200q45 80 136 92q92 12 126 -26q32 -40 -8 -102q-60 4 -100 -28q-60 -46 -68 -139t39 -141t99 -49q91 -2 158 83q125 156 162 492q10 88 10 178q-61 -101 -154 -148q-52 -24 -109 -31q-165 -20 -279 97t-114 306z" />
    <glyph glyph-name="colon" unicode=":" horiz-adv-x="546" 
d="M136 565q0 21 15 55q24 54 77 54q98 0 106 -64q11 -42 -8 -76q-18 -24 -12 -56q-10 -14 -36 -14t-56 6q-74 18 -84 60q-2 14 -2 35zM142 12q0 20 2 36q11 64 106 64q55 0 82 -60q12 -28 12 -49t-4 -35q-10 -42 -82 -58q-30 -8 -56 -8t-38 14q6 32 -8 54t-14 42z" />
    <glyph glyph-name="semicolon" unicode=";" horiz-adv-x="464" 
d="M126 578q0 20 14 52q23 52 94 52t82 -62q2 -14 2 -34t-14 -41t-8 -51q-10 -14 -35 -13q-118 5 -133 63q-2 14 -2 34zM124 -34v16q10 58 50 75t54 17q40 0 70 -38q18 -26 18 -55t-2 -52t-34 -106t-78 -105q-6 2 -14 11t-6 19q16 12 40 61t14 83q-40 -18 -76 8t-36 66z" />
    <glyph glyph-name="less" unicode="&#x3c;" horiz-adv-x="682" 
d="M602 275q0 -33 -16 -63q-34 -64 -80 -64h-12q-152 160 -458 476q44 44 91 93t116 119q194 197 279 296q30 -2 63 -74t-3 -114q-148 -108 -442 -322q144 -94 432 -284q30 -30 30 -63z" />
    <glyph glyph-name="equal" unicode="=" horiz-adv-x="682" 
d="M658 416q0 -22 -20 -46q-148 16 -246 5t-172 -11t-152 6q-52 22 -52 52v10q8 36 64 60q26 -28 114 -28t223 8t195 6q42 -30 46 -54v-8zM652 612q0 -22 -18 -46q-150 16 -248 5t-172 -11t-152 6q-52 22 -52 54v8q8 36 66 60q38 -44 325 -21q113 9 207 7q40 -30 44 -54v-8z
" />
    <glyph glyph-name="greater" unicode="&#x3e;" horiz-adv-x="610" 
d="M22 220q0 32 30 64l432 282q-146 108 -442 324q-36 40 -2 113t64 73q48 -60 140 -152q80 -84 173 -178t171 -176q-152 -160 -456 -476q-8 -2 -14 -2q-44 2 -78 64q-18 32 -18 64z" />
    <glyph glyph-name="question" unicode="?" horiz-adv-x="1040" 
d="M366 50q0 18 22 57t53 39q107 0 111 -66v-12q0 -36 -16 -57t-12 -49q-10 -10 -31 -10t-70 16t-55 54q-2 10 -2 28zM432 390q-42 0 -60 12q-14 130 36 216q52 86 109 147t99 106t81 102t41 157t-40 178q-48 97 -144 112q-70 11 -136 -24q-88 -52 -127 -156t-8 -144t87 -26
q38 -42 34 -101t-78 -49q-130 26 -170 132q-14 38 -14 86t26 112q44 108 137 170t203 62t185 -47q185 -116 185 -323v-4q-2 -126 -54 -208q-82 -126 -165 -186q-144 -104 -165 -194q-10 -40 2 -100q-22 -30 -64 -30z" />
    <glyph glyph-name="at" unicode="@" horiz-adv-x="1382" 
d="M744 1168q-86 0 -199 -49t-200 -164t-89 -291q-2 -177 118 -328q102 -136 261 -200t285 -44t154 128q34 32 66 3t20 -63q-117 -154 -385 -154q-77 0 -183 32q-166 50 -284 174q-172 181 -172 448v16q4 170 110 312q90 116 225 177t267 61h8q182 -2 293 -61
q184 -98 215 -285q10 -50 10 -86q0 -152 -55 -263t-122 -166t-134 -42t-100 53q-65 79 -65 148q-8 -20 -47 -71t-103 -73q-24 -6 -48 -2q-78 12 -104 96t-8 165q51 228 149.5 257.5t155.5 24.5t89 -42t28 -71q-8 -62 -46 -58q-40 2 -54 26q18 14 10 54q-6 38 -46 40t-76 -48
q-34 -52 -60 -129t-28 -156t44 -85q54 -10 118 102q27 54 38 104q30 42 66 15t38 -57q-18 -28 -18 -99t44 -125q18 -20 44 -24q70 -12 118 89t49 214q2 235 -104 366q-107 131 -293 131z" />
    <glyph glyph-name="A" unicode="A" horiz-adv-x="1808" 
d="M1078 676q52 0 100 4q-11 97 -25 418q-13 322 -15 344q-50 -72 -114 -332q-20 -88 -42 -188t-46 -204l-6 -30q96 -12 148 -12zM1558 -106h-14q-131 15 -224 182q-64 126 -91 268t-43 252q-140 0 -201 11t-71 11q-20 -80 -46 -186t-81 -278t-153 -327t-236 -161h-8
q-98 0 -171 94q-111 143 -111 338q0 120 52 208q70 123 232 134q58 -12 65 -89t-33 -99q-114 43 -178 -30q-61 -85 -41 -213q19 -129 69 -212t122 -81q129 7 230 406q46 174 90 368l60 260q30 130 80 300t136 322q58 102 136 136q-4 6 -6 10q8 36 68 40h10q54 0 87 -26
q61 -48 65 -114q-11 -228 14 -706q74 18 98 32q44 -6 46 -54q0 -6 -2 -12q-6 -60 -36 -60q-44 -10 -98 -14q2 -12 8 -70q59 -568 174 -580q48 -4 91 79q60 116 107 297l20 80q49 6 74 0q-14 -64 -36 -147q-55 -208 -142 -309q-52 -60 -112 -60z" />
    <glyph glyph-name="B" unicode="B" horiz-adv-x="1480" 
d="M628 1320q50 0 86 -42v-8q0 -108 -46 -476q62 8 145 57q136 80 187 217q16 46 12 96q-12 138 -131 209t-255 27q-168 -50 -266 -250q-62 -28 -86 25t26 123q210 200 482 200q138 0 252 -62q152 -82 170 -252q11 -122 -72 -218q-66 -82 -160 -129t-140 -65q56 -10 177 -54
t202 -155t81 -253q0 -262 -190 -427t-445 -165t-370 105t-155 208t-40 185t26 144q56 142 150 182q85 19 113 -15q29 -35 25 -91t-12 -100q-54 30 -100 1q-74 -47 -68 -169q4 -42 27 -103q49 -131 161 -217q100 -72 217 -77t221 61q84 56 148 161t84 237t-1 207t-63 127
q-76 96 -187 127t-173 33q-12 -120 -29 -287q-50 -491 -25 -513q-28 -36 -86 -36h-14q-68 4 -78 70q6 26 24 188q62 634 59 944q-1 110 -21 118q20 86 98 106q20 6 40 6z" />
    <glyph glyph-name="C" unicode="C" horiz-adv-x="1360" 
d="M760 -258q-160 0 -273 62t-187 150q-182 227 -182 602q0 191 54 370q88 312 308 482q140 110 326 110h6q96 0 160 -60q84 -72 105 -194q34 -200 -55.5 -278t-174.5 -95t-127 27q-40 44 2 120q107 -7 178 96q46 66 53.5 171t-85.5 145q-26 12 -64 12q-120 -2 -254 -145
t-176 -545q-29 -236 6 -448q34 -212 118 -355t224 -155q192 -18 344 120q76 69 151 199q75 129 111 285q24 0 72 -2q-51 -234 -200 -438q-109 -142 -264 -204q-78 -32 -176 -32z" />
    <glyph glyph-name="D" unicode="D" horiz-adv-x="1724" 
d="M746 1268q6 -12 6 -116t-37 -635q-37 -530 -27 -549q-24 -32 -68 -30q-82 0 -92 76q7 28 22 191t19 422q7 529 -29 547q20 86 88 118q24 12 55 12t63 -36zM697 -240q-315 0 -455 242q-60 101 -60 216v28q10 106 64 181t114 99q82 22 112 -12t26 -90t-12 -102
q-58 38 -114 6t-79 -109t20 -164q84 -168 223 -209q122 -40 264 13t247 172t170 274t74 353t-66 369q-116 266 -312.5 340t-364.5 -37q-92 -60 -174 -186q-64 -28 -87 25t27 123q199 188 480 188t478 -194q106 -102 167 -254t61 -346v-32q-11 -367 -228 -614
q-80 -90 -176 -154q-199 -126 -399 -126z" />
    <glyph glyph-name="E" unicode="E" horiz-adv-x="1358" 
d="M645 848q-27 0 -43 -4q2 -2 6 -2q58 -28 62 -6q2 12 -25 12zM840 1058q-28 0 -48 10q-48 20 -56 75t28 85q42 -32 80 -22q46 16 46 91t-54 129q-56 56 -149 56t-159 -82t-75 -212t51 -232q12 -26 26 -46q90 12 160 -12t58 -74q-12 -60 -81 -56t-145 46
q-210 -133 -211 -437q-1 -213 141.5 -379t400.5 -121q202 35 349 253q80 120 126 308q33 9 70 2q-42 -214 -138 -356q-176 -251 -438 -302q-68 -12 -123 -12t-97 4q-202 28 -351 168t-153 366v14q0 174 54 291t129 182t149 89q-143 143 -138 308q10 154 134 252t272 100h8
q107 0 187 -57t107 -142q28 -85 5 -161t-103 -110q-34 -16 -62 -16z" />
    <glyph glyph-name="F" unicode="F" horiz-adv-x="1008" 
d="M258 1252h-6q-194 0 -230 124q-4 14 -4 36t24 65t100 37q28 -2 20 -24t-30 -30q-24 12 -49 -8t2 -53t141 -19t265 55t309 87q409 119 522 122h4q40 3 78 -30q44 -44 44 -116v-8q-4 -76 -44 -98q-94 86 -548 -30q-80 -18 -180 -42q-283 -68 -418 -68zM744 734
q0 -18 -12 -52t-36 -44q-122 -26 -240 -26h-8l6 -608q0 -150 -6 -174q-34 -22 -63 -22q-130 0 -173 72q-12 18 -14 42q46 25 76 708v6q-24 6 -46 15t-22 39v4q0 34 26 48q18 -10 44 -14q8 144 9 293t-3 165q52 46 105 46t79 -18q-20 -11 -20 -486q72 6 148 24t96 42
q54 -7 54 -60z" />
    <glyph glyph-name="G" unicode="G" horiz-adv-x="1488" 
d="M902 -118q-199 -85 -256 -142q-100 -104 -100 -254q4 -122 67 -215t125 -93q68 -2 103 151q46 203 61 525v28zM726 -886q-74 0 -135 60q-99 98 -117 256q-19 125 30 242t166 188q60 38 236 110v52q4 148 2 256v116q-14 -28 -54 -111t-92 -132t-96 -70t-113 -14
q-150 15 -249 122q-158 169 -158 461q0 223 100 434q74 158 202 260q161 132 374 132h18q125 -4 192 -106q58 -84 53 -199t-66 -184t-154 -85t-130 26t5 114q100 -11 170 82q44 60 54 136q12 114 -74 154q-24 12 -60 14q-110 2 -192 -71q-129 -115 -186 -321
q-51 -161 -58 -332q-18 -278 56 -454q46 -116 130 -127t165 103q122 171 173 422q16 80 18 146q30 54 105 34t87 -80q-14 -4 -14 -164q-4 -138 -8 -293t-10 -253q62 30 132 72t135 114t93 182q18 10 33 8t39 -8q-49 -208 -254 -348q-88 -58 -184 -100q-43 -539 -178 -736
q-78 -108 -184 -108h-2z" />
    <glyph glyph-name="H" unicode="H" horiz-adv-x="1768" 
d="M1226 570q0 20 2 42v44h-44q-172 0 -292 20q-22 -280 -74 -504q-59 -277 -176 -422q-74 -94 -178 -94h-2q-102 0 -173 101t-91 233q-15 73 -4 168q19 176 146 250q58 36 144 38q58 -14 62 -91t-36 -97q-119 49 -178 -28q-62 -73 -48 -242q12 -106 60 -194t120 -88
q28 0 54 28q72 90 121 375t54 618q10 633 -45 649q32 94 114 118q22 6 42 6q50 0 76 -38q28 -67 28 -301q0 -233 -10 -403q22 -2 120 -2t214 12q10 199 44 394q64 373 114 428q22 24 49 24t53 -10q68 -24 64 -122q-46 -12 -79 -150q-50 -210 -69 -544q102 20 132 50
q48 -6 46 -54v-8q-4 -56 -38 -74q-48 -24 -144 -36q0 -30 -2 -143t12 -241q23 -308 104 -312q48 -4 105 104t113 334q41 10 74 2q-115 -516 -292 -516h-12q-130 14 -192 154q-88 192 -88 522z" />
    <glyph glyph-name="I" unicode="I" horiz-adv-x="770" 
d="M468 842v-792q0 -146 -6 -176q-25 -48 -99 -48q-73 0 -122 38t-53 108q17 3 41 127q25 123 51 536t30 616t0 221q3 58 108 58q46 0 76 -20q-24 -24 -24 -492q-2 -86 -2 -176z" />
    <glyph glyph-name="J" unicode="J" horiz-adv-x="1320" 
d="M294 1256q-82 0 -142 25t-78 93q-4 14 -4 36t20 56q28 52 102 46q28 -2 21 -25t-29 -29q-24 12 -49 -8t2 -54t142 -14t310 79t320 97q375 114 481 114h10q48 0 88 -36q46 -46 46 -118v-2q0 -74 -44 -90q-52 46 -184 38t-384 -78q-80 -20 -182 -48q-288 -79 -432 -82h-14z
M574 -260q72 0 114 92q72 144 85 514t-25 726q-17 154 -30 180q6 34 70 65t88 31t36 -8q0 -24 27 -251.5t27 -524.5v-40q-9 -827 -388 -836h-2q-102 2 -182 59t-130 143q-76 130 -80 286v12q2 148 83 232t217 76q32 -7 54 -38q24 -40 12 -94t-42 -70q-117 77 -172 8
q-40 -56 -26 -176t59 -206q94 -180 205 -180z" />
    <glyph glyph-name="K" unicode="K" horiz-adv-x="1194" 
d="M318 738v-32q8 6 16 14q-8 10 -16 18zM156 764q-20 -12 -19 -38t15 -42zM318 814q25 -11 66 -38q72 92 144 237t145 293t157.5 279t173.5 131q18 0 54 -20q75 -47 88 -116q4 -20 -2 -42q-38 4 -83 -39q-94 -90 -319 -429q-128 -195 -298 -346q146 -134 328 -568
q74 -176 161.5 -399.5t174.5 -304.5q32 -34 74 -34t84 61t35 109t-45 70q10 38 36 70t66 18q40 -46 40 -96q0 -126 -96 -222q-60 -58 -134 -60h-6q-275 0 -398 295t-191 495q-67 200 -107 309t-98 203q-14 -8 -30 -16l-20 -10v-18q2 -62 2 -124v-46q-2 -82 -2 -190
q0 -270 -10 -330q-37 -52 -98 -52q-60 0 -110 48t-50 98q70 26 100 590q-70 19 -70 92t78 108q11 435 -16 588q-6 46 -16 62q38 56 84 56h2q48 -2 78 -16q19 -47 22 -304q4 -258 6 -366v-26z" />
    <glyph glyph-name="L" unicode="L" horiz-adv-x="1352" 
d="M376 156q-120 63 -204 2q-38 -30 -47 -75t19 -71q35 -26 112 -9q76 17 114 135zM1366 -346q0 -60 -44 -110t-114 -50h-6q-141 0 -334 188q-98 96 -190 202t-176 180q-93 -149 -229 -168q-137 -18 -209 40q-50 44 -50 108v22q10 78 82 130q88 60 220 42q38 -6 76 -22
q38 146 58 396l20 200q18 156 46 304q63 312 224 432q82 62 204 62h12q136 -4 206 -96q70 -86 62 -210t-76 -205t-158 -85q-58 -4 -106 24t-34 100q104 -11 178 90q46 64 58 148q15 127 -74 168q-26 14 -64 14q-88 2 -134 -105t-69 -243t-49 -359t-57 -398t-97 -317
q104 -68 210 -148l116 -92q60 -44 138 -96t165 -76t147 36q43 -40 48 -100v-6z" />
    <glyph glyph-name="M" unicode="M" horiz-adv-x="2494" 
d="M1060 1518q117 0 166 -84q14 -22 16 -52q-14 -293 26 -637q40 -343 92 -471q34 -92 78 -82q23 3 89 151q67 148 174 541t119 594q26 20 92 21t104 -19q68 -36 82 -82q-16 -64 -26 -361q-34 -1017 94 -1045q90 -23 162 88q62 87 92 191.5t42 146.5q26 6 39 7t31 -9
q-4 -22 -14 -57l-22 -77q-73 -213 -164 -304q-73 -66 -148 -66q-122 0 -190 121t-102 271q-64 250 -64 614q2 132 6 194q-12 -71 -67 -272q-112 -407 -213 -606q-62 -120 -124 -130q-87 -11 -154 63q-115 129 -184 473q-50 239 -66 410q-4 -30 -26 -203t-73 -389t-106 -382
t-156 -315t-241 -155h-6q-127 0 -222 177q-60 111 -60 245q0 226 144 316q56 36 140 42q60 -12 67 -89t-33 -99q-121 45 -180 -33t-36 -235q16 -104 66 -187t122 -81q38 2 74 30q186 164 340 900q100 469 142 774q-11 89 -26 108q8 40 92 44h12z" />
    <glyph glyph-name="N" unicode="N" horiz-adv-x="1864" 
d="M474 -264q-104 0 -180 72t-98 196q-10 50 -10 103t14 111q42 171 180 194q46 8 84 -5t47 -23q36 -40 3 -110q-24 -48 -42 -40q-73 77 -120 57q-48 -19 -67 -100q-31 -132 21 -265q38 -92 110 -128q128 -54 190 90q72 159 100 534q25 447 -10 764q-18 144 -42 178
q40 64 125 83t121 -27q2 -44 6 -115t3 -216t-3 -173l18 60q141 445 328 522q34 16 59 16q126 0 209.5 -108.5t74.5 -381.5t-49 -500q-14 -92 -32 -210t-27 -221t23 -112q109 -31 218 167q67 127 104 268q22 0 36 2t34 -8q-26 -132 -110 -289q-83 -157 -198 -199
q-48 -18 -104 -6q-110 24 -143 157t-27 301t37 419t39 352t0 189q-10 88 -60 96q-119 21 -250 -226q-116 -240 -162 -430t-56 -264t-37 -237t-78 -282t-111 -184t-146 -71h-22z" />
    <glyph glyph-name="O" unicode="O" horiz-adv-x="1604" 
d="M948 220q8 20 41 102t72 280t43 402q10 326 -72 448q-30 42 -77 44q-97 4 -157 -120q-54 -106 -65 -278q-17 -263 47 -506q52 -221 162 -362q4 -6 6 -10zM326 583.5q0 -296.5 124 -493.5q80 -130 217 -137t239 185q-130 130 -198 309q-137 359 -96 689q18 154 86 258
q-65 -8 -145 -78q-79 -70 -134 -206q-93 -230 -93 -526.5zM980 1552h6q130 -4 208 -122t103 -296q53 -375 -89 -760q-52 -142 -130 -246l24 -6q145 -33 253 29q107 61 157 144t58 117q24 0 72 -2q-8 -42 -66 -143t-176 -167q-168 -95 -376 -38l-4 -4q-151 -164 -350 -164
h-14q-180 4 -301 120t-177 286t-56 350v10q2 190 65 369q107 304 377 401q84 30 184 30q98 92 232 92z" />
    <glyph glyph-name="P" unicode="P" horiz-adv-x="1448" 
d="M650 1350h12q70 -6 94 -50q-35 -18 -72 -740q56 6 160 27t182 113q99 113 73 285q-48 312 -239 439q-104 66 -221 61q-186 -8 -313 -175q-42 -58 -73 -140t-14 -152t63 -99t100 1q26 -144 -8 -184q-34 -41 -118 -22q-92 40 -149 185t17 335q75 185 264 258q112 46 240 46
q271 0 460 -162q160 -142 186 -344q8 -46 8 -90q0 -154 -86 -252q-180 -210 -466 -210q-38 0 -72 4q-12 -206 -22 -384t-20 -216q-28 -18 -59 -18t-67 14q-72 32 -84 108q40 20 96 544l16 180q21 238 30 399q8 161 6 181q18 58 76 58z" />
    <glyph glyph-name="Q" unicode="Q" horiz-adv-x="1398" 
d="M268 12q26 -35 99 -33q73 1 117 25t78 52q-20 18 -58 47t-104 31t-114 -43t-18 -79zM84 844q0 200 90 349q141 234 394 297q64 16 113 16q229 0 355 -94q102 -74 147 -200t18 -299t-107 -343q-40 -90 -93 -175q-122 -195 -273 -325q171 -142 458 -466q290 -333 424 -314
q85 16 136 80q60 70 62 165t-70 149q28 30 83 57t119 -23q28 -64 28 -118t-16 -98q-59 -163 -187 -225t-227 -57q-185 0 -382 158q-154 128 -281 303t-186 241t-65 74q-116 -74 -237 -74t-173 66t5 150t181 81t242 -85q173 197 288 518q60 172 78 339t-20 262t-94 141
q-58 46 -148 56q-144 14 -252 -69q-160 -123 -222 -333q-53 -198 18 -364q46 -106 132 -134t190 74q32 -26 20 -71t-26 -69q-114 -78 -238 -40t-200 150q-42 62 -63 134t-21 116z" />
    <glyph glyph-name="R" unicode="R" horiz-adv-x="1380" 
d="M374 548l10 92q-74 -2 -76 -53t64 -63zM250 576q0 58 52 92q31 20 86 26q17 134 31 363q15 229 11 249q26 54 80 54h18q68 -10 82 -54q-24 -16 -68 -654q20 -14 42 -30q24 -22 46 -46q385 100 354 404q-14 148 -70 249t-132 157q-94 66 -204 66t-210 -67t-156 -197
t-6 -211t128 -43q6 -42 8 -94t-27 -83t-107 -9q-84 40 -132 176q-18 50 -18 126t50 186q70 162 232 222q110 42 195 42t159 -12t161 -53q175 -82 263 -247q54 -108 54 -202q0 -236 -212 -360q-122 -74 -282 -106q130 -165 258 -536q38 -110 67 -195t68 -192t90 -199t106 -95
t102 51q68 78 43.5 117t-42.5 51q12 38 36 65t64 11q32 -36 34 -84v-14q2 -42 -14 -82q-26 -72 -88 -124t-134 -52h-6q-280 5 -440 456q-71 204 -114 366q-42 162 -73 258t-75 180q-14 -4 -30 -8q-44 -560 -54 -598q-26 -16 -58 -16t-68 16q-72 36 -80 112q36 18 96 468
q-6 0 -12 2q-94 8 -104 78v20z" />
    <glyph glyph-name="S" unicode="S" horiz-adv-x="1394" 
d="M470 1084q0 -109 100 -200q82 -82 205 -152q266 -151 369 -332q50 -86 50 -205t-38 -204q-127 -283 -504 -283q-72 0 -160 15t-173 84t-142 172t-57 229q0 26 2 50q14 154 160 236q86 18 116 -64t0 -164q-90 34 -113 -60q-33 -134 55 -278q41 -71 112 -112q36 -20 78 -28
q108 -22 208 19q158 65 222 239q20 60 24 143t-51 154t-123 123t-128 93t-142 104t-162 169q-78 106 -73 256t117 281t335 131t335 -136q133 -159 101.5 -293.5t-71.5 -196.5q-74 -58 -157 -17t-89 117q92 22 140 92q42 71 30 147q-12 75 -64 136t-140 77q-148 28 -260 -60
t-112 -282z" />
    <glyph glyph-name="T" unicode="T" horiz-adv-x="1478" 
d="M880 -106q-93 0 -136 76q-18 28 -18 66q73 0 104 846q9 387 2 424q20 24 53 43t59 19t44 -4q-8 -24 -6 -200l10 -1054v-112q-2 -44 -4 -60q-36 -40 -98 -44h-10zM360 1310q-78 0 -137 6q-143 15 -177 108q-4 14 -4 37t14 55q26 52 100 48q28 0 22 -23t-28 -31
q-24 16 -47 -7t-1 -56t168 -12q207 29 733 163q527 134 653 140h8q48 0 76 -28q46 -42 46 -114v-2q-2 -72 -40 -96q-81 54 -444 -23q-156 -33 -324 -67q-459 -98 -618 -98z" />
    <glyph glyph-name="U" unicode="U" horiz-adv-x="1854" 
d="M640 696q164 261 220 562q38 184 -10 256q-16 26 -44 30q-84 15 -134 -300q-32 -243 -32 -548zM786 1594q104 0 138 -94q50 -127 2 -342q-71 -330 -280 -598l4 -62q23 -332 72.5 -412t83.5 -82q76 -4 144 60q127 127 218 381t107 414q38 367 53 555q22 36 71 40
q92 7 149 -50q24 -24 32 -54q-30 -32 -51 -214q-41 -355 -27 -753q14 -397 80 -397q58 -4 103 71q72 119 113 279q16 54 24 84q22 0 68 -2q-8 -46 -57.5 -209t-156.5 -261q-42 -40 -92 -40h-8q-86 7 -151 84q-128 150 -163 464q-2 36 -2 56q-6 -31 -39 -122
q-122 -339 -301 -436q-54 -28 -114 -24q-110 8 -197 123t-139 349q-127 -76 -231 -53q-105 23 -157 99q-28 48 -28 88t10 72q26 84 110 86q32 -10 45 -37t7 -37q-48 -18 -70 -72t1 -97t77 -55q106 -22 210 64q6 6 14 12v6q-47 314 9 648t215 436q48 32 104 32z" />
    <glyph glyph-name="V" unicode="V" horiz-adv-x="1482" 
d="M1366 1654h2q16 0 30 -8q40 -18 61 -64t21 -66t-4 -32q-106 -13 -203.5 -535.5t-138.5 -682.5q-40 -160 -76 -228t-64 -94t-60 -26h-2q-110 2 -173 132q-99 205 -150 665q-31 278 -53 417q-22 138 -56 227t-99 91t-115 -81q-89 -148 -68 -319q10 -64 40 -106
q60 -74 178 -30q40 -22 33 -99t-67 -89q-157 11 -232 134q-50 88 -50 221t70 261q38 72 95 116t125 42q112 -4 189 -125q117 -183 183 -491q37 -155 78 -386t68 -326q28 -96 58 -100q26 0 60 236t59 420q118 869 233 918q14 8 28 8z" />
    <glyph glyph-name="W" unicode="W" horiz-adv-x="1986" 
d="M46 1064q0 152 80 278q93 149 239 138t237 -306q71 -248 99 -623t63 -469q12 -38 32 -38q64 -9 209 697q39 189 47 219q6 30 6 40q34 60 111 36t89 -78q8 -48 27 -199t45 -306q77 -461 132 -461t126 506q69 465 142 770q92 362 212 376h2q46 0 78 -42q14 -18 14 -53
t-24 -97q-78 22 -134 -100q-54 -124 -86 -270t-53 -260t-51 -273t-64 -303t-76 -237t-94 -92q-144 3 -232 227q-49 132 -67.5 238t-29.5 181t-17 145t-10 80q-4 -16 -36 -189t-80 -319q-53 -183 -115.5 -270.5t-117.5 -88.5q-97 -2 -150 90q-85 148 -105 541q-6 108 -12 343
t-35 383t-99 154q-72 4 -146 -100t-58 -264q12 -114 104 -136q44 -10 108 12q40 -24 30 -101t-70 -85q-160 15 -226 134q-44 76 -44 172z" />
    <glyph glyph-name="X" unicode="X" horiz-adv-x="1948" 
d="M1779 1642q71 0 71 -89q0 -21 -24 -37q-62 20 -142 -84t-157 -248t-231 -456l-16 -32q22 -46 112 -245q215 -474 306 -481q108 -9 220 438q41 10 74 2q-115 -516 -292 -516h-12q-133 15 -272 176q-88 102 -149 211t-101 185l-10 -22q-72 -144 -177 -332t-240 -350
t-259 -162h-12q-94 6 -156 102q-76 122 -76 272q0 151 68 244q76 112 228 104q54 -16 53 -88t-39 -90q-105 51 -170 -14t-56 -216q4 -98 44 -181t114 -87t191 175t224 400t195 405q-82 176 -178 404t-170 302q-30 32 -56 30q-12 14 -12 39t41 59t76 34t59 -9
q86 -32 236 -354q62 -133 122 -265q86 174 182 350q160 293 292 392q48 34 99 34z" />
    <glyph glyph-name="Y" unicode="Y" horiz-adv-x="1684" 
d="M584 688q78 134 118 241q94 254 88 409q-4 98 -62 106q-24 4 -43 -17q-52 -57 -79 -262q-28 -204 -22 -477zM1170 -46q-149 -84 -229.5 -209.5t-84.5 -278.5q-4 -152 49 -252t131 -104q86 -7 114 410q14 176 16 286t4 148zM1046 -942q-154 0 -226 127q-115 202 -20 469
q32 88 95 172t159 138q58 34 116 62v156q0 130 -2 220v108q-8 -35 -40 -109q-85 -195 -200 -299q-92 -88 -196 -84q-111 8 -190 112q-72 90 -110 236l-12 44q-114 -62 -218 -40q-71 15 -111 67q-41 53 -41 95q0 157 110 160q30 -10 40 -38t4 -38q-44 -14 -63 -64
q-29 -75 27 -124q18 -14 44 -18q98 -22 196 58q-60 302 6 620q38 180 114 291t180 111q58 0 87 -28q129 -125 0 -513q-70 -211 -205 -385q12 -197 54 -335.5t100 -144.5q102 -8 192 119q144 204 218 487q41 154 43 295q3 141 17 209q12 26 28 38q60 34 127 -33
q45 -45 57 -97q-70 -64 -70 -696q-2 -148 -6 -296q4 4 32 17t87 50q148 93 183 245h70q-26 -126 -105 -207t-179 -129l-90 -44l-8 -160q-27 -509 -135 -713q-59 -111 -159 -111z" />
    <glyph glyph-name="Z" unicode="Z" horiz-adv-x="1358" 
d="M1190 11q32 -31 32 -63t-26 -64q-18 -18 -46 -34q-98 -34 -192 -34h-4q-154 3 -294 50q-54 16 -124 39t-141 40t-113 -11q-74 8 -102 69t30 137q220 294 408 594q186 300 416 526q-152 -24 -339 -31q-301 -11 -487 41q-64 20 -100 50q-22 26 -22 62q-2 8 -2 16
q0 58 31 99t48 42t29 -15q10 -41 102 -72q138 -40 478 -36q174 2 344 30q66 -2 86 -48t-22 -90q-115 -118 -481 -635q-241 -340 -377 -523q110 20 245 -32t272 -114t181 -64t62 18t12 72q64 12 96 -19z" />
    <glyph glyph-name="bracketleft" unicode="[" horiz-adv-x="632" 
d="M136 594q0 535 46 1080q178 0 266 -2q4 -14 4 -30t-8 -34q-70 8 -106 12q-60 -556 -42 -1260q8 -356 36 -642q86 4 128 6q8 -14 8 -34v-6q-2 -22 -2 -34q-196 -2 -296 -2q-34 411 -34 946z" />
    <glyph glyph-name="backslash" unicode="\" horiz-adv-x="1098" 
d="M138 1572h18q46 -8 70 -20q5 -20 148 -323q143 -304 311.5 -618.5t248.5 -439.5t106 -117q16 -44 16 -74q-3 -72 -78 -72q-34 0 -74 20q-16 24 -274 530l-208 408q-46 90 -90 176q-46 86 -143 274t-129 234q40 22 78 22z" />
    <glyph glyph-name="bracketright" unicode="]" horiz-adv-x="636" 
d="M486 538v-204q-9 -407 -34 -686q-196 2 -294 2q-2 12 -2 36v4q0 20 8 34l126 -6q56 578 36 1242q-8 338 -42 660q-70 -8 -106 -12q-8 18 -8 34t6 30q176 2 264 4q46 -545 46 -1138z" />
    <glyph glyph-name="asciicircum" unicode="^" horiz-adv-x="972" 
d="M884 996q0 -52 -40 -83t-104 -26t-102 43q-13 45 -69.5 217.5t-80.5 248.5q-78 -160 -234 -478q-24 -40 -58 -40q-10 0 -38 11t-60 43q88 72 258 360q51 83 138 234q64 -86 137 -205t137 -209q36 -46 64 -78q30 -30 52 -36v-2z" />
    <glyph glyph-name="underscore" unicode="_" horiz-adv-x="862" 
d="M894 -22q0 -32 -2 -46q-107 17 -397 8q-291 -10 -363 -10t-134 4q-40 16 -40 37t54 81q35 -17 416 -10q382 8 438 4q28 -36 28 -68z" />
    <glyph glyph-name="grave" unicode="`" horiz-adv-x="294" 
d="M266 1286q-16 0 -26 2q-20 54 -85 100t-97 58q-16 16 -18 56v6q0 38 17 51t33 13h4q14 0 34 -8q76 -34 112 -114t44 -146q-2 -18 -18 -18z" />
    <glyph glyph-name="a" unicode="a" horiz-adv-x="888" 
d="M612 -96h-14q-81 7 -135 61q-53 53 -76 110t-27 83q-10 -46 -72 -111t-136 -77q-67 -13 -122 38q-88 86 -88 222v14q4 146 72 270q44 82 123.5 152t200.5 70q122 0 174 -48q72 -68 62 -144t-55 -93t-90 5t-59 48q24 12 46 58q24 46 10 82q-9 34 -64 42q-56 8 -112 -61
t-96 -176t-41 -225t69 -144q42 -14 86 30q71 78 100 194q12 40 16 78q38 48 104 2t68 -82q-20 -34 -24 -97q-8 -119 40 -181q20 -28 55 -33q64 -9 125 113q38 78 63 171t35 131q27 14 74 2q-34 -152 -97 -300q-63 -147 -155 -190q-28 -14 -60 -14z" />
    <glyph glyph-name="b" unicode="b" horiz-adv-x="828" 
d="M444 432q4 98 -42 88q-32 -8 -17 -70t49 -124q8 54 10 106zM238 -82q-192 0 -254 176q-30 84 -30 196v4q0 162 23 310t40 251t25 204t-24 137q-4 42 68 70q66 28 128 4q44 -18 53 -51t-22 -227t-67 -498q-25 -271 1 -407q19 -99 79 -103q76 -3 150 224q-83 104 -102 218
q-29 179 115 215q98 25 145 -45q48 -70 20 -216q-18 -96 -56 -184q61 -57 139.5 -15t118.5 233q24 0 74 -2q-43 -173 -111 -242q-129 -132 -257 -46q-4 -6 -6 -12q-48 -82 -112 -137t-134 -57h-4z" />
    <glyph glyph-name="c" unicode="c" horiz-adv-x="774" 
d="M403 -88q-118 0 -189 32q-185 84 -238 270q-20 72 -20 154t34 146q63 117 148 172q82 56 168 56q140 0 178 -134q15 -62 -14 -112q-40 -70 -117 -87t-63 41q52 26 63 93q16 97 -49 121q-14 6 -34 4q-70 -6 -98 -90t-19 -204t69 -240t162 -128t177 66q122 120 171 346
q20 6 72 0q-16 -78 -63 -201t-137 -209q-48 -46 -106 -71t-95 -25z" />
    <glyph glyph-name="d" unicode="d" horiz-adv-x="896" 
d="M414 618q-55 32 -112 4q-51 -22 -102 -111t-63 -186q-11 -97 -1 -138t38 -86t78 -17q48 28 97 129t63 347zM436 1093q0 133 -16 179q52 54 114 54q22 0 44 -6q86 -26 86 -106q5 -37 -25 -241q-83 -577 -87 -687q-4 -111 30 -230q16 -54 44 -60q68 -11 128 114
q38 78 63 171t35 131q20 8 39 8t35 -6q-39 -207 -132 -370q-50 -85 -120 -122q-30 -14 -62 -14h-10q-126 13 -186 166q-20 56 -24 80q-10 -18 -59 -82t-135 -85t-134 -1t-89 80t-47 136v40q0 84 15 126t17 54q40 124 120 184q82 58 114 66q128 34 200 0q10 -6 22 -12
q20 300 20 433z" />
    <glyph glyph-name="e" unicode="e" horiz-adv-x="706" 
d="M166 352q60 36 102 107q74 124 42 207q-16 44 -80 -4q-24 -18 -41 -47q-44 -75 -51 -159t-2 -118q16 4 30 14zM330 -80h-20q-148 10 -229 94q-123 127 -129 306v16q0 48 10 90q32 160 112 220t121 72t79 12t82 -16q74 -30 90 -109t-48 -169q-86 -118 -250 -166
q6 -16 21 -68t48 -101q60 -89 121 -97q99 -4 170 71q112 117 164 349q24 3 72 -2q-16 -76 -61 -197t-136 -213t-217 -92z" />
    <glyph glyph-name="f" unicode="f" horiz-adv-x="586" 
d="M128 -80q-12 -144 -24 -325t3 -286t39 -145t64 -36q50 4 72 134t3 255q-42 273 -157 403zM48 1218q38 0 80 -24q66 -38 72 -110q12 -184 -8 -441t-44 -517v-2q80 4 140 22q128 40 182 120t72 140q23 5 74 0q-44 -168 -182 -267t-294 -85v-10q76 -44 153 -176t107 -273
q83 -391 -30.5 -460t-179.5 -73h-18q-140 0 -196 151q-79 213 -54 667q6 84 10 166q-20 6 -40 10q-34 12 -34 38q0 8 2 16q12 40 40 40l38 -8l2 32q22 284 34 547t-34 419q30 78 108 78z" />
    <glyph glyph-name="g" unicode="g" horiz-adv-x="878" 
d="M232 -912q58 0 120 748q0 12 2 24q-166 -122 -225 -218q-59 -97 -41 -268q12 -110 52 -198t92 -88zM224 -962q-112 0 -178 100q-70 100 -72 249t90 289q50 74 124 134q76 60 121 90t51 36q14 168 14 248q-31 -78 -96 -134q-64 -56 -139 -67t-143 52t-68 181v28
q10 140 74 264q44 80 106 141t125 73t107 12h32q54 -6 94 -24q72 -34 95 -91t20.5 -89.5t-33.5 -63.5q-44 -36 -106 -30t-74 52q22 26 47.5 84.5t-15.5 93.5q-12 10 -34 14q-52 10 -105 -55t-97 -167t-61 -215t25 -142t97 3q91 53 137 162q18 38 24 71t36 44q69 25 132 -17
q30 -22 13 -54t-23 -132t-8 -130q186 124 258 258q30 50 44 112q25 10 72 -2q-37 -175 -214 -324q-78 -64 -166 -120q-25 -283 -41 -392q-17 -110 -43 -224t-80 -215t-138 -103h-4z" />
    <glyph glyph-name="h" unicode="h" horiz-adv-x="844" 
d="M358 230q0 126 6 232t-48 110q-56 7 -148 -188q-48 -104 -53 -176t-5 -134t-2 -136q-20 -46 -104 -58q-14 -2 -24 -2q-60 0 -62 52q10 54 27 306t17 556q5 332 -26 370q4 38 64 79t107 30q46 -12 65 -53q7 -63 -5 -226q-13 -162 -19 -255.5t-18 -217.5q-12 -123 -12 -143
q6 20 50 111t104 140t109 48t79 -29q53 -57 66 -166t18 -374q2 -102 42 -110q48 -8 92 67q72 123 128 347q14 8 36 7t34 -11q-24 -130 -76 -249t-96 -165q-88 -92 -184 -78q-162 24 -162 316z" />
    <glyph glyph-name="i" unicode="i" horiz-adv-x="456" 
d="M84.5 1230q87.5 0 119.5 -70q14 -32 14 -56t-4 -40q-12 -50 -98 -70q-34 -8 -64 -8t-44 18q8 36 -9 61t-17 59l4 32q11 74 98.5 74zM-54 218q0 126 28 265t4 175q20 42 104 60q22 6 40 6q48 0 60 -34q-6 -66 -18 -144t-27 -189t-11 -227t78 -130q46 -8 88 65
q75 130 128 343q43 12 72 0q-42 -224 -126 -364q-50 -88 -110 -114q-24 -12 -50 -12h-18q-234 29 -242 274v26z" />
    <glyph glyph-name="j" unicode="j" horiz-adv-x="532" 
d="M-34 1087q0 25 2 41q11 74 124 74q62 0 94 -70q14 -32 14 -56t-4 -40q-12 -50 -96 -70q-36 -8 -66 -8t-44 18q8 36 -8 61t-16 50zM-170 -892q62 0 94 306q18 200 26 380l-24 -20q-137 -115 -174.5 -274.5t-4.5 -275.5t83 -116zM172 564q-36 -18 -36 -337q0 -121 -2 -225
q90 66 178 136q138 108 182 280q35 14 72 0q-53 -224 -286 -386q-76 -52 -148 -102q-2 -18 -4 -145t-31 -307t-91 -300t-178 -120h-6q-121 4 -168 114q-28 60 -28 122q0 208 122 382q52 74 108 120t96 78v36q4 106 7 391t7 327q15 50 75 50q33 0 81 -33t50 -81z" />
    <glyph glyph-name="k" unicode="k" horiz-adv-x="842" 
d="M-16 1214q54 38 106 38t80 -52q9 -77 -21 -404q-29 -328 -32 -354t-3 -36q24 71 80 157q57 86 109 124t99 30q46 -9 69 -28q45 -37 47 -89t-11 -103t-61 -110t-116 -81q48 -26 78 -95q57 -130 116 -185q24 -22 66 -30t86 66q42 76 78 178t48 170q16 8 38 7t34 -11
q-75 -316 -174 -417q-125 -128 -244 -47q-91 73 -154.5 194.5t-109.5 127.5q-12 17 8 42q65 20 122 134q30 56 39 109t-19 61q-30 8 -78 -53t-97 -154t-54 -165t-7 -142t-6 -144q-22 -58 -118 -58q-60 0 -64 54q26 141 36 558q2 78 2 154q5 437 -30 480q4 36 58 74z" />
    <glyph glyph-name="l" unicode="l" horiz-adv-x="478" 
d="M-22 1214q21 54 103 54t127 -74q14 -26 18 -62q-4 -82 -35 -331t-35 -433t10 -274t59 -98q79 -14 161 228q29 77 56 184q45 11 72 0q-4 -16 -18 -84t-60 -181t-100 -169q-49 -56 -110 -56h-14q-246 32 -260 412q-2 40 -2 98t6 149t24 253t22 258t-24 126z" />
    <glyph glyph-name="m" unicode="m" horiz-adv-x="1312" 
d="M818 746h4q117 0 152 -236q14 -82 29 -288t53 -214q50 -8 94 66q42 76 78 178t48 170q58 7 72 -4q-12 -42 -39 -141t-91 -215q-60 -95 -128 -124q-42 -20 -96 -12q-100 15 -144 130q-35 86 -39 234q-5 148 -8 249t-51 105q-63 4 -140 -182q-44 -100 -49 -170t-5 -120
t-2 -90q-12 -34 -76 -26t-74 54q6 56 6 119q0 187 -42 323q-42 143 -118.5 42t-105.5 -196.5t-17 -249.5q11 -154 7 -188q-30 -26 -69 -37t-53 -11q-40 0 -60 34q-2 36 3 227t-19 349q-12 78 -38 90v12q0 54 71 98t93 -8q30 -72 45 -150t17 -104q12 26 40 86t63 97
q66 70 134 79t115 -56q40 -50 55 -119t17 -101q8 28 46 108t99 136t123 56z" />
    <glyph glyph-name="n" unicode="n" 
d="M366 734h4q78 0 124 -114q31 -84 43 -240q13 -156 21 -266t48 -118q48 -8 92 67q72 123 128 347q14 8 36 7t34 -11q-24 -130 -76 -249t-96 -165q-88 -92 -186 -78q-97 14 -146 130q-33 89 -37 236q-3 146 -4 247t-51 105q-32 2 -74 -54q-71 -103 -102 -222
q-14 -46 -12 -103t-10 -301q-18 -48 -82 -50h-6q-60 0 -78 36q14 74 17 257t-25 363q-12 66 -26 94q6 50 66 70q58 22 90 -8q9 -25 25 -112q15 -87 15 -168q10 30 48 109q60 125 158 177q30 14 62 14z" />
    <glyph glyph-name="o" unicode="o" 
d="M458 352q12 102 2 179t-48 69q-53 -16 46 -248zM306 -76q-94 0 -163 35q-191 97 -191 380q0 53 27 145t82 153q104 115 233 115h10q38 -8 40 -34q0 -28 -18 -54q-63 4 -104 -56q-78 -116 -68 -332q6 -114 46 -204t112 -88q54 2 94 120q18 56 32 114l-14 20
q-62 92 -94 204q-46 172 35 247q25 23 65 31q118 30 166 -67q70 -141 20 -355q-14 -62 -36 -118q51 -34 104 -6q95 48 138 240q24 0 74 -2q-8 -40 -38 -119t-75 -123q-87 -85 -175 -78q-30 2 -60 20q-98 -185 -238 -188h-4z" />
    <glyph glyph-name="p" unicode="p" horiz-adv-x="852" 
d="M346 34q-49 -12 -70 -37q-22 -25 10 -29q34 -2 60 66zM352 604q-46 0 -94 -63t-85 -173t-33 -271t-4 -393l-4 -144q-4 -72 -8 -168q-10 -248 -24 -316q-26 -54 -100 -60h-14q-62 0 -95 40t-33 76t6 62q61 0 95 386q33 386 3 750q-18 198 -58 270q-4 62 38 91t90 31h6
q44 0 64 -12q23 -93 30 -268q6 12 35 81q48 113 131 155q26 14 68 13q92 -2 153 -80q61 -77 72 -192t-19 -223l-8 -20q120 55 196 136q38 42 50 90q16 0 35 1t37 -1q-29 -118 -162 -210q-92 -62 -190 -100q-2 -2 -17 -30t-54 -65q-83 -79 -193 -75q-74 4 -56 66
q16 62 100 92q20 8 56 18q59 230 33 423q-11 83 -47 83z" />
    <glyph glyph-name="q" unicode="q" horiz-adv-x="688" 
d="M578 -826q0 -50 -36 -92t-108 -42h-2q-74 2 -104 58q-26 144 -26 370t7 358t12 221t5 107q-6 -16 -40 -68t-100 -87t-144 -9q-128 47 -128 220q0 112 43 214q92 218 243 282q64 28 108 28t74 -10q125 -44 150 -150q10 -36 2 -70q-10 -58 -69 -84t-109 18q10 38 31 112
t-13 116q-10 8 -26 10q-86 8 -194 -243q-46 -107 -67 -221t15 -132q58 -26 138 49t102 193q18 58 104 31t80 -65q-28 -24 -42 -177q-28 -301 2 -645q14 -132 36 -216t56 -70v-6z" />
    <glyph glyph-name="r" unicode="r" horiz-adv-x="704" 
d="M-40 398l46 220q-44 22 -70 60t-26 72v4q0 60 25 101t59 41t61 -31t33 -92t4 -89q70 0 155 16t119 4t44 -28t-4 -105t-8 -231t28 -238t52 -100q65 -6 142 226q26 83 50 180q45 11 72 0q-26 -140 -76 -263t-102 -183t-97 -60q-99 0 -180 54t-90 115t-9 165.5t19 220.5
q19 115 5 127l-72 12q-46 10 -62 10q-6 -20 -20 -91t-26 -119q-21 -3 -72 2z" />
    <glyph glyph-name="s" unicode="s" horiz-adv-x="698" 
d="M218 12q-56 -20 -76 -66t8 -58q34 -14 54 64q8 30 14 60zM-96 752q0 46 24 70q27 38 68 38h6q72 -6 84 -70q10 -64 0 -146q70 -35 153 -106q197 -167 219 -328q0 -12 2 -24q70 42 129 101t73 125q44 12 74 2q-15 -93 -100 -175q-86 -81 -172 -131q-7 -116 -46 -180
q-67 -114 -208 -114q-46 0 -82 16q-66 26 -66 82t47 106t121 74q14 87 -17 185q-31 99 -74 170t-75 93q-6 -20 -11 -62t-19 -90q-22 -6 -72 0q41 177 42 190q-100 77 -100 174z" />
    <glyph glyph-name="t" unicode="t" horiz-adv-x="594" 
d="M452 1126v-10q-6 -56 -48 -77t-115 -33t-109 -18q-14 -126 -15 -271q-5 -687 111 -713q57 -11 114 38q74 68 138 260q25 90 30 110q16 4 37 4t35 -4q-28 -138 -84 -254q-73 -161 -184 -214q-36 -16 -63 -16q-127 0 -195 65t-102 155q-52 138 -52 396v48q2 78 7 156t8 128
t5 76q-32 -8 -77 -19t-69 -27h-4q-18 0 -18 36v4q0 38 16 46q34 16 146 44l12 2q2 48 3 117t-27 101q16 44 80 52h20q84 0 130 -74q14 -24 18 -60q-6 -34 -10 -76q165 42 198 84q64 -6 64 -56z" />
    <glyph glyph-name="u" unicode="u" horiz-adv-x="924" 
d="M23 726q35 0 77 -18t62 -58q-2 -62 -10 -135t-18 -175t-5 -204t61 -104q100 -4 158 155t78 403q17 46 54 58q50 20 110 -11t62 -71q-41 -59 -50 -268q-8 -108 3 -202t47 -104q42 -10 100.5 77.5t113.5 258.5q20 64 24 88q16 -2 34 -2h34q-19 -123 -87 -281t-163 -197
q-26 -12 -66 -12t-76 25q-88 61 -112 167q-16 62 -22 92q-10 -20 -38 -85q-47 -110 -144 -167q-36 -20 -86 -21q-99 -2 -152 99q-41 75 -52 222q-12 146 -8 259t-16 143q8 26 30 47t57 21z" />
    <glyph glyph-name="v" unicode="v" horiz-adv-x="854" 
d="M486 342q4 106 -18 184q-24 78 -64 68q-24 -6 -9.5 -84t89.5 -198zM29 746q31 0 67 -44q18 -65 45 -279q27 -215 61 -335t102 -100q112 25 160 208q-123 137 -145 285.5t39 204.5q26 24 64 34q108 24 147 -63t27 -203t-50 -224l-2 -2q93 -106 186 -4q48 59 88 202h72
q-8 -40 -37 -119t-72 -124q-135 -142 -269 -35q-58 -117 -143 -181q-49 -37 -123 -37q-75 0 -134 66q-74 76 -113 211t-69 277t-42 172q26 48 90 80q20 10 51 10z" />
    <glyph glyph-name="w" unicode="w" horiz-adv-x="1214" 
d="M832 502q-20 104 -66 92q-32 -8 -8 -91t80 -181q8 96 -6 180zM370 449q0 105 4 141q24 48 104 58t92 -52q-18 -110 -14 -265t29 -256t81 -87q72 16 114 100q24 54 40 112q-121 147 -146 314q-14 117 46 172q32 32 108 40q72 0 102 -70q68 -159 -22 -430q94 -99 182 -2
q50 58 90 202q24 0 72 2q-58 -245 -192 -308q-96 -43 -186 28q-105 -216 -252 -216q-71 0 -122 58q-34 36 -48 68t-20 46q-18 -46 -46 -86q-60 -80 -120 -88q-16 -2 -51 -2t-81 28t-87 95q-71 116 -113 443q-12 110 -34 158q26 48 100 78q24 10 58 10t70 -42q16 -56 19 -146
t5 -211t19 -239t89 -118q56 2 92 83t44 155q-26 122 -26 227z" />
    <glyph glyph-name="x" unicode="x" horiz-adv-x="858" 
d="M652 784q6 0 12 -2q40 -12 54 -40q-32 -164 -146 -302q-54 -66 -104 -128q34 -102 66 -201t68 -105q48 -8 105 89.5t111 314.5q45 11 72 0q-4 -16 -19 -87t-60 -182q-66 -163 -157 -209q-24 -10 -50 -10h-16q-143 18 -262 222q-38 -50 -74 -105t-50 -115q-20 -14 -32 -14
q-40 0 -50 54q30 60 176 244q-68 147 -104 292q-36 146 -50 148q-40 4 -76 -136l-16 -56q-6 -28 -12 -50q-18 -6 -35 -4t-39 4q8 28 29 111t73 173q34 54 80 54h2q165 0 290 -350q198 258 152 342q28 48 62 48z" />
    <glyph glyph-name="y" unicode="y" horiz-adv-x="932" 
d="M266 -888q45 0 90 460q15 151 20 260q-131 -100 -189 -192t-50 -227q9 -135 44 -218t85 -83zM206 64q50 0 111.5 125.5t92.5 324.5q10 66 12 118q12 22 50 41t68 7q54 -22 80 -96q-26 -6 -46 -325q-8 -125 -18 -237q34 24 100 71t141 130t99 195q33 12 74 2
q-29 -124 -111 -221q-81 -97 -164 -152t-145 -95q0 -101 -51 -431t-151 -441q-38 -40 -84 -42h-6q-110 0 -172 101t-58 239q7 259 220 432q64 52 136 102q10 124 15 216t7 118q-43 -140 -101 -201t-112 -62q-104 -2 -165 103q-83 133 -96 486q-6 112 -28 132q26 40 98 40h2
q74 0 130 -54q6 -32 3 -119t-4 -197t11 -210t62 -100z" />
    <glyph glyph-name="z" unicode="z" horiz-adv-x="738" 
d="M588 30q0 -54 -49 -72q-82 -30 -183 -30q-102 0 -187 5t-133 -11q-50 16 -62 60q-14 44 7 73t181 273t192 318q-91 -39 -276 -22q-4 -18 -19 -97t-25 -125q-21 -5 -74 0q39 162 46 240q-96 48 -96 112v6q0 58 27 100t65 34q31 0 55 -26q23 -26 29 -79t4 -81
q36 -12 104 -11q173 3 242 61q34 12 69 -20t41 -90q-24 -86 -128 -242t-187 -261t-109 -129q32 4 69 7q125 10 197 45q52 26 50 90q44 11 92 -16q48 -28 58 -96v-16z" />
    <glyph glyph-name="braceleft" unicode="{" horiz-adv-x="576" 
d="M420 296v-12q-3 -64 -43 -177q-39 -113 -81 -236.5t32 -134.5q26 -4 78 16q16 -30 6 -70t-30 -42q-4 0 -6 2q-198 25 -198 216q0 120 44 240t52 172q22 130 -29 239t-113 153q54 42 92 156q40 114 43 195t-44 262t-24 286q24 105 141 109q30 -2 42 -42t-6 -56
q-87 23 -104 -27q-16 -49 14 -137t67 -187t37 -145q6 -140 -47 -254t-107 -160l32 -32q152 -186 152 -334z" />
    <glyph glyph-name="bar" unicode="|" horiz-adv-x="382" 
d="M139 1488q21 0 59 -12t52 -32q-10 -72 -20 -382t-10 -646q5 -444 48 -444q-8 -66 -104 -66q-34 0 -48 16q-2 22 -2 118q-2 96 0 234v714q-2 192 -3 330t-9 158q16 12 37 12z" />
    <glyph glyph-name="braceright" unicode="}" horiz-adv-x="592" 
d="M132 284v12q0 134 110 282q33 45 74 86q-54 44 -106 158q-54 114 -48 254q0 46 36 145t67 188q51 146 -19 167q-24 8 -70 -4q-18 16 -6 56t42 42q118 -4 140 -112q16 -72 -3 -171t-43 -202t-22 -141q4 -112 43 -225t93 -157q-62 -44 -121 -167t-5 -291q45 -130 69 -244
q39 -193 -63 -272q-44 -36 -124 -46q-2 -2 -6 -2q-20 2 -30 42t6 70q93 -37 112 8q20 46 -12 140t-73 209q-41 116 -41 175z" />
    <glyph glyph-name="asciitilde" unicode="~" horiz-adv-x="1128" 
d="M948 586v-14q-5 -88 -80 -142q-34 -24 -103.5 -24t-238.5 92t-246 38q-36 -24 -52 -98q-12 4 -31 56t-19 107q0 89 46 141q42 38 102 38q96 0 272 -104q80 -46 144 -48q94 0 122 134q22 -6 53 -60t31 -116z" />
    <glyph glyph-name="uni009d" horiz-adv-x="1724" 
d="M898 668q0 -28 -20 -52q-98 10 -158 8q-2 -52 -22 -345t-10 -311q-24 -32 -68 -30q-82 0 -92 76q7 28 21 176t19 426h-10q-75 0 -138 6q-52 22 -52 60v10q8 48 66 70q34 -38 136 -32q5 426 -30 444q20 86 88 118q24 12 55 12t63 -36q6 -12 6 -101t-24 -425q60 2 126 0
q40 -30 44 -64v-10zM697 -240q-315 0 -455 242q-60 101 -60 216v28q10 106 64 181t114 99q82 22 112 -12t26 -90t-12 -102q-58 38 -114 6t-79 -109t20 -164q84 -168 223 -209q122 -40 264 13t247 172t170 274t74 353t-66 369q-116 266 -312.5 340t-364.5 -37
q-92 -60 -174 -186q-64 -28 -87 25t27 123q199 188 480 188t478 -194q106 -102 167 -254t61 -346v-32q-11 -367 -228 -614q-80 -90 -176 -154q-199 -126 -399 -126z" />
    <glyph glyph-name="exclamdown" unicode="&#xa1;" horiz-adv-x="636" 
d="M390 1420q0 -20 -15 -52q-24 -52 -95.5 -52t-79.5 62q-2 14 -2 34t13 40t7 52q12 12 36 12t52 -6q70 -16 80 -56q4 -14 4 -34zM244 432v132l-16 412q12 34 52 50q20 8 37 8t31 -8q0 -40 16 -242q38 -477 42 -706v-18q0 -88 -10 -114q-8 -34 -39 -34t-63 12
q-88 30 -104 98q54 24 54 410z" />
    <glyph glyph-name="cent" unicode="&#xa2;" horiz-adv-x="1390" 
 />
    <glyph glyph-name="sterling" unicode="&#xa3;" horiz-adv-x="1148" 
d="M340 286q-132 49 -172 -19.5t-4 -98.5q25 -25 80 -10q74 16 96 128zM820 696q0 -30 -18 -54q-132 16 -264 6q-15 -206 -56 -336q-6 -16 -10 -30q20 0 141 -75t191 -101t124 -24t96 46q40 -38 40 -73t-12 -63q-34 -74 -116 -76h-2q-126 2 -230 91q-221 189 -260 217
q-63 -133 -186 -150q-106 -11 -166 39q-32 27 -32 79v16q8 64 64 104q86 63 226 20q21 109 26 304h-42q-74 0 -150 6q-54 22 -54 68t66 72q24 -28 126 -26h56q2 30 6 108q14 269 72 410q77 188 254 188h10q104 0 158 -67t52 -155t-36 -138q-64 -94 -148 -98q-46 -4 -83 15
t-27 75q81 -7 140 70q36 52 47 132t-59 122q-20 10 -50 10q-70 0 -101 -87t-41 -192t-22 -349l-2 -38q116 8 228 8q40 -30 44 -64v-10z" />
    <glyph glyph-name="section" unicode="&#xa7;" horiz-adv-x="772" 
d="M328 602q74 9 130 67q56 57 60 129t-50 134q-16 16 -36 34q-84 -17 -136 -73q-52 -57 -55 -129t43 -120q20 -22 44 -42zM546 222q0 64 -54 115t-169.5 118.5t-174.5 170.5q-30 52 -30 122v16q6 116 69 175t147 81l22 4q-151 91 -210 194q-30 52 -30 122v10q4 130 108 190
q78 44 160 44q30 0 60 -6q134 -24 178 -139t-24 -219q-42 -34 -91 -11t-51 67q63 19 90 68q24 54 -7 114t-112 74t-147 -30t-66 -154t180 -212q251 -139 246 -318v-16q-4 -114 -72 -178t-156 -80q-4 -2 -8 -2q86 -58 131 -98q109 -98 109 -218v-10q-4 -130 -110 -190
q-76 -42 -160 -42q-28 0 -60 4q-132 26 -178 140q-44 116 24 218q44 34 92 11t52 -67q-61 -14 -90 -66q-24 -54 9 -113t114 -74t145 28t64 157z" />
    <glyph glyph-name="dieresis" unicode="&#xa8;" horiz-adv-x="474" 
d="M118 1344q-34 0 -58 17t-24 43q0 98 38 110q22 -14 46 -10t55 -14t31 -50v-16q-8 -44 -27 -62t-57 -18h-4zM337 1520q17 0 60 -25t43 -59v-4q-2 -36 -26 -64t-52 -32h-6q-22 0 -56 19t-34 49v12q6 40 26 56t22 42q6 6 23 6z" />
    <glyph glyph-name="copyright" unicode="&#xa9;" horiz-adv-x="946" 
d="M500 1250q117 0 126 -112q4 -40 -26 -75t-82 -39q-50 -2 -34 34q48 14 56 78t-46 68q-56 4 -85 -72t-26 -156t30 -142t77 -74t98 26q46 40 42 80q20 10 37 15t33 -9q-12 -80 -74 -128t-120 -48q-22 0 -44 6q-96 24 -146 89t-62 139q-6 24 -6 44q0 99 54 168q22 30 50 52
q68 56 148 56zM525 1402q-200 0 -290 -131q-91 -131 -91 -283v-4q0 -100 50 -198t126 -154t162 -56h8q90 4 188.5 84.5t133.5 237.5q12 48 10 94v10q-2 98 -36 190q-36 92 -89 135q-92 75 -172 75zM510 1448q190 0 302 -124q114 -132 120 -316v-12q0 -58 -16 -116
q-48 -175 -210 -280q-100 -64 -214 -66h-6q-112 0 -215 56q-166 90 -223 262q-22 62 -22 128v10q0 184 130 318t336 140h18z" />
    <glyph glyph-name="uni00ad" unicode="&#xad;" horiz-adv-x="1002" 
d="M856 304q0 -16 -20 -42q-150 18 -266 6t-196 -12t-156 6q-52 22 -52 60q-2 6 0 12q8 46 64 68q26 -28 126 -27t247 9t207 6q46 -34 46 -86z" />
    <glyph glyph-name="registered" unicode="&#xae;" horiz-adv-x="1006" 
d="M350 1082l4 34q-28 0 -28 -18q-2 -20 22 -24q2 4 2 8zM234 1267q0 27 18 69q43 96 155 96q159 0 198 -73t43 -109v-16q0 -56 -45 -98t-117 -58q-12 -2 -20 -4q54 -65 124 -216l20 -48q4 2 8 6q66 58 104 143t38 169v10q-4 138 -76 252t-216 114h-14q-154 -6 -234 -123
t-80 -255v-6q0 -48 13 -97q38 -142 149 -225q68 -50 148 -50h6q51 2 90 22q-16 36 -47 128t-77 170q-8 -2 -14 -4q-4 -56 -8 -129t-10 -91q-10 -6 -22 -6t-26 6q-28 10 -30 38q17 9 34 174q-2 2 -4 2q-38 4 -38 32v12q8 34 50 34q23 183 16 224q10 20 30 20h6q26 -4 30 -20
q-7 -7 -16 -116q-8 -108 -8 -124q4 -2 34 -26q2 0 6 2q46 10 73 34q52 47 46 106q-12 109 -70 150q-57 40 -119 20t-94 -92q-18 -44 0 -74t48 -16q2 -22 0 -52q-4 -28 -46 -16q-56 28 -56 111zM860 1132q0 -110 -57 -206t-149 -156q-10 -6 -18 -12q18 -38 34 -72
q36 -76 70 -78q24 -2 44 30t-8 50q14 48 40 38q14 -16 14 -38t-18 -52q-30 -54 -74 -54h-2q-71 0 -130 86q-20 28 -38 60q-54 -18 -112 -18h-6q-104 0 -201 55t-157 147t-62 206v8q0 168 120 291t306 129h18q174 0 278 -117t108 -285v-12z" />
    <glyph glyph-name="macron" unicode="&#xaf;" horiz-adv-x="680" 
d="M230 1324q-40 0 -70 2q-54 22 -54 50q0 4 2 8q8 34 64 56q38 -42 140 -25t248 13q40 -30 44 -52v-6q0 -20 -18 -44q-28 4 -270 -2h-86z" />
    <glyph glyph-name="degree" unicode="&#xb0;" horiz-adv-x="402" 
d="M246 1308q32 40 24 110t-44 62q-20 12 -14 39t30 37q41 7 74 -26q32 -36 32 -102v-24q-8 -82 -60 -128q-32 -32 -84 -32h-4q-96 4 -140 52t-44 106v16q6 68 40 105q60 65 142 65h6q20 -4 20 -18q2 -14 -8 -28q-34 4 -64 -27t-35 -96t27 -101q21 -30 54 -30q32 0 48 20z
" />
    <glyph glyph-name="acute" unicode="&#xb4;" horiz-adv-x="290" 
d="M44 1314q-26 0 -26 18q6 66 42 146t114 114q20 8 34 8h4q16 0 33 -13t17 -51v-6q-2 -40 -20 -56q-30 -12 -95 -58t-87 -100q-8 -2 -16 -2z" />
    <glyph glyph-name="periodcentered" unicode="&#xb7;" horiz-adv-x="452" 
d="M308 750q0 -20 -14 -52q-22 -50 -74 -50q-20 0 -46 4q-58 14 -58 82q0 28 14 49t8 51q10 14 35 14t53 -8q70 -16 78 -56q4 -14 4 -34z" />
    <glyph glyph-name="cedilla" unicode="&#xb8;" horiz-adv-x="750" 
d="M426 58q22 0 50 -4q61 -52 105 -112q43 -60 43 -150v-2q0 -154 -126 -236q-63 -40 -145 -40q-83 0 -143 40q-74 44 -106 120q-18 42 -18 76q0 78 54 118q30 26 83 35t55 -25t-24 -66q-36 12 -54 -6q-36 -30 -9 -116t99 -126q50 -29 96 -20q78 16 111 81t29 139t-36 121
t-70 87t-72 78q30 6 60 8h18z" />
    <glyph glyph-name="questiondown" unicode="&#xbf;" horiz-adv-x="1004" 
d="M650 1405q0 -19 -22 -58t-53 -39t-61 10q-48 16 -50 58v10q0 38 16 58t14 50q8 10 29 10t55 -12q64 -20 70 -60q2 -8 2 -27zM872 305q0 -45 -26 -105q-44 -100 -136 -157t-202 -57t-194 56q-62 38 -100 92q-70 100 -70 224v4q0 122 52 194q88 122 172 181q141 99 164 197
q8 42 -2 100q22 34 74 31q16 -1 34 -13q16 -130 -34 -215t-106 -146t-97 -106t-80 -102t-44 -158q-8 -162 91 -255q36 -30 81 -39t90 0t101 55q49 49 69 89q56 113 25 185q-20 50 -88 30q-38 42 -34 88q2 46 76 36q70 -14 112 -48q72 -61 72 -161z" />
    <glyph glyph-name="Agrave" unicode="&#xc0;" horiz-adv-x="1808" 
d="M1290 1598q-8 0 -18 2q-20 54 -86 100t-96 58q-18 16 -18 56v6q0 64 50 64h2q16 0 36 -8q76 -34 112 -114t42 -146q0 -18 -24 -18zM1078 676q52 0 100 4q-11 94 -25 416q-13 322 -15 342q-63 -94 -110.5 -310t-91.5 -412l-6 -28q96 -12 148 -12zM1558 -106h-14
q-131 15 -224 182q-64 126 -91 268t-43 252q-140 0 -201 11t-71 11q-20 -80 -46 -187t-81 -279t-153 -328t-236 -160h-8q-98 0 -171 94q-111 143 -111 338q0 28 5 85t42 119q77 129 237 140q58 -12 65 -89t-33 -99q-117 44 -178 -30q-61 -81 -38 -236q14 -102 65 -186
t124 -80t131 124q54 106 99 279t112 465t103 412q64 220 150 372q58 102 136 136q-4 6 -6 10q8 36 68 40h10q54 0 87 -26q61 -48 65 -114q-11 -228 14 -706q74 18 98 32q44 -6 46 -54q0 -6 -2 -12q-6 -60 -36 -60q-44 -10 -98 -14q2 -12 8 -70q59 -568 174 -580q48 -4 91 79
q60 116 107 297l20 80q49 6 74 0q-14 -64 -36 -147q-55 -208 -142 -309q-52 -60 -112 -60z" />
    <glyph glyph-name="Aacute" unicode="&#xc1;" horiz-adv-x="1808" 
d="M1342 1848v-4q-2 -42 -18 -56q-32 -14 -97 -59t-85 -99q-10 -2 -18 -2h-12q-12 2 -14 18q8 64 44 145t112 113q20 10 34 10h4q50 -6 50 -66zM1078 676q52 0 100 4q-11 97 -25 418q-13 322 -15 344q-50 -72 -114 -332q-20 -88 -42 -188t-46 -204l-6 -30q96 -12 148 -12z
M1558 -106h-14q-131 15 -224 182q-64 126 -91 268t-43 252q-140 0 -201 11t-71 11q-20 -80 -46 -186t-81 -278t-153 -327t-236 -161h-8q-98 0 -171 94q-111 143 -111 338q0 120 52 208q70 123 232 134q58 -12 65 -89t-33 -99q-114 43 -178 -30q-61 -85 -41 -213
q19 -129 69 -212t122 -81q129 7 230 406q46 174 90 368l60 260q30 130 80 300t136 322q58 102 136 136q-4 6 -6 10q8 36 68 40h10q54 0 87 -26q61 -48 65 -114q-11 -228 14 -706q74 18 98 32q44 -6 46 -54q0 -6 -2 -12q-6 -60 -36 -60q-44 -10 -98 -14q2 -12 8 -70
q59 -568 174 -580q48 -4 91 79q60 116 107 297l20 80q49 6 74 0q-14 -64 -36 -147q-55 -208 -142 -309q-52 -60 -112 -60z" />
    <glyph glyph-name="Acircumflex" unicode="&#xc2;" horiz-adv-x="1808" 
d="M1388 1673q0 -15 -30 -37t-76 -14q-24 50 -70 148q-28 -38 -44 -78t-40 -80h-12q-28 0 -61 18t-33 50q72 47 188 158l174 -144q4 -6 4 -21zM1078 676q52 0 100 4q-11 97 -25 418q-13 322 -15 344q-50 -72 -114 -332q-20 -88 -42 -188t-46 -204l-6 -30q96 -12 148 -12z
M1558 -106h-14q-131 15 -224 182q-64 126 -91 268t-43 252q-140 0 -201 11t-71 11q-20 -80 -46 -186t-81 -278t-153 -327t-236 -161h-8q-98 0 -171 94q-111 143 -111 338q0 120 52 208q70 123 232 134q58 -12 65 -89t-33 -99q-114 43 -178 -30q-61 -85 -41 -213
q19 -129 69 -212t122 -81q129 7 230 406q46 174 90 368l60 260q30 130 80 300t136 322q58 102 136 136q-4 6 -6 10q8 36 68 40h10q54 0 87 -26q61 -48 65 -114q-11 -228 14 -706q74 18 98 32q44 -6 46 -54q0 -6 -2 -12q-6 -60 -36 -60q-44 -10 -98 -14q2 -12 8 -70
q59 -568 174 -580q48 -4 91 79q60 116 107 297l20 80q49 6 74 0q-14 -64 -36 -147q-55 -208 -142 -309q-52 -60 -112 -60z" />
    <glyph glyph-name="Atilde" unicode="&#xc3;" horiz-adv-x="1808" 
d="M1393 1816q15 -34 15 -67t-31 -67t-64 -34q-46 0 -113 47q-66 47 -88 51q-45 7 -60 -68q-24 10 -34 40t-10 81.5t82 78.5q10 4 27 4t50 -20t64 -49t55 -31q37 0 54 76q38 -8 53 -42zM1078 676q52 0 100 4q-11 97 -25 418q-13 322 -15 344q-50 -72 -114 -332
q-20 -88 -42 -188t-46 -204l-6 -30q96 -12 148 -12zM1558 -106h-14q-131 15 -224 182q-64 126 -91 268t-43 252q-140 0 -201 11t-71 11q-20 -80 -46 -186t-81 -278t-153 -327t-236 -161h-8q-98 0 -171 94q-111 143 -111 338q0 120 52 208q70 123 232 134q58 -12 65 -89
t-33 -99q-114 43 -178 -30q-61 -85 -41 -213q19 -129 69 -212t122 -81q129 7 230 406q46 174 90 368l60 260q30 130 80 300t136 322q58 102 136 136q-4 6 -6 10q8 36 68 40h10q54 0 87 -26q61 -48 65 -114q-11 -228 14 -706q74 18 98 32q44 -6 46 -54q0 -6 -2 -12
q-6 -60 -36 -60q-44 -10 -98 -14q2 -12 8 -70q59 -568 174 -580q48 -4 91 79q60 116 107 297l20 80q49 6 74 0q-14 -64 -36 -147q-55 -208 -142 -309q-52 -60 -112 -60z" />
    <glyph glyph-name="Adieresis" unicode="&#xc4;" horiz-adv-x="1808" 
d="M1318 1788q16 0 60 -25t44 -59v-2q-2 -36 -27 -64t-53 -32h-6q-20 0 -54 19t-34 49v10q6 42 26 58q18 16 20 42q8 4 24 4zM1188 1708q0 -92 -84 -96h-4q-36 0 -60 18t-24 44t2 40q12 62 36 68q22 -14 47 -9t56 -14t31 -51zM1078 676q52 0 100 4q-11 97 -25 418
q-13 322 -15 344q-50 -72 -114 -332q-20 -88 -42 -188t-46 -204l-6 -30q96 -12 148 -12zM1558 -106h-14q-131 15 -224 182q-64 126 -91 268t-43 252q-140 0 -201 11t-71 11q-20 -80 -46 -186t-81 -278t-153 -327t-236 -161h-8q-98 0 -171 94q-111 143 -111 338q0 120 52 208
q70 123 232 134q58 -12 65 -89t-33 -99q-114 43 -178 -30q-61 -85 -41 -213q19 -129 69 -212t122 -81q129 7 230 406q46 174 90 368l60 260q30 130 80 300t136 322q58 102 136 136q-4 6 -6 10q8 36 68 40h10q54 0 87 -26q61 -48 65 -114q-11 -228 14 -706q74 18 98 32
q44 -6 46 -54q0 -6 -2 -12q-6 -60 -36 -60q-44 -10 -98 -14q2 -12 8 -70q59 -568 174 -580q48 -4 91 79q60 116 107 297l20 80q49 6 74 0q-14 -64 -36 -147q-55 -208 -142 -309q-52 -60 -112 -60z" />
    <glyph glyph-name="Aring" unicode="&#xc5;" horiz-adv-x="1808" 
d="M1220 1784q-48 6 -52 -62t52 -66q26 0 36 58t-18 50q-14 10 -12 30q-2 -6 -6 -10zM1254 1822q70 0 70 -113q0 -31 -28 -66t-76 -35h-14q-87 0 -116 42q-18 22 -18 50t20 60q40 62 114 60q18 -2 20 -14v-10q2 18 18 26h10zM1078 676q52 0 100 4q-11 97 -25 418
q-13 322 -15 344q-50 -72 -114 -332q-20 -88 -42 -188t-46 -204l-6 -30q96 -12 148 -12zM1558 -106h-14q-131 15 -224 182q-64 126 -91 268t-43 252q-140 0 -201 11t-71 11q-20 -80 -46 -186t-81 -278t-153 -327t-236 -161h-8q-98 0 -171 94q-111 143 -111 338q0 120 52 208
q70 123 232 134q58 -12 65 -89t-33 -99q-114 43 -178 -30q-61 -85 -41 -213q19 -129 69 -212t122 -81q129 7 230 406q46 174 90 368l60 260q30 130 80 300t136 322q58 102 136 136q-4 6 -6 10q8 36 68 40h10q54 0 87 -26q61 -48 65 -114q-11 -228 14 -706q74 18 98 32
q44 -6 46 -54q0 -6 -2 -12q-6 -60 -36 -60q-44 -10 -98 -14q2 -12 8 -70q59 -568 174 -580q48 -4 91 79q60 116 107 297l20 80q49 6 74 0q-14 -64 -36 -147q-55 -208 -142 -309q-52 -60 -112 -60z" />
    <glyph glyph-name="AE" unicode="&#xc6;" horiz-adv-x="2458" 
d="M1772 878q3 14 -60 4q56 -26 60 -4zM988 676q58 0 116 6q-14 142 -25 323t-21 325q-8 68 -12 114q-52 -68 -118 -334q-20 -88 -42 -188t-46 -204l-6 -30q96 -12 154 -12zM1106 596q-152 0 -215 11t-73 11q-20 -80 -46 -186t-81 -278t-153 -327t-236 -161h-8
q-98 0 -171 94q-109 140 -109 338q0 26 5 83t41 119q75 129 236 140q58 -12 65 -89t-33 -99q-64 24 -107 13q-91 -23 -111 -149q-21 -171 68 -319q50 -83 122 -81q129 7 230 406q46 174 90 368l60 260q32 130 82 300t134 322q58 102 136 136q-4 6 -6 10q8 36 68 40h10
q54 0 87 -26q61 -48 65 -114q-4 -76 -4 -248t4 -295t4 -165q30 6 50 12q87 144 232 198l-8 10q-134 127 -127 285q7 157 128 251t265 98h6q158 0 248 -122q78 -114 44 -228q-24 -72 -102 -106q-63 -28 -106 -6q-46 20 -54 73t26 81q44 -30 83 -17t39 85q2 72 -52 126
t-144 54t-153 -80t-70 -175q-14 -192 75 -303q86 12 152 -10t55 -75t-78 -50t-135 43q-75 -46 -112 -100q-102 -129 -99 -343q3 -213 114 -341q175 -201 429 -154q86 18 164 72q216 141 296 502q38 11 68 4q-38 -216 -132 -359t-216 -223q-160 -104 -338 -104
q-303 0 -478 230q0 -4 2 -8q30 -146 76 -190q-37 -34 -90 -34h-6q-127 157 -190 718q-4 36 -10 72h-6z" />
    <glyph glyph-name="Ccedilla" unicode="&#xc7;" horiz-adv-x="1360" 
d="M118 530q0 217 54 396q88 312 308 482q140 110 326 110h6q96 0 160 -60q84 -72 105 -194q34 -200 -55.5 -278t-174.5 -95t-127 27q-40 44 2 120q107 -7 178 96q46 66 53.5 171t-85.5 145q-26 12 -64 12q-120 -2 -254 -145t-176 -545q-29 -236 6 -448q34 -212 118 -355
t224 -155q192 -18 344 120q76 69 151 199q75 129 111 285q24 0 72 -2q-51 -234 -200 -438q-109 -142 -264 -204q-30 -12 -62 -18q71 -71 115 -132q43 -60 43 -170v-2q0 -114 -72 -215t-218 -123q-26 -2 -57 -2q-86 0 -171 51q-84 51 -124 145q-22 52 -22 94q0 94 66 146
q38 32 103 43t67 -31q4 -42 -30 -80q-22 6 -39 3q-60 -11 -51 -98t80 -169q86 -86 184 -64q85 15 126 96q40 82 36 173t-44 149t-80 99t-68 75h-6q-251 19 -412 210q-114 142 -156 346q-26 126 -26 230z" />
    <glyph glyph-name="Egrave" unicode="&#xc8;" horiz-adv-x="1358" 
d="M645 848q-27 0 -43 -4q2 -2 6 -2q58 -28 62 -6q2 12 -25 12zM648 1876q16 0 36 -10q76 -32 112 -113t42 -145q0 -20 -24 -20q-10 0 -18 2q-20 56 -86 101t-96 57q-18 16 -18 56q-2 4 -2 6q3 60 50 66h4zM840 1058q-28 0 -48 10q-48 20 -56 75t28 85q42 -32 80 -22
q46 16 46 91t-54 129q-56 56 -149 56t-159 -82t-75 -212t51 -232q12 -26 26 -46q90 12 160 -12t58 -74q-12 -60 -81 -56t-145 46q-210 -133 -211 -437q-1 -213 141.5 -379t400.5 -121q202 35 349 253q80 120 126 308q33 9 70 2q-42 -214 -138 -356q-176 -251 -438 -302
q-68 -12 -123 -12t-97 4q-202 28 -351 168t-153 366v14q0 174 54 291t129 182t149 89q-143 143 -138 308q10 154 134 252t272 100h8q107 0 187 -57t107 -142q28 -85 5 -161t-103 -110q-34 -16 -62 -16z" />
    <glyph glyph-name="Eacute" unicode="&#xc9;" horiz-adv-x="1358" 
d="M645 848q-27 0 -43 -4q2 -2 6 -2q58 -28 62 -6q2 12 -25 12zM912 1802v-4q-2 -42 -20 -56q-30 -14 -96 -58q-64 -46 -86 -100q-8 -2 -16 -2h-12q-14 4 -14 18q6 64 42 145t114 115q18 8 34 8h4q50 -6 50 -66zM840 1058q-28 0 -48 10q-48 20 -56 75t28 85q42 -32 80 -22
q46 16 46 91t-54 129q-56 56 -149 56t-159 -82t-75 -212t51 -232q12 -26 26 -46q90 12 160 -12t58 -74q-12 -60 -81 -56t-145 46q-210 -133 -211 -437q-1 -213 141.5 -379t400.5 -121q202 35 349 253q80 120 126 308q33 9 70 2q-42 -214 -138 -356q-176 -251 -438 -302
q-68 -12 -123 -12t-97 4q-202 28 -351 168t-153 366v14q0 174 54 291t129 182t149 89q-143 143 -138 308q10 154 134 252t272 100h8q107 0 187 -57t107 -142q28 -85 5 -161t-103 -110q-34 -16 -62 -16z" />
    <glyph glyph-name="Ecircumflex" unicode="&#xca;" horiz-adv-x="1358" 
d="M645 848q-27 0 -43 -4q2 -2 6 -2q58 -28 62 -6q2 12 -25 12zM896 1675q0 -15 -29 -38t-75 -13q-24 48 -72 148q-28 -38 -44 -78t-38 -80h-12q-30 -2 -63 17t-33 51q79 52 188 156q58 -46 176 -142q2 -6 2 -21zM840 1058q-28 0 -48 10q-48 20 -56 75t28 85q42 -32 80 -22
q46 16 46 91t-54 129q-56 56 -149 56t-159 -82t-75 -212t51 -232q12 -26 26 -46q90 12 160 -12t58 -74q-12 -60 -81 -56t-145 46q-210 -133 -211 -437q-1 -213 141.5 -379t400.5 -121q202 35 349 253q80 120 126 308q33 9 70 2q-42 -214 -138 -356q-176 -251 -438 -302
q-68 -12 -123 -12t-97 4q-202 28 -351 168t-153 366v14q0 174 54 291t129 182t149 89q-143 143 -138 308q10 154 134 252t272 100h8q107 0 187 -57t107 -142q28 -85 5 -161t-103 -110q-34 -16 -62 -16z" />
    <glyph glyph-name="Edieresis" unicode="&#xcb;" horiz-adv-x="1358" 
d="M645 848q-27 0 -43 -4q2 -2 6 -2q58 -28 62 -6q2 12 -25 12zM798 1794q16 0 60 -25t44 -59v-2q-2 -36 -27 -64t-53 -32h-6q-22 0 -56 18q-32 18 -33 56t22 58t25 46q8 4 24 4zM578 1618q-34 0 -58 18t-24 43q0 100 38 109q22 -14 47 -9t56 -14t31 -51q0 -91 -84 -96h-6z
M840 1058q-28 0 -48 10q-48 20 -56 75t28 85q42 -32 80 -22q46 16 46 91t-54 129q-56 56 -149 56t-159 -82t-75 -212t51 -232q12 -26 26 -46q90 12 160 -12t58 -74q-12 -60 -81 -56t-145 46q-210 -133 -211 -437q-1 -213 141.5 -379t400.5 -121q202 35 349 253
q80 120 126 308q33 9 70 2q-42 -214 -138 -356q-176 -251 -438 -302q-68 -12 -123 -12t-97 4q-202 28 -351 168t-153 366v14q0 174 54 291t129 182t149 89q-143 143 -138 308q10 154 134 252t272 100h8q107 0 187 -57t107 -142q28 -85 5 -161t-103 -110q-34 -16 -62 -16z
" />
    <glyph glyph-name="Igrave" unicode="&#xcc;" horiz-adv-x="770" 
d="M486 1606q-16 0 -26 2q-20 54 -84 100q-66 46 -96 58q-18 14 -20 56v6q0 36 24 54q10 10 26 10h4q14 0 34 -8q76 -34 113 -114t43 -146q-2 -18 -18 -18zM468 842v-792q0 -146 -6 -176q-25 -48 -99 -48q-73 0 -122 38t-53 108q17 3 41 127q25 123 51 536t30 616t0 221
q3 58 108 58q46 0 76 -20q-24 -24 -24 -492q-2 -86 -2 -176z" />
    <glyph glyph-name="Iacute" unicode="&#xcd;" horiz-adv-x="770" 
d="M578 1812v-4q-2 -42 -20 -56q-30 -12 -95 -58t-85 -100q-10 -2 -18 -2h-12q-12 4 -14 18q6 64 43 145t113 115q20 8 34 8h4q50 -6 50 -66zM468 842v-792q0 -146 -6 -176q-25 -48 -99 -48q-73 0 -122 38t-53 108q17 3 41 127q25 123 51 536t30 616t0 221q3 58 108 58
q46 0 76 -20q-24 -24 -24 -492q-2 -86 -2 -176z" />
    <glyph glyph-name="Icircumflex" unicode="&#xce;" horiz-adv-x="770" 
d="M584 1665q0 -15 -30 -38t-76 -13q-22 48 -70 148q-28 -38 -44 -78t-40 -80h-12q-28 -2 -61 17t-33 51q79 52 188 156q58 -46 176 -142q2 -6 2 -21zM468 842v-792q0 -146 -6 -176q-25 -48 -99 -48q-73 0 -122 38t-53 108q17 3 41 127q25 123 51 536t30 616t0 221
q3 58 108 58q46 0 76 -20q-24 -24 -24 -492q-2 -86 -2 -176z" />
    <glyph glyph-name="Idieresis" unicode="&#xcf;" horiz-adv-x="770" 
d="M306 1594q-34 0 -58 18t-24 43q0 100 38 109q22 -14 46 -9t55 -14t31 -51v-16q-8 -44 -27 -61t-57 -19h-4zM525 1770q17 0 60 -25t43 -59v-4q-2 -34 -26 -63t-52 -33h-6q-22 0 -56 19t-34 51v10q6 40 26 56t22 44q6 4 23 4zM468 842v-792q0 -146 -6 -176q-25 -48 -99 -48
q-73 0 -122 38t-53 108q17 3 41 127q25 123 51 536t30 616t0 221q3 58 108 58q46 0 76 -20q-24 -24 -24 -492q-2 -86 -2 -176z" />
    <glyph glyph-name="Eth" unicode="&#xd0;" horiz-adv-x="1724" 
d="M898 668q0 -28 -20 -52q-98 10 -158 8q-2 -52 -22 -345t-10 -311q-24 -32 -68 -30q-82 0 -92 76q7 28 21 176t19 426h-10q-75 0 -138 6q-52 22 -52 60v10q8 48 66 70q34 -38 136 -32q5 426 -30 444q20 86 88 118q24 12 55 12t63 -36q6 -12 6 -101t-24 -425q60 2 126 0
q40 -30 44 -64v-10zM697 -240q-315 0 -455 242q-60 101 -60 216v28q10 106 64 181t114 99q82 22 112 -12t26 -90t-12 -102q-58 38 -114 6t-79 -109t20 -164q84 -168 223 -209q122 -40 264 13t247 172t170 274t74 353t-66 369q-116 266 -312.5 340t-364.5 -37
q-92 -60 -174 -186q-64 -28 -87 25t27 123q199 188 480 188t478 -194q106 -102 167 -254t61 -346v-32q-11 -367 -228 -614q-80 -90 -176 -154q-199 -126 -399 -126z" />
    <glyph glyph-name="Ntilde" unicode="&#xd1;" horiz-adv-x="1864" 
d="M1475 1794q15 -34 15 -68t-32 -66q-26 -34 -61 -34q-46 0 -116 48t-91 50q-20 2 -34 -13t-24 -57q-22 10 -32 41t-10 51q0 83 82 110q10 4 27 4q38 0 104 -61q65 -61 95 -23q14 16 24 60q38 -8 53 -42zM474 -264q-104 0 -180 72t-98 196q-10 50 -10 103t14 111
q42 171 180 194q46 8 84 -5t47 -23q36 -40 3 -110q-24 -48 -42 -40q-73 77 -120 57q-48 -19 -67 -100q-31 -132 21 -265q38 -92 110 -128q128 -54 190 90q72 159 100 534q25 447 -10 764q-18 144 -42 178q40 64 125 83t121 -27q2 -44 6 -115t3 -216t-3 -173l18 60
q141 445 328 522q34 16 59 16q126 0 209.5 -108.5t74.5 -381.5t-49 -500q-14 -92 -32 -210t-27 -221t23 -112q109 -31 218 167q67 127 104 268q22 0 36 2t34 -8q-26 -132 -110 -289q-83 -157 -198 -199q-48 -18 -104 -6q-110 24 -143 157t-27 301t37 419t39 352t0 189
q-10 88 -60 96q-119 21 -250 -226q-116 -240 -162 -430t-56 -264t-37 -237t-78 -282t-111 -184t-146 -71h-22z" />
    <glyph glyph-name="Ograve" unicode="&#xd2;" horiz-adv-x="1604" 
d="M702 1810q0 60 50 66h2q16 0 36 -10q76 -32 112 -113t42 -145q0 -16 -14 -18h-10q-8 0 -18 2q-20 54 -86 99t-96 59q-18 14 -18 56v4zM948 220q8 20 41 102t72 280t43 402q10 326 -72 448q-30 42 -77 44q-97 4 -157 -120q-54 -106 -65 -278q-17 -263 47 -506
q52 -221 162 -362q4 -6 6 -10zM326 583.5q0 -296.5 124 -493.5q80 -130 217 -137t239 185q-130 130 -198 309q-137 359 -96 689q18 154 86 258q-65 -8 -145 -78q-79 -70 -134 -206q-93 -230 -93 -526.5zM980 1552h6q130 -4 208 -122t103 -296q53 -375 -89 -760
q-52 -142 -130 -246l24 -6q150 -30 255 30t157 142q50 84 58 118q24 0 72 -2q-8 -42 -67 -143t-177 -167q-168 -95 -376 -38l-4 -4q-151 -164 -350 -164h-14q-180 4 -301 120t-177 286t-56 350v10q2 190 65 369q107 304 377 401q84 30 184 30q98 92 232 92z" />
    <glyph glyph-name="Oacute" unicode="&#xd3;" horiz-adv-x="1604" 
d="M802 1584q-26 0 -26 18q6 66 42 146t114 114q20 8 34 8h4q16 0 33 -14t17 -50v-6q-2 -40 -20 -56q-30 -12 -95 -58t-87 -100q-8 -2 -16 -2zM948 220q8 20 41 102t72 280t43 402q10 326 -72 448q-30 42 -77 44q-97 4 -157 -120q-54 -106 -65 -278q-17 -263 47 -506
q52 -221 162 -362q4 -6 6 -10zM326 583.5q0 -296.5 124 -493.5q80 -130 217 -137t239 185q-130 130 -198 309q-137 359 -96 689q18 154 86 258q-65 -8 -145 -78q-79 -70 -134 -206q-93 -230 -93 -526.5zM980 1552h6q130 -4 208 -122t103 -296q53 -375 -89 -760
q-52 -142 -130 -246l24 -6q150 -30 255 30t157 142q50 84 58 118q24 0 72 -2q-8 -42 -67 -143t-177 -167q-168 -95 -376 -38l-4 -4q-151 -164 -350 -164h-14q-180 4 -301 120t-177 286t-56 350v10q2 190 65 369q107 304 377 401q84 30 184 30q98 92 232 92z" />
    <glyph glyph-name="Ocircumflex" unicode="&#xd4;" horiz-adv-x="1604" 
d="M1038 1665q0 -15 -30 -38t-76 -13q-22 48 -70 148q-28 -38 -44 -78t-40 -80h-12q-28 -2 -61 17t-33 51q79 52 188 156q58 -46 176 -142q2 -6 2 -21zM948 220q8 20 41 102t72 280t43 402q10 326 -72 448q-30 42 -77 44q-97 4 -157 -120q-54 -106 -65 -278
q-17 -263 47 -506q52 -221 162 -362q4 -6 6 -10zM326 583.5q0 -296.5 124 -493.5q80 -130 217 -137t239 185q-130 130 -198 309q-137 359 -96 689q18 154 86 258q-65 -8 -145 -78q-79 -70 -134 -206q-93 -230 -93 -526.5zM980 1552h6q130 -4 208 -122t103 -296
q53 -375 -89 -760q-52 -142 -130 -246l24 -6q150 -30 255 30t157 142q50 84 58 118q24 0 72 -2q-8 -42 -67 -143t-177 -167q-168 -95 -376 -38l-4 -4q-151 -164 -350 -164h-14q-180 4 -301 120t-177 286t-56 350v10q2 190 65 369q107 304 377 401q84 30 184 30q98 92 232 92
z" />
    <glyph glyph-name="Otilde" unicode="&#xd5;" horiz-adv-x="1604" 
d="M1000 1635q-20 -9 -37 -9t-55 18t-75 47q-67 53 -99 21q-16 -14 -24 -58q-24 12 -34 42t-10 81.5t82 78.5q10 4 38.5 4t94.5 -61q65 -61 95 -23q12 16 22 60q40 -8 58 -52q12 -24 10 -48q0 -71 -66 -101zM948 220q8 20 41 102t72 280t43 402q10 326 -72 448
q-30 42 -77 44q-97 4 -157 -120q-54 -106 -65 -278q-17 -263 47 -506q52 -221 162 -362q4 -6 6 -10zM326 583.5q0 -296.5 124 -493.5q80 -130 217 -137t239 185q-130 130 -198 309q-137 359 -96 689q18 154 86 258q-65 -8 -145 -78q-79 -70 -134 -206q-93 -230 -93 -526.5z
M980 1552h6q130 -4 208 -122t103 -296q53 -375 -89 -760q-52 -142 -130 -246l24 -6q150 -30 255 30t157 142q50 84 58 118q24 0 72 -2q-8 -42 -67 -143t-177 -167q-168 -95 -376 -38l-4 -4q-151 -164 -350 -164h-14q-180 4 -301 120t-177 286t-56 350v10q2 190 65 369
q107 304 377 401q84 30 184 30q98 92 232 92z" />
    <glyph glyph-name="Odieresis" unicode="&#xd6;" horiz-adv-x="1604" 
d="M816 1736q0 -92 -84 -96h-4q-34 0 -59 18t-25 43t4 41q10 62 34 68q22 -14 47 -9t56 -14t31 -51zM946 1816q16 0 60 -25t44 -59v-4q-2 -34 -28.5 -65t-52.5 -31q-25 0 -59 19t-34 51v10q6 40 26 56q18 16 22 44q6 4 22 4zM948 220q8 20 41 102t72 280t43 402
q10 326 -72 448q-30 42 -77 44q-97 4 -157 -120q-54 -106 -65 -278q-17 -263 47 -506q52 -221 162 -362q4 -6 6 -10zM326 583.5q0 -296.5 124 -493.5q80 -130 217 -137t239 185q-130 130 -198 309q-137 359 -96 689q18 154 86 258q-65 -8 -145 -78q-79 -70 -134 -206
q-93 -230 -93 -526.5zM980 1552h6q130 -4 208 -122t103 -296q53 -375 -89 -760q-52 -142 -130 -246l24 -6q150 -30 255 30t157 142q50 84 58 118q24 0 72 -2q-8 -42 -67 -143t-177 -167q-168 -95 -376 -38l-4 -4q-151 -164 -350 -164h-14q-180 4 -301 120t-177 286t-56 350
v10q2 190 65 369q107 304 377 401q84 30 184 30q98 92 232 92z" />
    <glyph glyph-name="multiply" unicode="&#xd7;" horiz-adv-x="756" 
d="M558 838q42 0 42 -35t-10 -63q-36 2 -80 -47t-76 -85q32 -38 77 -87t79 -47q10 -24 10 -45t-19 -40t-51 -19h-10q-82 72 -156 156q-34 -40 -68 -81t-68 -73q-14 -2 -32 -2t-28 12q-14 18 -28 42q58 58 160 180q-102 128 -160 186q16 24 28 39t30 15t32 -2q34 -32 70 -76
l70 -82q70 76 146 144q24 10 42 10z" />
    <glyph glyph-name="Oslash" unicode="&#xd8;" horiz-adv-x="1604" 
d="M708 446q-110 -220 -212 -418q70 -70 166 -75q141 -7 244 185q-125 125 -198 308zM744 774l310 638q-37 82 -92 84q-105 4 -164 -120q-54 -106 -65 -272t11 -330zM1098 1214l-318 -624q54 -221 162 -360q4 -6 6 -10q8 20 41 102t72 280q62 316 37 612zM326 609
q0 -271 88 -457q58 97 230 426l12 24q-75 278 -44 534q18 154 86 258q-65 -8 -145 -78q-79 -70 -134 -206q-93 -230 -93 -501zM980 1552h6q64 -2 118 -34q2 8 16 37t16 39q38 22 82 22t84 -24q-12 -12 -49 -84t-49 -92q68 -108 93 -284q53 -373 -89 -758q-52 -142 -130 -246
l24 -6q150 -30 255 30t157 142q50 84 58 118q24 0 72 -2q-8 -42 -67 -143t-177 -167q-168 -95 -376 -38l-4 -4q-151 -164 -350 -164h-14q-92 2 -170 36l-32 16l-90 -180q-34 -14 -64 -14t-53 30t-23 61t4 49q25 -10 112 136q-108 106 -162 274q-56 168 -56 348v10
q2 190 65 369q107 304 377 401q84 30 184 30q98 92 232 92z" />
    <glyph glyph-name="Ugrave" unicode="&#xd9;" horiz-adv-x="1854" 
d="M982 1786q0 36 17 50t33 14h4q14 0 34 -8q76 -34 112 -114t44 -146q-3 -24 -44 -16q-20 54 -85 100t-95 58q-18 16 -20 56v6zM628 674q97 158 145 288q47 130 77 244t25 221t-69 117q-58 8 -110 -154t-64 -486q-6 -112 -4 -222v-8zM1584 -92h-8q-86 7 -151 84
q-128 150 -163 464q-2 36 -2 56q-47 -169 -116 -296q-97 -194 -187.5 -241t-177 -41t-166.5 116q-98 136 -139 354q-120 -82 -250 -52q-90 21 -142 96q-28 48 -28 88t10 72q26 84 110 86q32 -10 45 -34t7 -34q-48 -16 -69 -72q-32 -84 29 -138q57 -40 123 -22q65 18 98 40
t55 40q-50 346 14 668q38 202 119 327t188 125t141 -94q68 -177 -40 -492q-61 -186 -170 -354q-40 -58 -82 -108q2 -22 6 -76q17 -235 70 -368q54 -142 168 -88q103 41 200 222q114 223 168 466q28 114 38 215q36 359 46 497q22 36 71 40q92 7 149 -50q24 -24 32 -54
q-30 -32 -51 -214q-41 -355 -27 -753q14 -397 80 -397q58 -4 103 71q72 119 113 279q16 54 24 84q22 0 68 -2q-8 -46 -57.5 -209t-156.5 -261q-42 -40 -92 -40z" />
    <glyph glyph-name="Uacute" unicode="&#xda;" horiz-adv-x="1854" 
d="M1346 1762v-6q0 -40 -18 -56q-30 -12 -96 -57t-86 -101q-10 -2 -18 -2q-24 0 -24 20q6 64 42 145t112 113q20 10 36 10h2q50 -6 50 -66zM628 674q97 158 145 288q47 130 77 244t25 221t-69 117q-58 8 -110 -154t-64 -486q-6 -112 -4 -222v-8zM1584 -92h-8q-86 7 -151 84
q-128 150 -163 464q-2 36 -2 56q-47 -169 -116 -296q-97 -194 -187.5 -241t-177 -41t-166.5 116q-98 136 -139 354q-120 -82 -250 -52q-90 21 -142 96q-28 48 -28 88t10 72q26 84 110 86q32 -10 45 -34t7 -34q-48 -16 -69 -72q-32 -84 29 -138q57 -40 123 -22q65 18 98 40
t55 40q-50 346 14 668q38 202 119 327t188 125t141 -94q68 -177 -40 -492q-61 -186 -170 -354q-40 -58 -82 -108q2 -22 6 -76q17 -235 70 -368q54 -142 168 -88q103 41 200 222q114 223 168 466q28 114 38 215q36 359 46 497q22 36 71 40q92 7 149 -50q24 -24 32 -54
q-30 -32 -51 -214q-41 -355 -27 -753q14 -397 80 -397q58 -4 103 71q72 119 113 279q16 54 24 84q22 0 68 -2q-8 -46 -57.5 -209t-156.5 -261q-42 -40 -92 -40z" />
    <glyph glyph-name="Ucircumflex" unicode="&#xdb;" horiz-adv-x="1854" 
d="M1328 1699q0 -15 -30 -37t-76 -14q-24 50 -70 148q-30 -38 -46 -77t-38 -81h-12q-30 0 -63 18t-33 50q60 38 101 76t89 82q58 -48 174 -142q4 -8 4 -23zM628 674q97 158 145 288q47 130 77 244t25 221t-69 117q-58 8 -110 -154t-64 -486q-6 -112 -4 -222v-8zM1584 -92h-8
q-86 7 -151 84q-128 150 -163 464q-2 36 -2 56q-47 -169 -116 -296q-97 -194 -187.5 -241t-177 -41t-166.5 116q-98 136 -139 354q-120 -82 -250 -52q-90 21 -142 96q-28 48 -28 88t10 72q26 84 110 86q32 -10 45 -34t7 -34q-48 -16 -69 -72q-32 -84 29 -138q57 -40 123 -22
q65 18 98 40t55 40q-50 346 14 668q38 202 119 327t188 125t141 -94q68 -177 -40 -492q-61 -186 -170 -354q-40 -58 -82 -108q2 -22 6 -76q17 -235 70 -368q54 -142 168 -88q103 41 200 222q114 223 168 466q28 114 38 215q36 359 46 497q22 36 71 40q92 7 149 -50
q24 -24 32 -54q-30 -32 -51 -214q-41 -355 -27 -753q14 -397 80 -397q58 -4 103 71q72 119 113 279q16 54 24 84q22 0 68 -2q-8 -46 -57.5 -209t-156.5 -261q-42 -40 -92 -40z" />
    <glyph glyph-name="Udieresis" unicode="&#xdc;" horiz-adv-x="1854" 
d="M1116 1696q0 -92 -84 -96h-4q-36 0 -60 18t-24 43t4 41q10 62 34 68q22 -14 47 -9t56 -14t31 -51zM1246 1776q16 0 60 -25t44 -59v-4q-2 -34 -29 -65t-52 -31t-59 19t-34 51v10q6 40 26 56q18 16 20 44q8 4 24 4zM628 674q97 158 145 288q47 130 77 244t25 221t-69 117
q-58 8 -110 -154t-64 -486q-6 -112 -4 -222v-8zM1584 -92h-8q-86 7 -151 84q-128 150 -163 464q-2 36 -2 56q-47 -169 -116 -296q-97 -194 -187.5 -241t-177 -41t-166.5 116q-98 136 -139 354q-120 -82 -250 -52q-90 21 -142 96q-28 48 -28 88t10 72q26 84 110 86
q32 -10 45 -34t7 -34q-48 -16 -69 -72q-32 -84 29 -138q57 -40 123 -22q65 18 98 40t55 40q-50 346 14 668q38 202 119 327t188 125t141 -94q68 -177 -40 -492q-61 -186 -170 -354q-40 -58 -82 -108q2 -22 6 -76q17 -235 70 -368q54 -142 168 -88q103 41 200 222
q114 223 168 466q28 114 38 215q36 359 46 497q22 36 71 40q92 7 149 -50q24 -24 32 -54q-30 -32 -51 -214q-41 -355 -27 -753q14 -397 80 -397q58 -4 103 71q72 119 113 279q16 54 24 84q22 0 68 -2q-8 -46 -57.5 -209t-156.5 -261q-42 -40 -92 -40z" />
    <glyph glyph-name="Yacute" unicode="&#xdd;" horiz-adv-x="1684" 
d="M1018 1454q-24 0 -24 20q6 64 42 145t112 113q20 10 36 10h4q47 -6 50 -66v-6q-2 -40 -20 -56q-30 -12 -96 -57t-86 -101q-8 -2 -18 -2zM584 688q78 134 118 241q94 254 88 409q-4 98 -62 106q-24 4 -43 -17q-52 -57 -79 -262q-28 -204 -22 -477zM1170 -46
q-149 -84 -229.5 -209.5t-84.5 -278.5q-4 -152 49 -252t131 -104q86 -7 114 410q14 176 16 286t4 148zM1046 -942q-154 0 -226 127q-115 202 -20 469q32 88 95 172t159 138q58 34 116 62v156q0 130 -2 220v108q-8 -35 -40 -109q-85 -195 -200 -299q-92 -88 -196 -84
q-111 8 -190 112q-72 90 -110 236l-12 44q-114 -62 -218 -40q-71 15 -111 67q-41 53 -41 95q0 157 110 160q30 -10 40 -38t4 -38q-44 -14 -63 -64q-29 -75 27 -124q18 -14 44 -18q98 -22 196 58q-60 302 6 620q38 180 114 291t180 111q58 0 87 -28q129 -125 0 -513
q-70 -211 -205 -385q12 -197 54 -335.5t100 -144.5q102 -8 192 119q144 204 218 487q41 154 43 295q3 141 17 209q12 26 28 38q60 34 127 -33q45 -45 57 -97q-70 -64 -70 -696q-2 -148 -6 -296q4 4 32 17t87 50q148 93 183 245h70q-26 -126 -105 -207t-179 -129l-90 -44
l-8 -160q-27 -509 -135 -713q-59 -111 -159 -111z" />
    <glyph glyph-name="germandbls" unicode="&#xdf;" horiz-adv-x="1480" 
d="M1284 462q0 -169 -48 -273.5t-114 -180.5q-122 -140 -282 -192q-64 -20 -132 -20t-125 45t-79 127q-37 126 6 242q34 81 98 100q34 12 76 4q64 -18 67 -93t-29 -97q-68 36 -111 -34q-56 -92 -13 -178q71 -114 198 -26q170 121 252 390q30 92 34 181q7 155 -78 227
q-70 60 -156 67t-106 15q-8 12 -8 31t8 35q14 8 68 56q98 94 144 212q20 48 24 100q14 124 -46.5 212t-149 80t-128.5 -28q-86 -38 -131 -176t-66 -305t-34 -393t-24 -389t-37 -237q-14 -46 -79 -64q-94 -26 -135 40q-12 16 -16 38q34 -4 50 96q18 100 30 221
q45 458 91.5 659.5t95.5 301.5t101 162q113 126 292 126t280 -98q88 -92 88 -224q-4 -105 -73 -199q-69 -95 -141 -150t-82 -65q8 -4 78 -8t174 -56q97 -54 141 -163q27 -67 27 -119z" />
    <glyph glyph-name="agrave" unicode="&#xe0;" horiz-adv-x="888" 
d="M224 1008q0 54 48 60h2q14 0 32 -8q72 -32 105 -107t39 -135q0 -12 -12 -16h-12q-6 0 -14 2q-20 50 -80 92q-62 42 -90 54q-16 14 -18 52v6zM612 -96h-14q-81 7 -135 61q-53 53 -76 110t-27 83q-10 -46 -72 -111t-136 -77q-67 -13 -122 38q-88 86 -88 222v14
q4 146 72 270q44 82 123.5 152t200.5 70q122 0 174 -48q72 -68 62 -144t-55 -93t-90 5t-59 48q24 12 46 58q24 46 10 82q-9 34 -64 42q-56 8 -112 -61t-96 -176t-41 -225t69 -144q42 -14 86 30q71 78 100 194q12 40 16 78q38 48 104 2t68 -82q-20 -34 -24 -97
q-8 -119 40 -181q20 -28 55 -33q64 -9 125 113q38 78 63 171t35 131q27 14 74 2q-34 -152 -97 -300q-63 -147 -155 -190q-28 -14 -60 -14z" />
    <glyph glyph-name="aacute" unicode="&#xe1;" horiz-adv-x="888" 
d="M340 798q-24 0 -24 18q6 60 40 135t104 105q18 8 32 8h4q14 0 30 -12t16 -48v-4q0 -40 -18 -52q-28 -12 -89 -55t-79 -93q-8 -2 -16 -2zM612 -96h-14q-81 7 -135 61q-53 53 -76 110t-27 83q-10 -46 -72 -111t-136 -77q-67 -13 -122 38q-88 86 -88 222v14q4 146 72 270
q44 82 123.5 152t200.5 70q122 0 174 -48q72 -68 62 -144t-55 -93t-90 5t-59 48q24 12 46 58q24 46 10 82q-9 34 -64 42q-56 8 -112 -61t-96 -176t-41 -225t69 -144q42 -14 86 30q71 78 100 194q12 40 16 78q38 48 104 2t68 -82q-20 -34 -24 -97q-8 -119 40 -181
q20 -28 55 -33q64 -9 125 113q38 78 63 171t35 131q27 14 74 2q-34 -152 -97 -300q-63 -147 -155 -190q-28 -14 -60 -14z" />
    <glyph glyph-name="acircumflex" unicode="&#xe2;" horiz-adv-x="888" 
d="M528 853q0 -15 -30 -38t-76 -13q-22 48 -70 148q-28 -38 -44 -78t-40 -80h-12q-28 -2 -61 17t-33 51q79 52 188 156q58 -46 176 -142q2 -6 2 -21zM612 -96h-14q-81 7 -135 61q-53 53 -76 110t-27 83q-10 -46 -72 -111t-136 -77q-67 -13 -122 38q-88 86 -88 222v14
q4 146 72 270q44 82 123.5 152t200.5 70q122 0 174 -48q72 -68 62 -144t-55 -93t-90 5t-59 48q24 12 46 58q24 46 10 82q-9 34 -64 42q-56 8 -112 -61t-96 -176t-41 -225t69 -144q42 -14 86 30q71 78 100 194q12 40 16 78q38 48 104 2t68 -82q-20 -34 -24 -97
q-8 -119 40 -181q20 -28 55 -33q64 -9 125 113q38 78 63 171t35 131q27 14 74 2q-34 -152 -97 -300q-63 -147 -155 -190q-28 -14 -60 -14z" />
    <glyph glyph-name="atilde" unicode="&#xe3;" horiz-adv-x="888" 
d="M546 922q0 -76 -72 -104q-14 -6 -30 -6h-12q-54 11 -105 52q-51 42 -75 45t-39 -12t-23 -57q-24 10 -34 40t-10 64t26 61q38 39 81.5 39t107.5 -60t95 -24q12 16 22 60q40 -8 58 -52q10 -24 10 -46zM612 -96h-14q-81 7 -135 61q-53 53 -76 110t-27 83q-10 -46 -72 -111
t-136 -77q-67 -13 -122 38q-88 86 -88 222v14q4 146 72 270q44 82 123.5 152t200.5 70q122 0 174 -48q72 -68 62 -144t-55 -93t-90 5t-59 48q24 12 46 58q24 46 10 82q-9 34 -64 42q-56 8 -112 -61t-96 -176t-41 -225t69 -144q42 -14 86 30q71 78 100 194q12 40 16 78
q38 48 104 2t68 -82q-20 -34 -24 -97q-8 -119 40 -181q20 -28 55 -33q64 -9 125 113q38 78 63 171t35 131q27 14 74 2q-34 -152 -97 -300q-63 -147 -155 -190q-28 -14 -60 -14z" />
    <glyph glyph-name="adieresis" unicode="&#xe4;" horiz-adv-x="888" 
d="M474 970q16 0 52 -22q52 -28 52 -62v-4q-2 -34 -27 -63t-53 -33h-6q-20 0 -54 19t-35 56t22 57t25 46q8 6 24 6zM256 794q-36 0 -60 17t-24 43q0 98 38 110q22 -14 47 -10t56 -14t31 -59t-24 -64t-60 -23h-4zM612 -96h-14q-81 7 -135 61q-53 53 -76 110t-27 83
q-10 -46 -72 -111t-136 -77q-67 -13 -122 38q-88 86 -88 222v14q4 146 72 270q44 82 123.5 152t200.5 70q122 0 174 -48q72 -68 62 -144t-55 -93t-90 5t-59 48q24 12 46 58q24 46 10 82q-9 34 -64 42q-56 8 -112 -61t-96 -176t-41 -225t69 -144q42 -14 86 30q71 78 100 194
q12 40 16 78q38 48 104 2t68 -82q-20 -34 -24 -97q-8 -119 40 -181q20 -28 55 -33q64 -9 125 113q38 78 63 171t35 131q27 14 74 2q-34 -152 -97 -300q-63 -147 -155 -190q-28 -14 -60 -14z" />
    <glyph glyph-name="aring" unicode="&#xe5;" horiz-adv-x="888" 
d="M364 954q-48 4 -52 -63t50 -65q28 0 38 58t-20 50q-12 10 -10 30q-2 -6 -6 -10zM396 992q72 0 72 -116q0 -32 -20 -56q-35 -42 -82 -42h-2q-60 0 -94 33t-33 63q4 121 113 116q16 -2 20 -14v-10q2 18 12 22t14 4zM612 -96h-14q-81 7 -135 61q-53 53 -76 110t-27 83
q-10 -46 -72 -111t-136 -77q-67 -13 -122 38q-88 86 -88 222v14q4 146 72 270q44 82 123.5 152t200.5 70q122 0 174 -48q72 -68 62 -144t-55 -93t-90 5t-59 48q24 12 46 58q24 46 10 82q-9 34 -64 42q-56 8 -112 -61t-96 -176t-41 -225t69 -144q42 -14 86 30q71 78 100 194
q12 40 16 78q38 48 104 2t68 -82q-20 -34 -24 -97q-8 -119 40 -181q20 -28 55 -33q64 -9 125 113q38 78 63 171t35 131q27 14 74 2q-34 -152 -97 -300q-63 -147 -155 -190q-28 -14 -60 -14z" />
    <glyph glyph-name="ae" unicode="&#xe6;" horiz-adv-x="1162" 
d="M588 470.5q0 -118.5 2 -134.5q82 35 129 115q47 79 55 126t-9 90t-79 -3q-98 -75 -98 -193.5zM418 438q-20 4 -53 20t-47 40q24 14 47 59t9 81q-10 38 -58 42q-74 12 -140 -90t-93 -213t-18 -196t65 -105q42 -16 86 30q72 78 100 192q12 40 16 78q30 38 78 16q4 33 8 46z
M308 730q144 0 196 -104q12 12 59 47q83 62 161 57q44 0 86 -16q76 -28 90 -104q15 -89 -46 -172q-88 -120 -252 -168q6 -16 21 -67t48 -100q63 -93 119 -97q101 -7 173 68q115 121 165 350q21 6 70 0q-49 -259 -201 -416q-85 -88 -209 -88q-89 0 -156 32q-116 56 -170 156
q-7 -135 34 -146q-25 -38 -82 -38q-24 0 -40 10q-28 42 -45 121t-19 97q-12 -46 -74 -110t-136 -78q-73 -9 -122 40q-88 86 -88 220v14q4 146 61 250t124 163t131 69t102 10z" />
    <glyph glyph-name="ccedilla" unicode="&#xe7;" horiz-adv-x="774" 
d="M-18 194q-26 92 -26 174t34 146q63 117 148 172q82 56 168 56q140 0 178 -134q15 -62 -14 -112q-40 -70 -117 -87t-63 41q52 26 63 93q16 97 -49 121q-14 6 -34 4q-70 -6 -98 -90t-19 -204t69 -240t162 -128t177 66q122 120 171 346q20 6 72 0q-16 -78 -63 -201
t-137 -209q-48 -46 -110 -74q-24 -8 -48 -14l24 -24q28 -30 61 -75t33 -135v-4q0 -92 -52 -166q-28 -40 -82 -75t-142 -35q-71 0 -140 40q-72 46 -97 105t-25 93q0 126 136 152q54 8 56 -26t-26 -64q-34 8 -52 -6q-36 -30 -9 -116t99 -128q22 -12 49 -17q71 -13 119 31
q75 63 69.5 162.5t-37.5 146.5t-64 80t-56 59q-122 17 -212 101q-90 83 -116 175z" />
    <glyph glyph-name="egrave" unicode="&#xe8;" horiz-adv-x="706" 
d="M132 1000q0 54 48 60h2q14 0 32 -8q72 -32 105 -107t39 -135q0 -14 -12 -16h-12q-6 0 -16 2q-18 50 -78 92q-62 42 -90 54q-16 14 -18 52v6zM166 352q60 36 102 107q74 124 42 207q-16 44 -80 -4q-24 -18 -41 -47q-44 -75 -51 -159t-2 -118q16 4 30 14zM330 -80h-20
q-148 10 -229 94q-123 127 -129 306v16q0 48 10 90q32 160 112 220t121 72t79 12t82 -16q74 -30 90 -109t-48 -169q-86 -118 -250 -166q6 -16 21 -68t48 -101q60 -89 121 -97q99 -4 170 71q112 117 164 349q24 3 72 -2q-16 -76 -61 -197t-136 -213t-217 -92z" />
    <glyph glyph-name="eacute" unicode="&#xe9;" horiz-adv-x="706" 
d="M251.5 788q-14.5 0 -17.5 18q8 60 41 135t105 105q18 8 32 10l2 -2q16 0 32 -12t16 -46v-6q-2 -38 -18 -52q-28 -12 -89 -54t-81 -94q-8 -2 -22.5 -2zM166 352q60 36 102 107q74 124 42 207q-16 44 -80 -4q-24 -18 -41 -47q-44 -75 -51 -159t-2 -118q16 4 30 14zM330 -80
h-20q-148 10 -229 94q-123 127 -129 306v16q0 48 10 90q32 160 112 220t121 72t79 12t82 -16q74 -30 90 -109t-48 -169q-86 -118 -250 -166q6 -16 21 -68t48 -101q60 -89 121 -97q99 -4 170 71q112 117 164 349q24 3 72 -2q-16 -76 -61 -197t-136 -213t-217 -92z" />
    <glyph glyph-name="ecircumflex" unicode="&#xea;" horiz-adv-x="706" 
d="M192 790q-30 0 -63 18t-33 50q72 47 188 158q60 -48 176 -142q2 -8 2 -14q2 -24 -28 -46t-76 -14q-24 50 -72 148q-28 -38 -44 -77t-38 -81h-12zM166 352q60 36 102 107q74 124 42 207q-16 44 -80 -4q-24 -18 -41 -47q-44 -75 -51 -159t-2 -118q16 4 30 14zM330 -80h-20
q-148 10 -229 94q-123 127 -129 306v16q0 48 10 90q32 160 112 220t121 72t79 12t82 -16q74 -30 90 -109t-48 -169q-86 -118 -250 -166q6 -16 21 -68t48 -101q60 -89 121 -97q99 -4 170 71q112 117 164 349q24 3 72 -2q-16 -76 -61 -197t-136 -213t-217 -92z" />
    <glyph glyph-name="edieresis" unicode="&#xeb;" horiz-adv-x="706" 
d="M162 816q-36 0 -60 17t-24 43t4 42q10 60 34 68q22 -14 47 -10t56 -14t31 -50q0 -96 -84 -96h-4zM380 992q16 0 52 -22q52 -28 52 -62v-4q-2 -36 -27 -64t-53 -32h-6q-20 0 -54 19t-34 49v12q6 40 26 56q18 16 20 42q8 6 24 6zM166 352q60 36 102 107q74 124 42 207
q-16 44 -80 -4q-24 -18 -41 -47q-44 -75 -51 -159t-2 -118q16 4 30 14zM330 -80h-20q-148 10 -229 94q-123 127 -129 306v16q0 48 10 90q32 160 112 220t121 72t79 12t82 -16q74 -30 90 -109t-48 -169q-86 -118 -250 -166q6 -16 21 -68t48 -101q60 -89 121 -97q99 -4 170 71
q112 117 164 349q24 3 72 -2q-16 -76 -61 -197t-136 -213t-217 -92z" />
    <glyph glyph-name="igrave" unicode="&#xec;" horiz-adv-x="456" 
d="M-50 1042q0 53 46 60h4q14 0 32 -8q70 -32 104 -107t40 -135q0 -12 -12 -16h-12q-8 0 -16 2q-18 50 -79 92t-89 54q-18 14 -18 52v6zM-54 218q0 126 28 265t4 175q20 42 104 60q22 6 40 6q48 0 60 -34q-6 -66 -18 -144t-27 -189t-11 -227t78 -130q46 -8 88 65
q75 130 128 343q43 12 72 0q-42 -224 -126 -364q-50 -88 -110 -114q-24 -12 -50 -12h-18q-234 29 -242 274v26z" />
    <glyph glyph-name="iacute" unicode="&#xed;" horiz-adv-x="456" 
d="M194 1098q45 0 48 -60v-4q-2 -40 -18 -54q-28 -10 -89 -53t-81 -93q-8 -2 -22.5 -2t-17.5 18q6 60 40 135t106 105q18 8 30 8h4zM-54 218q0 126 28 265t4 175q20 42 104 60q22 6 40 6q48 0 60 -34q-6 -66 -18 -144t-27 -189t-11 -227t78 -130q46 -8 88 65q75 130 128 343
q43 12 72 0q-42 -224 -126 -364q-50 -88 -110 -114q-24 -12 -50 -12h-18q-234 29 -242 274v26z" />
    <glyph glyph-name="icircumflex" unicode="&#xee;" horiz-adv-x="456" 
d="M290 918q0 -14 -29 -37t-75 -13q-24 48 -72 146q-28 -36 -44 -76t-38 -80q-6 -2 -24 -2t-51 19t-33 51q79 52 188 156q58 -46 176 -142q2 -8 2 -22zM-54 218q0 126 28 265t4 175q20 42 104 60q22 6 40 6q48 0 60 -34q-6 -66 -18 -144t-27 -189t-11 -227t78 -130
q46 -8 88 65q75 130 128 343q43 12 72 0q-42 -224 -126 -364q-50 -88 -110 -114q-24 -12 -50 -12h-18q-234 29 -242 274v26z" />
    <glyph glyph-name="idieresis" unicode="&#xef;" horiz-adv-x="456" 
d="M0 808q-34 0 -58 17t-24 43q0 98 38 110q22 -16 46 -11t55 -13t32 -59t-23 -64t-60 -23h-6zM238 800q-22 0 -55 19t-34 56t22 57t25 46q20 15 73 -14q53 -30 55 -64v-4q-2 -36 -27 -64t-53 -32h-6zM-54 218q0 126 28 265t4 175q20 42 104 60q22 6 40 6q48 0 60 -34
q-6 -66 -18 -144t-27 -189t-11 -227t78 -130q46 -8 88 65q75 130 128 343q43 12 72 0q-42 -224 -126 -364q-50 -88 -110 -114q-24 -12 -50 -12h-18q-234 29 -242 274v26z" />
    <glyph glyph-name="ntilde" unicode="&#xf1;" 
d="M486 934q0 -74 -72 -104q-16 -8 -42 -8t-95 49q-70 49 -90 51q-45 5 -59 -70q-24 10 -36 52q-8 18 -6 53t31 67q30 32 71 32q8 2 35 -6t71 -49t65 -43t35 14t22 60q40 -6 60 -52q10 -24 10 -46zM366 734h4q78 0 124 -114q31 -84 43 -240q13 -156 21 -266t48 -118
q48 -8 92 67q72 123 128 347q14 8 36 7t34 -11q-25 -137 -76 -252q-52 -116 -96 -163q-86 -92 -180 -77q-149 21 -176 252q-11 88 -16 362q-2 100 -52 104q-32 2 -73 -54q-71 -97 -103 -220q-14 -46 -12 -104t-10 -302q-18 -48 -80 -52h-10q-54 0 -70 34q16 80 15 254
q-2 375 -49 460q6 50 62 73t88 -7q9 -25 25 -112q15 -87 15 -168q10 30 48 109q60 125 158 177q30 14 62 14z" />
    <glyph glyph-name="ograve" unicode="&#xf2;" 
d="M460 360q21 254 -48 240q-26 -8 -14.5 -73.5t62.5 -166.5zM254 1026q0 53 46 60h4q14 0 32 -8q70 -32 104 -107t40 -135q-2 -12 -14 -16h-10q-8 0 -16 2q-20 50 -80 92t-90 54q-16 14 -16 52v6zM306 -76q-94 0 -163 35q-191 97 -191 380q0 53 27 145t82 153
q104 115 233 115h10q38 -8 40 -34q0 -28 -18 -54q-63 4 -104 -56q-78 -116 -68 -332q6 -114 46 -204t112 -88q80 3 126 240q-96 137 -118 288q-18 119 45 177q25 23 65 31q118 30 166 -67q70 -141 38 -278t-52 -189q51 -44 125 -4t117 232q26 0 74 -2q-60 -242 -192 -304
q-81 -41 -156 6q-105 -187 -240 -190h-4z" />
    <glyph glyph-name="oacute" unicode="&#xf3;" 
d="M460 360q21 254 -48 240q-26 -8 -14.5 -73.5t62.5 -166.5zM478 1106q45 0 48 -60q0 -2 -2 -4q0 -38 -16 -52q-30 -12 -90 -55t-80 -93q-8 -2 -16 -2q-21 0 -24 18q6 60 40 135t104 105q18 8 32 8h4zM306 -76q-94 0 -163 35q-191 97 -191 380q0 53 27 145t82 153
q104 115 233 115h10q38 -8 40 -34q0 -28 -18 -54q-63 4 -104 -56q-78 -116 -68 -332q6 -114 46 -204t112 -88q80 3 126 240q-96 137 -118 288q-18 119 45 177q25 23 65 31q118 30 166 -67q70 -141 38 -278t-52 -189q51 -44 125 -4t117 232q26 0 74 -2q-60 -242 -192 -304
q-81 -41 -156 6q-105 -187 -240 -190h-4z" />
    <glyph glyph-name="ocircumflex" unicode="&#xf4;" 
d="M460 360q21 254 -48 240q-26 -8 -14.5 -73.5t62.5 -166.5zM534 899q0 -15 -30 -37t-76 -14q-22 50 -70 148q-28 -38 -44 -77t-40 -81h-12q-28 0 -61 18t-33 50q72 47 188 158q58 -48 176 -142q2 -8 2 -23zM306 -76q-94 0 -163 35q-191 97 -191 380q0 53 27 145t82 153
q104 115 233 115h10q38 -8 40 -34q0 -28 -18 -54q-63 4 -104 -56q-78 -116 -68 -332q6 -114 46 -204t112 -88q80 3 126 240q-96 137 -118 288q-18 119 45 177q25 23 65 31q118 30 166 -67q70 -141 38 -278t-52 -189q51 -44 125 -4t117 232q26 0 74 -2q-60 -242 -192 -304
q-81 -41 -156 6q-105 -187 -240 -190h-4z" />
    <glyph glyph-name="otilde" unicode="&#xf5;" 
d="M460 360q21 254 -48 240q-26 -8 -14.5 -73.5t62.5 -166.5zM486 1034q68 -14 68 -111q0 -35 -31 -67t-64 -32q-44 0 -114 48t-90 50q-43 5 -57 -70q-24 10 -34 41t-10 51q0 83 82 110q10 4 38.5 4t94.5 -62t93 -22q14 16 24 60zM306 -76q-94 0 -163 35q-191 97 -191 380
q0 53 27 145t82 153q104 115 233 115h10q38 -8 40 -34q0 -28 -18 -54q-63 4 -104 -56q-78 -116 -68 -332q6 -114 46 -204t112 -88q80 3 126 240q-96 137 -118 288q-18 119 45 177q25 23 65 31q118 30 166 -67q70 -141 38 -278t-52 -189q51 -44 125 -4t117 232q26 0 74 -2
q-60 -242 -192 -304q-81 -41 -156 6q-105 -187 -240 -190h-4z" />
    <glyph glyph-name="odieresis" unicode="&#xf6;" 
d="M460 360q21 254 -48 240q-26 -8 -14.5 -73.5t62.5 -166.5zM346 928q0 -96 -84 -96h-4q-34 0 -59 17t-25 55l4 28q10 62 34 70q22 -16 47 -11t56 -13t31 -50zM580 924v-4q-2 -36 -26 -64t-54 -32h-6q-20 0 -54 19t-34 49v10q6 42 26 58q18 16 22 42q16 16 71 -15t55 -63z
M306 -76q-94 0 -163 35q-191 97 -191 380q0 53 27 145t82 153q104 115 233 115h10q38 -8 40 -34q0 -28 -18 -54q-63 4 -104 -56q-78 -116 -68 -332q6 -114 46 -204t112 -88q80 3 126 240q-96 137 -118 288q-18 119 45 177q25 23 65 31q118 30 166 -67q70 -141 38 -278
t-52 -189q51 -44 125 -4t117 232q26 0 74 -2q-60 -242 -192 -304q-81 -41 -156 6q-105 -187 -240 -190h-4z" />
    <glyph glyph-name="oslash" unicode="&#xf8;" 
d="M462 398l-10 -24l8 -14q0 20 2 38zM396 526l30 74q-6 2 -14 0q-26 -8 -16 -64v-10zM312 -16q80 3 126 240q-16 24 -30 48q-59 -128 -128 -284q14 -4 32 -4zM142 -38q-190 92 -190 377q0 53 27 145t82 153q104 115 233 115h10q38 -8 40 -34q0 -28 -18 -54q-63 4 -104 -56
q-78 -116 -68 -332q6 -112 44 -200q98 210 146 330q-47 141 -14 226q10 34 43 64t105 30q94 235 94 272q36 28 68 28h6q34 -2 70 -26q-23 -80 -134 -328q8 -8 14 -20q70 -140 38 -277t-52 -189q51 -44 125 -4t117 232q26 0 74 -2q-60 -242 -192 -304q-81 -41 -156 6
q-105 -187 -240 -190h-4q-28 0 -54 4q-60 -128 -112 -240t-66 -136q-24 -8 -49 -8t-49 29t-24 105q21 -11 72 70q46 68 79 135t39 79z" />
    <glyph glyph-name="ugrave" unicode="&#xf9;" horiz-adv-x="924" 
d="M164 958q0 34 16 46t30 14h4q14 0 32 -8q70 -32 104 -107t40 -135q0 -14 -12 -16h-12q-8 0 -16 2q-18 50 -79 92t-89 54q-16 14 -18 52v6zM30 724q28 0 69 -18t61 -58q-2 -62 -20 -224t-12 -276t62 -116q100 -4 158 155t78 403q17 46 54 58q50 20 110 -11t62 -71
q-18 -26 -33 -105q-36 -192 -21 -377q10 -96 46 -104q38 -7 82 28q50 47 99 166q48 120 65 242q16 -2 34 -2h38q-35 -225 -128 -372q-54 -91 -126 -118q-26 -12 -68 -12t-79 26t-66 68t-43 108t-20 96q-8 -20 -37 -86q-49 -112 -145 -168q-36 -20 -84 -21q-91 -2 -144 99
q-68 126 -68 482q2 112 -18 142q20 66 94 66z" />
    <glyph glyph-name="uacute" unicode="&#xfa;" horiz-adv-x="924" 
d="M290 780q-24 0 -24 18q6 60 40 135t104 107q18 8 32 8h4q14 -2 30 -14t16 -46v-6q-2 -38 -18 -52q-28 -12 -89 -54t-79 -94q-8 -2 -16 -2zM30 724q28 0 69 -18t61 -58q-2 -62 -20 -224t-12 -276t62 -116q100 -4 158 155t78 403q17 46 54 58q50 20 110 -11t62 -71
q-18 -26 -33 -105q-36 -192 -21 -377q10 -96 46 -104q38 -7 82 28q50 47 99 166q48 120 65 242q16 -2 34 -2h38q-35 -225 -128 -372q-54 -91 -126 -118q-26 -12 -68 -12t-79 26t-66 68t-43 108t-20 96q-8 -20 -37 -86q-49 -112 -145 -168q-36 -20 -84 -21q-91 -2 -144 99
q-68 126 -68 482q2 112 -18 142q20 66 94 66z" />
    <glyph glyph-name="ucircumflex" unicode="&#xfb;" horiz-adv-x="924" 
d="M212 784q-18 0 -51 18t-33 50q60 38 101 76t87 82q60 -48 176 -142q2 -8 3 -22t-29 -37t-76 -15q-24 50 -70 148q-30 -38 -46 -77t-38 -79q-6 -2 -24 -2zM30 724q28 0 69 -18t61 -58q-2 -62 -20 -224t-12 -276t62 -116q100 -4 158 155t78 403q17 46 54 58q50 20 110 -11
t62 -71q-18 -26 -33 -105q-36 -192 -21 -377q10 -96 46 -104q38 -7 82 28q50 47 99 166q48 120 65 242q16 -2 34 -2h38q-35 -225 -128 -372q-54 -91 -126 -118q-26 -12 -68 -12t-79 26t-66 68t-43 108t-20 96q-8 -20 -37 -86q-49 -112 -145 -168q-36 -20 -84 -21
q-91 -2 -144 99q-68 126 -68 482q2 112 -18 142q20 66 94 66z" />
    <glyph glyph-name="udieresis" unicode="&#xfc;" horiz-adv-x="924" 
d="M433 956q17 0 60 -25t43 -59v-2q-2 -36 -26 -64t-54 -32h-4q-22 0 -56 19t-34 49v10q6 42 26 58t22 42q6 4 23 4zM132 842q0 99 36 108q24 -14 48 -9t55 -14t31 -51v-16q-8 -44 -27 -61t-57 -19h-4q-34 2 -62 20q-20 16 -20 42zM30 724q28 0 69 -18t61 -58
q-2 -62 -20 -224t-12 -276t62 -116q100 -4 158 155t78 403q17 46 54 58q50 20 110 -11t62 -71q-18 -26 -33 -105q-36 -192 -21 -377q10 -96 46 -104q38 -7 82 28q50 47 99 166q48 120 65 242q16 -2 34 -2h38q-35 -225 -128 -372q-54 -91 -126 -118q-26 -12 -68 -12t-79 26
t-66 68t-43 108t-20 96q-8 -20 -37 -86q-49 -112 -145 -168q-36 -20 -84 -21q-91 -2 -144 99q-68 126 -68 482q2 112 -18 142q20 66 94 66z" />
    <glyph glyph-name="yacute" unicode="&#xfd;" horiz-adv-x="932" 
d="M474 974v-6q-2 -38 -18 -52q-28 -12 -89 -54t-81 -92q-8 -2 -14 -2h-12q-12 4 -12 16q6 60 39 135t105 107q18 8 32 8h2q48 -6 48 -60zM290 -912q43 0 78 464q12 144 20 286q-138 -98 -199 -195q-62 -97 -45 -237q16 -140 56 -229t90 -89zM-4 744h4q68 0 124 -54
q18 -34 22 -108t6 -180t11 -217t61 -111t97 95q68 144 93 343q10 64 10 118q14 20 51 40q61 33 113 -24q18 -22 32 -62q-26 -6 -56 -558q30 22 94 68t139 129t99 195q27 10 74 -2q-31 -131 -111 -223q-81 -93 -162 -147t-139 -92q-2 -16 -10 -126t-37 -311t-68 -299
t-75 -138t-82 -42h-4q-110 0 -178 101t-70 239q0 258 214 432q68 56 144 108q12 296 14 310q-76 -248 -196 -248q-97 4 -154 103t-82 239q-26 140 -37 251t-33 131q26 40 92 40z" />
    <glyph glyph-name="ydieresis" unicode="&#xff;" horiz-adv-x="932" 
d="M200 790q-34 0 -58 18t-24 43q0 97 38 109q22 -14 46 -10t55 -14t31 -50v-16q-8 -44 -27 -62t-55 -18h-6zM420 966q16 0 59 -25t45 -59v-4q-4 -34 -28 -63t-52 -33h-6q-22 0 -56 19t-34 56t23 57t25 46q8 6 24 6zM290 -912q43 0 78 464q12 144 20 286q-138 -98 -199 -195
q-62 -97 -45 -237q16 -140 56 -229t90 -89zM-4 744h4q68 0 124 -54q18 -34 22 -108t6 -180t11 -217t61 -111t97 95q68 144 93 343q10 64 10 118q14 20 51 40q61 33 113 -24q18 -22 32 -62q-26 -6 -56 -558q30 22 94 68t139 129t99 195q27 10 74 -2q-31 -131 -111 -223
q-81 -93 -162 -147t-139 -92q-2 -16 -10 -126t-37 -311t-68 -299t-75 -138t-82 -42h-4q-110 0 -178 101t-70 239q0 258 214 432q68 56 144 108q12 296 14 310q-76 -248 -196 -248q-97 4 -154 103t-82 239q-26 140 -37 251t-33 131q26 40 92 40z" />
    <glyph glyph-name="Amacron" unicode="&#x100;" horiz-adv-x="1808" 
d="M1078 676q52 0 100 4q-11 97 -25 418q-13 322 -15 344q-50 -72 -114 -332q-20 -88 -42 -188t-46 -204l-6 -30q96 -12 148 -12zM1558 -106h-14q-131 15 -224 182q-64 126 -91 268t-43 252q-140 0 -201 11t-71 11q-20 -80 -46 -186t-81 -278t-153 -327t-236 -161h-8
q-98 0 -171 94q-111 143 -111 338q0 120 52 208q70 123 232 134q58 -12 65 -89t-33 -99q-114 43 -178 -30q-61 -85 -41 -213q19 -129 69 -212t122 -81q129 7 230 406q46 174 90 368l60 260q30 130 80 300t136 322q58 102 136 136q-4 6 -6 10q8 36 68 40h10q54 0 87 -26
q61 -48 65 -114q-11 -228 14 -706q74 18 98 32q44 -6 46 -54q0 -6 -2 -12q-6 -60 -36 -60q-44 -10 -98 -14q2 -12 8 -70q59 -568 174 -580q48 -4 91 79q60 116 107 297l20 80q49 6 74 0q-14 -64 -36 -147q-55 -208 -142 -309q-52 -60 -112 -60zM1056 1650q-40 0 -70 2
q-54 22 -54 50q0 4 2 8q8 34 64 56q38 -42 140 -25t248 13q40 -30 44 -52v-6q0 -20 -18 -44q-28 4 -270 -2h-86z" />
    <glyph glyph-name="amacron" unicode="&#x101;" horiz-adv-x="888" 
d="M612 -96h-14q-81 7 -135 61q-53 53 -76 110t-27 83q-10 -46 -72 -111t-136 -77q-67 -13 -122 38q-88 86 -88 222v14q4 146 72 270q44 82 123.5 152t200.5 70q122 0 174 -48q72 -68 62 -144t-55 -93t-90 5t-59 48q24 12 46 58q24 46 10 82q-9 34 -64 42q-56 8 -112 -61
t-96 -176t-41 -225t69 -144q42 -14 86 30q71 78 100 194q12 40 16 78q38 48 104 2t68 -82q-20 -34 -24 -97q-8 -119 40 -181q20 -28 55 -33q64 -9 125 113q38 78 63 171t35 131q27 14 74 2q-34 -152 -97 -300q-63 -147 -155 -190q-28 -14 -60 -14zM218 826q-40 0 -70 2
q-54 22 -54 50q0 4 2 8q8 34 64 56q38 -42 140 -25t248 13q40 -30 44 -52v-6q0 -20 -18 -44q-28 4 -270 -2h-86z" />
    <glyph glyph-name="Abreve" unicode="&#x102;" horiz-adv-x="1808" 
d="M1078 676q52 0 100 4q-11 97 -25 418q-13 322 -15 344q-50 -72 -114 -332q-20 -88 -42 -188t-46 -204l-6 -30q96 -12 148 -12zM1558 -106h-14q-131 15 -224 182q-64 126 -91 268t-43 252q-140 0 -201 11t-71 11q-20 -80 -46 -186t-81 -278t-153 -327t-236 -161h-8
q-98 0 -171 94q-111 143 -111 338q0 120 52 208q70 123 232 134q58 -12 65 -89t-33 -99q-114 43 -178 -30q-61 -85 -41 -213q19 -129 69 -212t122 -81q129 7 230 406q46 174 90 368l60 260q30 130 80 300t136 322q58 102 136 136q-4 6 -6 10q8 36 68 40h10q54 0 87 -26
q61 -48 65 -114q-11 -228 14 -706q74 18 98 32q44 -6 46 -54q0 -6 -2 -12q-6 -60 -36 -60q-44 -10 -98 -14q2 -12 8 -70q59 -568 174 -580q48 -4 91 79q60 116 107 297l20 80q49 6 74 0q-14 -64 -36 -147q-55 -208 -142 -309q-52 -60 -112 -60zM1388 1804q0 -6 -14 -38
t-48 -76t-104 -44t-110 52t-50 84q0 32 34 40q36 8 70 4q2 -28 13 -69t33 -41q40 0 56 42q14 44 14 78q20 4 36 2q70 0 70 -34z" />
    <glyph glyph-name="abreve" unicode="&#x103;" horiz-adv-x="888" 
d="M612 -96h-14q-81 7 -135 61q-53 53 -76 110t-27 83q-10 -46 -72 -111t-136 -77q-67 -13 -122 38q-88 86 -88 222v14q4 146 72 270q44 82 123 152t201 70t174 -48q72 -68 62 -144t-55 -93t-90 5t-59 48q24 12 46 58q24 46 10 82q-9 34 -64 42q-56 8 -112 -61t-96 -176
t-41 -225t69 -144q42 -14 86 30q71 78 100 194q12 40 16 78q38 48 104 2t68 -82q-20 -34 -24 -97q-8 -119 40 -181q20 -28 55 -33q64 -9 125 113q38 78 63 171t35 131q27 14 74 2q-34 -152 -97 -300q-63 -147 -155 -190q-28 -14 -60 -14zM490 982q0 -6 -14 -38t-48 -76
t-104 -44t-110 52t-50 84q0 32 34 40q36 8 70 4q2 -28 13 -69t33 -41q40 0 56 42q14 44 14 78q20 4 36 2q70 0 70 -34z" />
    <glyph glyph-name="Aogonek" unicode="&#x104;" horiz-adv-x="1808" 
d="M1078 676q52 0 100 4q-11 97 -25 418q-13 322 -15 344q-50 -72 -114 -332q-20 -88 -42 -188t-46 -204l-6 -30q96 -12 148 -12zM1888 -390q0 -34 -26 -93t-98 -105q-65 -40 -144 -40q-78 0 -134 35q-136 85 -136 241v4q0 90 33 135t61 75l46 46q-96 33 -170 168
q-64 126 -91 268t-43 252q-140 0 -201 11t-71 11q-20 -80 -46 -186t-81 -278t-153 -327t-236 -161h-8q-98 0 -171 94q-111 143 -111 338q0 120 52 208q70 123 232 134q58 -12 65 -89t-33 -99q-114 43 -178 -30q-61 -85 -41 -213q19 -129 69 -212t122 -81q129 7 230 406
q46 174 90 368l60 260q30 130 80 300t136 322q58 102 136 136q-4 6 -6 10q8 36 68 40h10q54 0 87 -26q61 -48 65 -114q-11 -228 14 -706q74 18 98 32q44 -6 46 -54q0 -6 -2 -12q-6 -60 -36 -60q-44 -10 -98 -14l4 -24q59 -614 174 -625q52 -5 95 78q60 116 107 297l20 80
q49 6 74 0q-14 -64 -36 -147q-55 -208 -142 -309q-24 -26 -52 -42l8 -2q-34 -38 -72 -78t-70 -87t-37.5 -146.5t69.5 -162.5q47 -43 118 -32q55 13 82 44q81 71 78.5 157.5t-74.5 66.5q-26 30 -24 64t56 26q136 -26 136 -152z" />
    <glyph glyph-name="aogonek" unicode="&#x105;" horiz-adv-x="888" 
d="M398 -336v4q0 90 33 135t61 75l40 42q-36 12 -79 55t-66 100t-27 83q-10 -46 -72 -111t-136 -77q-67 -13 -122 38q-88 86 -88 222v14q4 146 72 270q44 82 123.5 152t200.5 70q122 0 174 -48q72 -68 62 -144t-55 -93t-90 5t-59 48q24 12 46 58q24 46 10 82q-9 34 -64 42
q-56 8 -112 -61t-96 -176t-41 -225t69 -144q42 -14 86 30q71 78 100 194q12 40 16 78q38 48 104 2t68 -82q-20 -34 -24 -97q-8 -119 40 -181q20 -28 55 -33q64 -9 125 113q38 78 63 171t35 131q27 14 74 2q-34 -152 -97 -300q-63 -147 -155 -190q-4 -2 -10 -4
q-28 -32 -63 -69t-67 -84t-37.5 -146.5t69.5 -162.5q47 -43 118 -32q55 13 82 44q81 71 78.5 157.5t-74.5 66.5q-26 30 -24 64t55 25q137 -23 137 -151q0 -34 -26 -93t-98 -105q-65 -40 -144 -40q-78 0 -134 35q-136 85 -136 241z" />
    <glyph glyph-name="Cacute" unicode="&#x106;" horiz-adv-x="1360" 
d="M760 -258q-160 0 -273 62t-187 150q-182 227 -182 602q0 191 54 370q88 312 308 482q140 110 326 110h6q96 0 160 -60q84 -72 105 -194q34 -200 -99 -316q-46 -40 -131 -57t-127 27q-40 44 2 120q107 -7 178 96q46 66 52 150q9 126 -84 166q-26 12 -64 12
q-120 -2 -208 -96q-180 -192 -222 -594q-29 -236 6 -448q34 -212 118 -355t224 -155q192 -18 344 120q76 69 151 199q75 129 111 285q24 0 72 -2q-51 -234 -200 -438q-109 -142 -264 -204q-78 -32 -176 -32zM732 1592q-26 0 -26 18q6 66 42 146t114 114q20 8 34 8h4
q16 0 33 -13t17 -51v-6q-2 -40 -20 -56q-30 -12 -95 -58t-87 -100q-8 -2 -16 -2z" />
    <glyph glyph-name="cacute" unicode="&#x107;" horiz-adv-x="774" 
d="M403 -88q-118 0 -189 32q-185 84 -238 270q-20 72 -20 154t34 146q63 117 148 172q82 56 168 56q140 0 178 -134q15 -62 -14 -112q-40 -70 -117 -87t-63 41q52 26 63 93q16 97 -49 121q-14 6 -34 4q-70 -6 -98 -90t-19 -204t69 -240t162 -128t177 66q122 120 171 346
q20 6 72 0q-16 -78 -63 -201t-137 -209q-48 -46 -106 -71t-95 -25zM250 862q-26 0 -26 18q6 66 42 146t114 114q20 8 34 8h4q16 0 33 -13t17 -51v-6q-2 -40 -20 -56q-30 -12 -95 -58t-87 -100q-8 -2 -16 -2z" />
    <glyph glyph-name="Ccircumflex" unicode="&#x108;" horiz-adv-x="1360" 
d="M760 -258q-160 0 -273 62t-187 150q-182 227 -182 602q0 191 54 370q88 312 308 482q140 110 326 110h6q96 0 160 -60q84 -72 105 -194q34 -200 -99 -316q-46 -40 -131 -57t-127 27q-40 44 2 120q107 -7 178 96q46 66 52 150q9 126 -84 166q-26 12 -64 12
q-120 -2 -208 -96q-180 -192 -222 -594q-29 -236 6 -448q34 -212 118 -355t224 -155q192 -18 344 120q76 69 151 199q75 129 111 285q24 0 72 -2q-51 -234 -200 -438q-109 -142 -264 -204q-78 -32 -176 -32zM956 1651q0 -15 -30 -37t-76 -14q-24 48 -70 148q-30 -38 -46 -78
t-38 -80h-12q-28 0 -62 18t-34 50q60 38 101 75t89 83l174 -144q4 -6 4 -21z" />
    <glyph glyph-name="ccircumflex" unicode="&#x109;" horiz-adv-x="774" 
d="M403 -88q-118 0 -189 32q-185 84 -238 270q-20 72 -20 154t34 146q63 117 148 172q82 56 168 56q140 0 178 -134q15 -62 -14 -112q-40 -70 -117 -87t-63 41q52 26 63 93q16 97 -49 121q-14 6 -34 4q-70 -6 -98 -90t-19 -204t69 -240t162 -128t177 66q122 120 171 346
q20 6 72 0q-16 -78 -63 -201t-137 -209q-48 -46 -106 -71t-95 -25zM480 871q0 -15 -30 -37t-76 -14q-24 48 -70 148q-30 -38 -46 -78t-38 -80h-12q-28 0 -62 18t-34 50q60 38 101 75t89 83l174 -144q4 -6 4 -21z" />
    <glyph glyph-name="Cdotaccent" unicode="&#x10a;" horiz-adv-x="1360" 
d="M760 -258q-160 0 -273 62t-187 150q-182 227 -182 602q0 191 54 370q88 312 308 482q140 110 326 110h6q96 0 160 -60q84 -72 105 -194q34 -200 -99 -316q-46 -40 -131 -57t-127 27q-40 44 2 120q107 -7 178 96q46 66 52 150q9 126 -84 166q-26 12 -64 12
q-120 -2 -208 -96q-180 -192 -222 -594q-29 -236 6 -448q34 -212 118 -355t224 -155q192 -18 344 120q76 69 151 199q75 129 111 285q24 0 72 -2q-51 -234 -200 -438q-109 -142 -264 -204q-78 -32 -176 -32zM894 1702q0 -20 -15 -52q-24 -52 -73 -52q-94 0 -102 62
q-2 14 -2 34t13 40t7 50q12 14 37 14t53 -6q70 -16 78 -56q4 -14 4 -34z" />
    <glyph glyph-name="cdotaccent" unicode="&#x10b;" horiz-adv-x="774" 
d="M403 -88q-118 0 -189 32q-185 84 -238 270q-20 72 -20 154t34 146q63 117 148 172q82 56 168 56q140 0 178 -134q15 -62 -14 -112q-40 -70 -117 -87t-63 41q52 26 63 93q16 97 -49 121q-14 6 -34 4q-70 -6 -98 -90t-19 -204t69 -240t162 -128t177 66q122 120 171 346
q20 6 72 0q-16 -78 -63 -201t-137 -209q-48 -46 -106 -71t-95 -25zM410 910q0 -20 -15 -52q-24 -52 -73 -52q-94 0 -102 62q-2 14 -2 34t13 40t7 50q12 14 37 14t53 -6q70 -16 78 -56q4 -14 4 -34z" />
    <glyph glyph-name="Ccaron" unicode="&#x10c;" horiz-adv-x="1360" 
d="M760 -258q-160 0 -273 62t-187 150q-182 227 -182 602q0 191 54 370q88 312 308 482q140 110 326 110h6q96 0 160 -60q84 -72 105 -194q34 -200 -99 -316q-46 -40 -131 -57t-127 27q-40 44 2 120q107 -7 178 96q46 66 52 150q9 126 -84 166q-26 12 -64 12
q-120 -2 -208 -96q-180 -192 -222 -594q-29 -236 6 -448q34 -212 118 -355t224 -155q192 -18 344 120q76 69 151 199q75 129 111 285q24 0 72 -2q-51 -234 -200 -438q-109 -142 -264 -204q-78 -32 -176 -32zM677 1818q17 0 23 -2q22 -40 38 -80t46 -76q22 48 70 146
q46 10 76 -13t30 -37t-4 -22q-58 -48 -174 -142q-48 44 -89 81t-101 75q0 32 34 51t51 19z" />
    <glyph glyph-name="ccaron" unicode="&#x10d;" horiz-adv-x="774" 
d="M403 -88q-118 0 -189 32q-185 84 -238 270q-20 72 -20 154t34 146q63 117 148 172q82 56 168 56q140 0 178 -134q15 -62 -14 -112q-40 -70 -117 -87t-63 41q52 26 63 93q16 97 -49 121q-14 6 -34 4q-70 -6 -98 -90t-19 -204t69 -240t162 -128t177 66q122 120 171 346
q20 6 72 0q-16 -78 -63 -201t-137 -209q-48 -46 -106 -71t-95 -25zM233 1042q17 0 23 -2q22 -40 38 -80t46 -76q22 48 70 146q46 10 76 -13t30 -37t-4 -22q-58 -48 -174 -142q-48 44 -89 81t-101 75q0 32 34 51t51 19z" />
    <glyph glyph-name="Dcaron" unicode="&#x10e;" horiz-adv-x="1724" 
d="M746 1268q6 -12 6 -116t-37 -635q-37 -530 -27 -549q-24 -32 -68 -30q-82 0 -92 76q7 28 22 191t19 422q7 529 -29 547q20 86 88 118q24 12 55 12t63 -36zM697 -240q-315 0 -455 242q-60 101 -60 216v28q10 106 64 181t114 99q82 22 112 -12t26 -90t-12 -102
q-58 38 -114 6t-79 -109t20 -164q84 -168 223 -209q122 -40 264 13t247 172t170 274t74 353t-66 369q-116 266 -337 349q-172 65 -340 -46q-92 -60 -174 -186q-64 -28 -87 25t27 123q199 188 480 188t478 -194q106 -102 167 -254t61 -346v-32q-11 -367 -228 -614
q-80 -90 -176 -154q-199 -126 -399 -126zM747 1788q17 0 23 -2q22 -40 38 -80t46 -76q22 48 70 146q46 10 76 -13t30 -37t-4 -22q-58 -48 -174 -142q-48 44 -89 81t-101 75q0 32 34 51t51 19z" />
    <glyph glyph-name="dcaron" unicode="&#x10f;" horiz-adv-x="1354" 
d="M414 618q-55 32 -112 4q-51 -22 -102 -111t-63 -186q-11 -97 -1 -138t38 -86t78 -17q48 28 97 129t63 347zM436 1093q0 133 -16 179q52 54 114 54q22 0 44 -6q86 -26 86 -106q5 -37 -25 -241q-83 -577 -87 -687q-4 -111 30 -230q16 -54 44 -60q68 -11 128 114
q38 78 63 171t35 131q20 8 39 8t35 -6q-39 -207 -132 -370q-50 -85 -120 -122q-30 -14 -62 -14h-10q-126 13 -186 166q-20 56 -24 80q-10 -18 -59 -82t-135 -85t-134 -1t-89 80t-47 136v40q0 84 15 126t17 54q40 124 120 184q82 58 114 66q128 34 200 0q10 -6 22 -12
q20 300 20 433zM744 1316q0 70 56 94q34 14 48 14q40 0 70 -38q18 -26 18 -76v-16q-2 -38 -34 -121t-80 -105q-6 2 -14 11t-6 19q18 12 41 61t15 83q-42 -18 -78 8t-36 66z" />
    <glyph glyph-name="Dcroat" unicode="&#x110;" horiz-adv-x="1724" 
d="M898 668q0 -28 -20 -52q-98 10 -158 8q-2 -52 -22 -345t-10 -311q-24 -32 -68 -30q-82 0 -92 76q7 28 21 176t19 426h-10q-75 0 -138 6q-52 22 -52 60v10q8 48 66 70q34 -38 136 -32q5 426 -30 444q20 86 88 118q24 12 55 12t63 -36q6 -12 6 -101t-24 -425q60 2 126 0
q40 -30 44 -64v-10zM697 -240q-315 0 -455 242q-60 101 -60 216v28q10 106 64 181t114 99q82 22 112 -12t26 -90t-12 -102q-58 38 -114 6t-79 -109t20 -164q84 -168 223 -209q122 -40 264 13t247 172t170 274t74 353t-66 369q-116 266 -312.5 340t-364.5 -37
q-92 -60 -174 -186q-64 -28 -87 25t27 123q199 188 480 188t478 -194q106 -102 167 -254t61 -346v-32q-11 -367 -228 -614q-80 -90 -176 -154q-199 -126 -399 -126z" />
    <glyph glyph-name="Emacron" unicode="&#x112;" horiz-adv-x="1358" 
d="M645 848q-27 0 -43 -4q2 -2 6 -2q58 -28 62 -6q2 12 -25 12zM840 1058q-28 0 -48 10q-48 20 -56 75t28 85q42 -32 80 -22q46 16 46 91t-54 129q-56 56 -149 56t-159 -82t-75 -212t51 -232q12 -26 26 -46q90 12 160 -12t58 -74q-12 -60 -81 -56t-145 46
q-210 -133 -211 -437q-1 -213 141.5 -379t400.5 -121q202 35 349 253q80 120 126 308q33 9 70 2q-42 -214 -138 -356q-176 -251 -438 -302q-68 -12 -123 -12t-97 4q-202 28 -351 168t-153 366v14q0 174 54 291t129 182t149 89q-143 143 -138 308q10 154 134 252t272 100h8
q107 0 187 -57t107 -142q28 -85 5 -161t-103 -110q-34 -16 -62 -16zM586 1644q-40 0 -70 2q-54 22 -54 50q0 4 2 8q8 34 64 56q38 -42 140 -25t248 13q40 -30 44 -52v-6q0 -20 -18 -44q-28 4 -270 -2h-86z" />
    <glyph glyph-name="emacron" unicode="&#x113;" horiz-adv-x="706" 
d="M166 352q60 36 102 107q74 124 42 207q-16 44 -80 -4q-24 -18 -41 -47q-44 -75 -51 -159t-2 -118q16 4 30 14zM330 -80h-20q-148 10 -229 94q-123 127 -129 306v16q0 48 10 90q32 160 112 220t121 72t79 12t82 -16q74 -30 90 -109t-48 -169q-86 -118 -250 -166
q6 -16 21 -68t48 -101q60 -89 121 -97q99 -4 170 71q112 117 164 349q24 3 72 -2q-16 -76 -61 -197t-136 -213t-217 -92zM126 832q-40 0 -70 2q-54 22 -54 50q0 4 2 8q8 34 64 56q38 -42 140 -25t248 13q40 -30 44 -52v-6q0 -20 -18 -44q-28 4 -270 -2h-86z" />
    <glyph glyph-name="Ebreve" unicode="&#x114;" horiz-adv-x="1358" 
d="M645 848q-27 0 -43 -4q2 -2 6 -2q58 -28 62 -6q2 12 -25 12zM840 1058q-28 0 -48 10q-48 20 -56 75t28 85q42 -32 80 -22q46 16 46 91t-54 129q-56 56 -149 56t-159 -82t-75 -212t51 -232q12 -26 26 -46q90 12 160 -12t58 -74q-12 -60 -81 -56t-145 46
q-210 -133 -211 -437q-1 -213 109 -341q175 -204 433 -159q202 35 349 253q80 120 126 308q33 9 70 2q-42 -214 -138 -356q-176 -251 -438 -302q-68 -12 -123 -12t-97 4q-202 28 -351 168t-153 366v14q0 174 54 291t129 182t149 89q-143 143 -138 308q10 154 134 252
t272 100h8q107 0 187 -57t107 -142q28 -85 5 -161t-103 -110q-34 -16 -62 -16zM882 1786q0 -6 -14 -38t-48 -76t-104 -44t-110 52t-50 84q0 32 34 40q36 8 70 4q2 -28 13 -69t33 -41q40 0 56 42q14 44 14 78q20 4 36 2q70 0 70 -34z" />
    <glyph glyph-name="ebreve" unicode="&#x115;" horiz-adv-x="706" 
d="M166 352q60 36 102 107q74 124 42 207q-16 44 -80 -4q-24 -18 -41 -47q-44 -75 -51 -159t-2 -118q16 4 30 14zM330 -80h-20q-148 10 -229 94q-123 127 -129 306v16q0 48 10 90q32 160 112 220t121 72t79 12t82 -16q74 -30 90 -109t-48 -169q-86 -118 -250 -166
q6 -16 21 -68t48 -101q60 -89 121 -97q99 -4 170 71q112 117 164 349q24 3 72 -2q-16 -76 -61 -197t-136 -213t-217 -92zM418 952q0 -6 -14 -38t-48 -76t-104 -44t-110 52t-50 84q0 32 34 40q36 8 70 4q2 -28 13 -69t33 -41q40 0 56 42q14 44 14 78q20 4 36 2q70 0 70 -34z
" />
    <glyph glyph-name="Edotaccent" unicode="&#x116;" horiz-adv-x="1358" 
d="M645 848q-27 0 -43 -4q2 -2 6 -2q58 -28 62 -6q2 12 -25 12zM840 1058q-28 0 -48 10q-48 20 -56 75t28 85q42 -32 80 -22q46 16 46 91t-54 129q-56 56 -149 56t-159 -82t-75 -212t51 -232q12 -26 26 -46q90 12 160 -12t58 -74q-12 -60 -81 -56t-145 46
q-210 -133 -211 -437q-1 -213 109 -341q175 -204 433 -159q202 35 349 253q80 120 126 308q33 9 70 2q-42 -214 -138 -356q-176 -251 -438 -302q-68 -12 -123 -12t-97 4q-202 28 -351 168t-153 366v14q0 174 54 291t129 182t149 89q-143 143 -138 308q10 154 134 252
t272 100h8q107 0 187 -57t107 -142q28 -85 5 -161t-103 -110q-34 -16 -62 -16zM804 1730q0 -20 -15 -52q-24 -52 -73 -52q-94 0 -102 62q-2 14 -2 34t13 40t7 50q12 14 37 14t53 -6q70 -16 78 -56q4 -14 4 -34z" />
    <glyph glyph-name="edotaccent" unicode="&#x117;" horiz-adv-x="706" 
d="M166 352q60 36 102 107q74 124 42 207q-16 44 -80 -4q-24 -18 -41 -47q-44 -75 -51 -159t-2 -118q16 4 30 14zM330 -80h-20q-148 10 -229 94q-123 127 -129 306v16q0 48 10 90q32 160 112 220t121 72t79 12t82 -16q74 -30 90 -109t-48 -169q-86 -118 -250 -166
q6 -16 21 -68t48 -101q60 -89 121 -97q99 -4 170 71q112 117 164 349q24 3 72 -2q-16 -76 -61 -197t-136 -213t-217 -92zM390 942q0 -20 -15 -52q-24 -52 -73 -52q-94 0 -102 62q-2 14 -2 34t13 40t7 50q12 14 37 14t53 -6q70 -16 78 -56q4 -14 4 -34z" />
    <glyph glyph-name="Eogonek" unicode="&#x118;" horiz-adv-x="1358" 
d="M645 848q-27 0 -43 -4q2 -2 6 -2q58 -28 62 -6q2 12 -25 12zM528 -470v4q0 90 33 135t54 67t33 36q-24 0 -46 2q-202 28 -351 168t-153 366v14q0 174 54 291t129 182t149 89q-143 143 -138 308q10 154 134 252t272 100h8q107 0 187 -57t107 -142q28 -85 5 -161t-103 -110
q-34 -16 -62 -16t-48 10q-48 20 -56 75t28 85q42 -32 80 -22q46 16 46 91t-54 129q-56 56 -149 56t-159 -82t-75 -212t51 -232q12 -26 26 -46q90 12 160 -12t58 -74q-12 -60 -81 -56t-145 46q-210 -133 -211 -437q-1 -213 141.5 -379t400.5 -121q202 35 349 253
q80 120 126 308q33 9 70 2q-42 -214 -138 -356q-176 -251 -438 -302l-32 -4q-28 -32 -62 -68t-66 -83t-37.5 -146.5t69.5 -162.5q47 -43 118 -32q55 13 82 44q81 71 78.5 157.5t-74.5 66.5q-26 30 -24 64t55 25q137 -23 137 -151q0 -34 -26 -93t-98 -105q-65 -40 -144 -40
q-78 0 -134 35q-136 85 -136 241z" />
    <glyph glyph-name="eogonek" unicode="&#x119;" horiz-adv-x="706" 
d="M166 352q60 36 102 107q74 124 42 207q-16 44 -80 -4q-24 -18 -41 -47q-44 -75 -51 -159t-2 -118q16 4 30 14zM118 -312v4q0 90 33 135t54 67t33 36q-96 22 -167 95q-113 116 -119 295v16q0 48 10 90q32 160 112 220t121 72t79 12t82 -16q74 -30 90 -109t-48 -169
q-86 -118 -250 -166q6 -16 21 -68t48 -101q60 -89 121 -97q99 -4 170 71q112 117 164 349q24 3 72 -2q-16 -76 -61 -197t-127 -205t-188 -98q-22 -24 -53 -57t-63 -80t-37.5 -146.5t69.5 -162.5q47 -43 118 -32q55 13 82 44q81 71 78.5 157.5t-74.5 66.5q-26 30 -24 64
t55 25q137 -23 137 -151q0 -34 -26 -93t-98 -105q-65 -40 -144 -40q-78 0 -134 35q-136 85 -136 241z" />
    <glyph glyph-name="Ecaron" unicode="&#x11a;" horiz-adv-x="1358" 
d="M645 848q-27 0 -43 -4q2 -2 6 -2q58 -28 62 -6q2 12 -25 12zM840 1058q-28 0 -48 10q-48 20 -56 75t28 85q42 -32 80 -22q46 16 46 91t-54 129q-56 56 -149 56t-159 -82t-75 -212t51 -232q12 -26 26 -46q90 12 160 -12t58 -74q-12 -60 -81 -56t-145 46
q-210 -133 -211 -437q-1 -213 109 -341q175 -204 433 -159q202 35 349 253q80 120 126 308q33 9 70 2q-42 -214 -138 -356q-176 -251 -438 -302q-68 -12 -123 -12t-97 4q-202 28 -351 168t-153 366v14q0 174 54 291t129 182t149 89q-143 143 -138 308q10 154 134 252
t272 100h8q107 0 187 -57t107 -142q28 -85 5 -161t-103 -110q-34 -16 -62 -16zM611 1826q17 0 23 -2q22 -40 38 -80t46 -76q22 48 70 146q46 10 76 -13t30 -37t-4 -22q-58 -48 -174 -142q-48 44 -89 81t-101 75q0 32 34 51t51 19z" />
    <glyph glyph-name="ecaron" unicode="&#x11b;" horiz-adv-x="706" 
d="M166 352q60 36 102 107q74 124 42 207q-16 44 -80 -4q-24 -18 -41 -47q-44 -75 -51 -159t-2 -118q16 4 30 14zM330 -80h-20q-148 10 -229 94q-123 127 -129 306v16q0 48 10 90q32 160 112 220t121 72t79 12t82 -16q74 -30 90 -109t-48 -169q-86 -118 -250 -166
q6 -16 21 -68t48 -101q60 -89 121 -97q99 -4 170 71q112 117 164 349q24 3 72 -2q-16 -76 -61 -197t-136 -213t-217 -92zM143 1008q17 0 23 -2q22 -40 38 -80t46 -76q22 48 70 146q46 10 76 -13t30 -37t-4 -22q-58 -48 -174 -142q-48 44 -89 81t-101 75q0 32 34 51t51 19z
" />
    <glyph glyph-name="Gcircumflex" unicode="&#x11c;" horiz-adv-x="1488" 
d="M902 -118q-199 -85 -256 -142q-100 -104 -100 -254q4 -122 67 -215t125 -93q68 -2 103 151q46 203 61 525v28zM726 -886q-74 0 -135 60q-99 98 -117 256q-19 125 30 242t166 188q60 38 236 110v52q4 148 2 256v116q-14 -28 -54 -111t-92 -132t-96 -70t-113 -14
q-150 15 -249 122q-158 169 -158 461q0 223 100 434q74 158 202 260q161 132 374 132h18q125 -4 192 -106q58 -84 53 -199t-66 -184t-154 -85t-130 26t5 114q100 -11 170 82q44 60 54 136q12 114 -74 154q-24 12 -60 14q-110 2 -192 -71q-129 -115 -186 -321
q-51 -161 -58 -332q-18 -278 56 -454q46 -116 130 -127t165 103q122 171 173 422q16 80 18 146q30 54 105 34t87 -80q-14 -4 -14 -164q-4 -138 -8 -293t-10 -253q62 30 132 72t135 114t93 182q18 10 33 8t39 -8q-49 -208 -254 -348q-88 -58 -184 -100q-43 -539 -178 -736
q-78 -108 -184 -108h-2zM948 1611q0 -15 -30 -37t-76 -14q-24 48 -70 148q-30 -38 -46 -78t-38 -80h-12q-28 0 -62 18t-34 50q60 38 101 75t89 83l174 -144q4 -6 4 -21z" />
    <glyph glyph-name="gcircumflex" unicode="&#x11d;" horiz-adv-x="878" 
d="M232 -912q58 0 120 748q0 12 2 24q-166 -122 -225 -218q-59 -97 -41 -268q12 -110 52 -198t92 -88zM224 -962q-112 0 -178 100q-70 100 -72 249t90 289q50 74 124 134q76 60 121 90t51 36q14 168 14 248q-31 -78 -96 -134q-64 -56 -139 -67t-143 52t-68 181v28
q10 140 74 264q44 80 106 141t125 73t107 12h32q54 -6 94 -24q72 -34 95 -91t20 -90t-33 -63q-44 -36 -106 -30t-74 52q22 26 47 84t-15 94q-12 10 -34 14q-52 10 -105 -55t-97 -167t-61 -215t25 -142t97 3q91 53 137 162q18 38 24 71t36 44q69 25 132 -17q30 -22 13 -54
t-23 -132t-8 -130q186 124 258 258q30 50 44 112q25 10 72 -2q-37 -175 -214 -324q-78 -64 -166 -120q-25 -283 -41 -392q-17 -110 -43 -224t-80 -215t-138 -103h-4zM522 885q0 -15 -30 -37t-76 -14q-24 48 -70 148q-30 -38 -46 -78t-38 -80h-12q-28 0 -62 18t-34 50
q60 38 101 75t89 83l174 -144q4 -6 4 -21z" />
    <glyph glyph-name="Gbreve" unicode="&#x11e;" horiz-adv-x="1488" 
d="M902 -118q-199 -85 -256 -142q-100 -104 -100 -254q4 -122 67 -215t125 -93q68 -2 103 151q46 203 61 525v28zM726 -886q-74 0 -135 60q-99 98 -117 256q-19 125 30 242t166 188q60 38 236 110v52q4 148 2 256v116q-14 -28 -54 -111t-92 -132t-96 -70t-113 -14
q-150 15 -249 122q-158 169 -158 461q0 223 100 434q74 158 202 260q161 132 374 132h18q125 -4 192 -106q58 -84 53 -199t-66 -184t-154 -85t-130 26t5 114q100 -11 170 82q44 60 54 136q12 114 -74 154q-24 12 -60 14q-110 2 -192 -71q-129 -115 -186 -321
q-51 -161 -58 -332q-18 -278 56 -454q46 -116 130 -127t165 103q122 171 173 422q16 80 18 146q30 54 105 34t87 -80q-14 -4 -14 -164q-4 -138 -8 -293t-10 -253q62 30 132 72t135 114t93 182q18 10 33 8t39 -8q-49 -208 -254 -348q-88 -58 -184 -100q-43 -539 -178 -736
q-78 -108 -184 -108h-2zM958 1704q0 -6 -14 -38t-48 -76t-104 -44t-110 52t-50 84q0 32 34 40q36 8 70 4q2 -28 13 -69t33 -41q40 0 56 42q14 44 14 78q20 4 36 2q70 0 70 -34z" />
    <glyph glyph-name="gbreve" unicode="&#x11f;" horiz-adv-x="878" 
d="M232 -912q58 0 120 748q0 12 2 24q-166 -122 -225 -218q-59 -97 -41 -268q12 -110 52 -198t92 -88zM224 -962q-112 0 -178 100q-70 100 -72 249t90 289q50 74 124 134q76 60 121 90t51 36q14 168 14 248q-31 -78 -96 -134q-64 -56 -139 -67t-143 52t-68 181v28
q10 140 74 264q44 80 106 141t125 73t107 12h32q54 -6 94 -24q72 -34 95 -91t20 -90t-33 -63q-44 -36 -106 -30t-74 52q22 26 47 84t-15 94q-12 10 -34 14q-52 10 -105 -55t-97 -167t-61 -215t25 -142t97 3q91 53 137 162q18 38 24 71t36 44q69 25 132 -17q30 -22 13 -54
t-23 -132t-8 -130q186 124 258 258q30 50 44 112q25 10 72 -2q-37 -175 -214 -324q-78 -64 -166 -120q-25 -283 -41 -392q-17 -110 -43 -224t-80 -215t-138 -103h-4zM508 994q0 -6 -14 -38t-48 -76t-104 -44t-110 52t-50 84q0 32 34 40q36 8 70 4q2 -28 13 -69t33 -41
q40 0 56 42q14 44 14 78q20 4 36 2q70 0 70 -34z" />
    <glyph glyph-name="Gdotaccent" unicode="&#x120;" horiz-adv-x="1488" 
d="M902 -118q-199 -85 -256 -142q-100 -104 -100 -254q4 -122 67 -215t125 -93q68 -2 103 151q46 203 61 525v28zM726 -886q-74 0 -135 60q-99 98 -117 256q-19 125 30 242t166 188q60 38 236 110v52q4 148 2 256v116q-14 -28 -54 -111t-92 -132t-96 -70t-113 -14
q-150 15 -249 122q-158 169 -158 461q0 223 100 434q74 158 202 260q161 132 374 132h18q125 -4 192 -106q58 -84 53 -199t-66 -184t-154 -85t-130 26t5 114q100 -11 170 82q44 60 54 136q12 114 -74 154q-24 12 -60 14q-110 2 -192 -71q-129 -115 -186 -321
q-51 -161 -58 -332q-18 -278 56 -454q46 -116 130 -127t165 103q122 171 173 422q16 80 18 146q30 54 105 34t87 -80q-14 -4 -14 -164q-4 -138 -8 -293t-10 -253q62 30 132 72t135 114t93 182q18 10 33 8t39 -8q-49 -208 -254 -348q-88 -58 -184 -100q-43 -539 -178 -736
q-78 -108 -184 -108h-2zM910 1676q0 -20 -15 -52q-24 -52 -73 -52q-94 0 -102 62q-2 14 -2 34t13 40t7 50q12 14 37 14t53 -6q70 -16 78 -56q4 -14 4 -34z" />
    <glyph glyph-name="gdotaccent" unicode="&#x121;" horiz-adv-x="878" 
d="M232 -912q58 0 120 748q0 12 2 24q-166 -122 -225 -218q-59 -97 -41 -268q12 -110 52 -198t92 -88zM224 -962q-112 0 -178 100q-70 100 -72 249t90 289q50 74 124 134q76 60 121 90t51 36q14 168 14 248q-31 -78 -96 -134q-64 -56 -139 -67t-143 52t-68 181v28
q10 140 74 264q44 80 106 141t125 73t107 12h32q54 -6 94 -24q72 -34 95 -91t20 -90t-33 -63q-44 -36 -106 -30t-74 52q22 26 47 84t-15 94q-12 10 -34 14q-52 10 -105 -55t-97 -167t-61 -215t25 -142t97 3q91 53 137 162q18 38 24 71t36 44q69 25 132 -17q30 -22 13 -54
t-23 -132t-8 -130q186 124 258 258q30 50 44 112q25 10 72 -2q-37 -175 -214 -324q-78 -64 -166 -120q-25 -283 -41 -392q-17 -110 -43 -224t-80 -215t-138 -103h-4zM460 942q0 -20 -15 -52q-24 -52 -73 -52q-94 0 -102 62q-2 14 -2 34t13 40t7 50q12 14 37 14t53 -6
q70 -16 78 -56q4 -14 4 -34z" />
    <glyph glyph-name="Hcircumflex" unicode="&#x124;" horiz-adv-x="1768" 
d="M1226 570q0 20 2 42v44h-44q-172 0 -292 20q-22 -280 -74 -504q-59 -277 -176 -422q-74 -94 -178 -94h-2q-102 0 -173 101t-91 233q-15 73 -4 168q19 176 146 250q58 36 144 38q58 -14 62 -91t-36 -97q-119 49 -178 -28q-62 -73 -48 -242q12 -106 60 -194t120 -88
q28 0 54 28q72 90 121 375t54 618q10 633 -45 649q32 94 114 118q22 6 42 6q50 0 76 -38q28 -67 28 -301q0 -233 -10 -403q22 -2 120 -2t214 12q10 199 44 394q64 373 114 428q22 24 49 24t53 -10q68 -24 64 -122q-46 -12 -79 -150q-50 -210 -69 -544q102 20 132 50
q48 -6 46 -54v-8q-4 -56 -38 -74q-48 -24 -144 -36q0 -30 -2 -143t12 -241q23 -308 104 -312q48 -4 90 76q72 136 128 362q41 10 74 2q-115 -516 -292 -516h-12q-130 14 -192 154q-88 192 -88 522zM1302 1665q0 -15 -30 -37t-76 -14q-24 48 -70 148q-30 -38 -46 -78t-38 -80
h-12q-28 0 -62 18t-34 50q60 38 101 75t89 83l174 -144q4 -6 4 -21z" />
    <glyph glyph-name="hcircumflex" unicode="&#x125;" horiz-adv-x="844" 
d="M358 230q0 126 6 232t-48 110q-56 7 -148 -188q-48 -104 -53 -176t-5 -134t-2 -136q-20 -46 -104 -58q-14 -2 -24 -2q-60 0 -62 52q10 54 27 306t17 556q5 332 -26 370q4 38 64 79t107 30q46 -12 65 -53q7 -63 -5 -226q-13 -162 -19 -256t-18 -217t-12 -143q6 20 50 111
t104 140t109 48t79 -29q53 -57 66 -166t18 -374q2 -102 42 -110q48 -8 92 67q72 123 128 347q14 8 36 7t34 -11q-24 -130 -76 -249t-96 -165q-88 -92 -184 -78q-162 24 -162 316zM510 1401q0 -15 -30 -37t-76 -14q-24 48 -70 148q-30 -38 -46 -78t-38 -80h-12q-28 0 -62 18
t-34 50q60 38 101 75t89 83l174 -144q4 -6 4 -21z" />
    <glyph glyph-name="Itilde" unicode="&#x128;" horiz-adv-x="770" 
d="M468 842v-792q0 -146 -6 -176q-25 -48 -99 -48q-73 0 -122 38t-53 108q17 3 41 127q25 123 51 536t30 616t0 221q3 58 108 58q46 0 76 -20q-24 -24 -24 -492q-2 -86 -2 -176zM620 1752q0 -74 -72 -104q-18 -8 -43 -8t-93 47q-69 47 -91 51q-45 8 -59 -68q-24 10 -34 40
t-10 50q0 81 84 112q10 2 26 2t49 -20t64 -48t57 -32q35 0 52 76q40 -8 58 -52q12 -24 12 -46z" />
    <glyph glyph-name="itilde" unicode="&#x129;" horiz-adv-x="456" 
d="M316 952q0 -74 -72 -104q-18 -8 -43 -8t-93 47q-69 47 -91 51q-45 8 -59 -68q-24 10 -34 40t-10 80t84 82q10 2 26 2t49 -20t64 -48t57 -32q35 0 52 76q40 -8 58 -52q12 -24 12 -46zM-54 218q0 126 28 265t4 175q20 42 104 60q22 6 40 6q48 0 60 -34q-6 -66 -18 -144
t-27 -189t-11 -227t78 -130q46 -8 88 65q75 130 128 343q43 12 72 0q-42 -224 -126 -364q-50 -88 -110 -114q-24 -12 -50 -12h-18q-234 29 -242 274v26z" />
    <glyph glyph-name="Imacron" unicode="&#x12a;" horiz-adv-x="770" 
d="M468 842v-792q0 -146 -6 -176q-25 -48 -99 -48q-73 0 -122 38t-53 108q17 3 41 127q25 123 51 536t30 616t0 221q3 58 108 58q46 0 76 -20q-24 -24 -24 -492q-2 -86 -2 -176zM266 1658q-40 0 -70 2q-54 22 -54 50q0 4 2 8q8 34 64 56q38 -42 140 -25t248 13
q40 -30 44 -52v-6q0 -20 -18 -44q-28 4 -270 -2h-86z" />
    <glyph glyph-name="imacron" unicode="&#x12b;" horiz-adv-x="456" 
d="M-54 218q0 126 28 265t4 175q20 42 104 60q22 6 40 6q48 0 60 -34q-6 -66 -18 -144t-27 -189t-11 -227t78 -130q46 -8 88 65q75 130 128 343q43 12 72 0q-42 -224 -126 -364q-50 -88 -110 -114q-24 -12 -50 -12h-18q-234 29 -242 274v26zM-22 870q-40 0 -70 2
q-54 22 -54 50q0 4 2 8q8 34 64 56q38 -42 140 -25t248 13q40 -30 44 -52v-6q0 -20 -18 -44q-28 4 -270 -2h-86z" />
    <glyph glyph-name="Ibreve" unicode="&#x12c;" horiz-adv-x="770" 
d="M468 842v-792q0 -146 -6 -176q-25 -48 -99 -48q-73 0 -122 38t-53 108q17 3 41 127q25 123 51 536t30 616t0 221q3 58 108 58q46 0 76 -20q-24 -24 -24 -492q-2 -86 -2 -176zM592 1802q0 -6 -14 -38t-48 -76t-104 -44t-110 52t-50 84q0 32 34 40q36 8 70 4q2 -28 13 -69
t33 -41q40 0 56 42q14 44 14 78q20 4 36 2q70 0 70 -34z" />
    <glyph glyph-name="ibreve" unicode="&#x12d;" horiz-adv-x="456" 
d="M254 996q0 -6 -14 -38t-48 -76t-104 -44t-110 52t-50 84q0 32 34 40q36 8 70 4q2 -28 13 -69t33 -41q40 0 56 42q14 44 14 78q20 4 36 2q70 0 70 -34zM-54 218q0 126 28 265t4 175q20 42 104 60q22 6 40 6q48 0 60 -34q-6 -66 -18 -144t-27 -189t-11 -227t78 -130
q46 -8 88 65q75 130 128 343q43 12 72 0q-42 -224 -126 -364q-50 -88 -110 -114q-24 -12 -50 -12h-18q-234 29 -242 274v26z" />
    <glyph glyph-name="Iogonek" unicode="&#x12e;" horiz-adv-x="770" 
d="M468 842v-792q0 -146 -6 -176q-22 -38 -86 -46q-56 -56 -93 -110t-42.5 -153.5t69.5 -162.5q47 -43 118 -32q55 13 82 44q81 71 78.5 157.5t-74.5 66.5q-26 30 -24 64t55 25q137 -23 137 -151q0 -34 -26 -93t-98 -105q-65 -40 -144 -40q-78 0 -134 35q-136 85 -136 241v4
q0 90 33 135t53 66t30 33q-68 41 -72 120q17 3 41 127q25 123 51 536t30 616t0 221q3 58 108 58q46 0 76 -20q-24 -24 -24 -492q-2 -86 -2 -176z" />
    <glyph glyph-name="iogonek" unicode="&#x12f;" horiz-adv-x="456" 
d="M-54 218q0 126 28 265t4 175q20 42 104 60q22 6 40 6q48 0 60 -34q-6 -66 -18 -144t-27 -189t-11 -227t78 -130q46 -8 88 65q75 130 128 343q43 12 72 0q-42 -224 -126 -364q-50 -88 -110 -114q-20 -10 -42 -12q-22 -24 -53 -57t-63 -80t-37.5 -146.5t69.5 -162.5
q47 -43 118 -32q55 13 82 44q81 71 78.5 157.5t-74.5 66.5q-26 30 -24 64t55 25q137 -23 137 -151q0 -34 -26 -93t-98 -105q-65 -40 -144 -40q-78 0 -134 35q-136 85 -136 241v4q0 90 33 135t61 75l42 42q-148 57 -154 252v26z" />
    <glyph glyph-name="Idotaccent" unicode="&#x130;" horiz-adv-x="770" 
d="M468 842v-792q0 -146 -6 -176q-25 -48 -99 -48q-73 0 -122 38t-53 108q17 3 41 127q25 123 51 536t30 616t0 221q3 58 108 58q46 0 76 -20q-24 -24 -24 -492q-2 -86 -2 -176zM506 1778q0 -20 -15 -52q-24 -52 -73 -52q-94 0 -102 62q-2 14 -2 34t13 40t7 50q12 14 37 14
t53 -6q70 -16 78 -56q4 -14 4 -34z" />
    <glyph glyph-name="dotlessi" unicode="&#x131;" horiz-adv-x="456" 
d="M84.5 1230q87.5 0 119.5 -70q14 -32 14 -56t-4 -40q-12 -50 -98 -70q-34 -8 -64 -8t-44 18q8 36 -9 61t-17 59l4 32q11 74 98.5 74zM-54 218q0 126 28 265t4 175q20 42 104 60q22 6 40 6q48 0 60 -34q-6 -66 -18 -144t-27 -189t-11 -227t78 -130q46 -8 88 65
q75 130 128 343q43 12 72 0q-42 -224 -126 -364q-50 -88 -110 -114q-24 -12 -50 -12h-18q-234 29 -242 274v26z" />
    <glyph glyph-name="Jcircumflex" unicode="&#x134;" horiz-adv-x="1320" 
d="M294 1256q-82 0 -142 25t-78 93q-4 14 -4 36t20 56q28 52 102 46q28 -2 21 -25t-29 -29q-24 12 -49 -8t2 -54t142 -14t310 79t320 97q375 114 481 114h10q48 0 88 -36q46 -46 46 -118v-2q0 -74 -44 -90q-52 46 -184 38t-384 -78q-80 -20 -182 -48q-288 -79 -432 -82h-14z
M574 -260q72 0 114 92q72 144 85 514t-25 726q-17 154 -30 180q6 34 70 65t88 31t36 -8q0 -24 21 -204q33 -275 33 -572v-40q-9 -827 -388 -836h-2q-102 2 -182 59t-130 143q-76 130 -80 286v12q2 148 83 232t217 76q32 -7 54 -38q24 -40 12 -94t-42 -70q-117 77 -172 8
q-40 -56 -26 -176t59 -206q94 -180 205 -180zM996 1709q0 -15 -30 -37t-76 -14q-24 48 -70 148q-30 -38 -46 -78t-38 -80h-12q-28 0 -62 18t-34 50q60 38 101 75t89 83l174 -144q4 -6 4 -21z" />
    <glyph glyph-name="jcircumflex" unicode="&#x135;" horiz-adv-x="532" 
d="M242 853q0 -15 -30 -37t-76 -14q-24 48 -70 148q-30 -38 -46 -78t-38 -80h-12q-28 0 -62 18t-34 50q60 38 101 75t89 83l174 -144q4 -6 4 -21zM-170 -892q62 0 94 306q18 200 26 380l-24 -20q-137 -115 -174.5 -274.5t-4.5 -275.5t83 -116zM172 564q-36 -18 -36 -337
q0 -121 -2 -225q90 66 178 136q138 108 182 280q35 14 72 0q-53 -224 -286 -386q-76 -52 -148 -102q-2 -18 -4 -145t-31 -307t-91 -300t-178 -120h-6q-121 4 -168 114q-28 60 -28 122q0 208 122 382q52 74 108 120t96 78v36q4 106 7 391t7 327q15 50 75 50q33 0 81 -33
t50 -81z" />
    <glyph glyph-name="Lacute" unicode="&#x139;" horiz-adv-x="1352" 
d="M376 156q-120 63 -204 2q-38 -30 -47 -75t19 -71q35 -26 112 -9q76 17 114 135zM1366 -346q0 -60 -44 -110t-114 -50h-6q-141 0 -334 188q-98 96 -190 202t-176 180q-93 -149 -229 -168q-137 -18 -209 40q-50 44 -50 108v22q10 78 82 130q88 60 220 42q38 -6 76 -22
q38 146 58 396l20 200q18 156 46 304q63 312 224 432q82 62 204 62h12q136 -4 206 -96q70 -86 62 -210t-76 -205t-158 -85q-58 -4 -106 24t-34 100q104 -11 178 90q46 64 58 148q15 127 -74 168q-26 14 -64 14q-88 2 -134 -105t-69 -243t-49 -359t-57 -398t-97 -317
q104 -68 210 -148l116 -92q60 -44 138 -96t165 -76t147 36q43 -40 48 -100v-6zM892 1674q-26 0 -26 18q6 66 42 146t114 114q20 8 34 8h4q16 0 33 -13t17 -51v-6q-2 -40 -20 -56q-30 -12 -95 -58t-87 -100q-8 -2 -16 -2z" />
    <glyph glyph-name="lacute" unicode="&#x13a;" horiz-adv-x="478" 
d="M-22 1214q21 54 103 54t127 -74q14 -26 18 -62q-4 -82 -35 -331t-35 -433t10 -274t59 -98q79 -14 161 228q29 77 56 184q45 11 72 0q-4 -16 -18 -84t-60 -181t-100 -169q-49 -56 -110 -56h-14q-246 32 -260 412q-2 40 -2 98t6 149t24 253t22 258t-24 126zM62 1370
q-26 0 -26 18q6 66 42 146t114 114q20 8 34 8h4q16 0 33 -13t17 -51v-6q-2 -40 -20 -56q-30 -12 -95 -58t-87 -100q-8 -2 -16 -2z" />
    <glyph glyph-name="Lcaron" unicode="&#x13d;" horiz-adv-x="1352" 
d="M376 156q-120 63 -204 2q-38 -30 -47 -75t19 -71q35 -26 112 -9q76 17 114 135zM1366 -346q0 -60 -44 -110t-114 -50h-6q-141 0 -334 188q-98 96 -190 202t-176 180q-93 -149 -229 -168q-137 -18 -209 40q-50 44 -50 108v22q10 78 82 130q88 60 220 42q38 -6 76 -22
q38 146 58 396l20 200q18 156 46 304q63 312 224 432q82 62 204 62h12q136 -4 206 -96q70 -86 62 -210t-76 -205t-158 -85q-58 -4 -106 24t-34 100q104 -11 178 90q46 64 58 148q15 127 -74 168q-26 14 -64 14q-88 2 -134 -105t-69 -243t-49 -359t-57 -398t-97 -317
q104 -68 210 -148l116 -92q60 -44 138 -96t165 -76t147 36q43 -40 48 -100v-6zM803 1912q17 0 23 -2q22 -40 38 -80t46 -76q22 48 70 146q46 10 76 -13t30 -37t-4 -22q-58 -48 -174 -142q-48 44 -89 81t-101 75q0 32 34 51t51 19z" />
    <glyph glyph-name="lcaron" unicode="&#x13e;" horiz-adv-x="936" 
d="M-22 1214q21 54 103 54t127 -74q14 -26 18 -62q-4 -82 -35 -331t-35 -433t10 -274t59 -98q79 -14 161 228q29 77 56 184q45 11 72 0q-4 -16 -18 -84t-60 -181t-100 -169q-49 -56 -110 -56h-14q-246 32 -260 412q-2 40 -2 98t6 149t24 253t22 258t-24 126zM342 1284
q0 70 56 94q34 14 48 14q40 0 70 -38q18 -26 18 -76v-16q-2 -38 -34 -121t-80 -105q-6 2 -14 11t-6 19q18 12 41 61t15 83q-42 -18 -78 8t-36 66z" />
    <glyph glyph-name="Ldot" unicode="&#x13f;" horiz-adv-x="1352" 
d="M376 156q-120 63 -204 2q-38 -30 -47 -75t19 -71q35 -26 112 -9q76 17 114 135zM1366 -346q0 -60 -44 -110t-114 -50h-6q-141 0 -334 188q-98 96 -190 202t-176 180q-93 -149 -229 -168q-137 -18 -209 40q-50 44 -50 108v22q10 78 82 130q88 60 220 42q38 -6 76 -22
q38 146 58 396l20 200q18 156 46 304q63 312 224 432q82 62 204 62h12q136 -4 206 -96q70 -86 62 -210t-76 -205t-158 -85q-58 -4 -106 24t-34 100q104 -11 178 90q46 64 58 148q15 127 -74 168q-26 14 -64 14q-88 2 -134 -105t-69 -243t-49 -359t-57 -398t-97 -317
q104 -68 210 -148l116 -92q60 -44 138 -96t165 -76t147 36q43 -40 48 -100v-6zM1072 596q0 -20 -14 -52q-22 -50 -74 -50q-20 0 -46 4q-58 14 -58 82q0 28 14 49t8 51q10 14 35 14t53 -8q70 -16 78 -56q4 -14 4 -34z" />
    <glyph glyph-name="ldot" unicode="&#x140;" horiz-adv-x="478" 
d="M-22 1214q21 54 103 54t127 -74q14 -26 18 -62q-4 -82 -35 -331t-35 -433t10 -274t59 -98q79 -14 161 228q29 77 56 184q45 11 72 0q-4 -16 -18 -84t-60 -181t-100 -169q-49 -56 -110 -56h-14q-246 32 -260 412q-2 40 -2 98t6 149t24 253t22 258t-24 126zM472 678
q0 -20 -14 -52q-22 -50 -74 -50q-20 0 -46 4q-58 14 -58 82q0 28 14 49t8 51q10 14 35 14t53 -8q70 -16 78 -56q4 -14 4 -34z" />
    <glyph glyph-name="Lslash" unicode="&#x141;" horiz-adv-x="1352" 
d="M376 156q-120 63 -204 2q-38 -30 -47 -75t19 -71q35 -26 112 -9q76 17 114 135zM1366 -346q0 -60 -44 -110t-114 -50h-6q-141 0 -334 188q-98 96 -190 202t-176 180q-93 -149 -229 -168q-137 -18 -209 40q-50 44 -50 108v22q10 78 82 130q88 60 220 42q38 -6 76 -22
q25 96 50 304q-66 -27 -152 -52q-56 0 -72 36q0 4 -2 10q-8 48 36 88q34 -16 99 9t103 41l16 160q18 156 46 304q63 312 224 432q82 62 204 62h12q136 -4 206 -96q70 -86 62 -210t-76 -205t-158 -85q-58 -4 -106 24t-34 100q104 -11 178 90q46 64 58 148q15 127 -74 168
q-26 14 -64 14q-88 2 -134 -105t-69 -243t-55 -422l-4 -34q32 16 112 46q56 -18 68 -56q10 -26 2 -54q-104 -28 -202 -70l-24 -148q-34 -194 -100 -336q104 -68 210 -148l116 -92q60 -44 138 -96t165 -76t147 36q43 -40 48 -100v-6z" />
    <glyph glyph-name="lslash" unicode="&#x142;" horiz-adv-x="478" 
d="M-50 410v38q-60 -22 -126 -40q-56 0 -72 36q0 4 -2 10q-8 48 36 88q34 -16 128 20q20 8 42 16q13 156 28 285q14 129 18 225t-24 126q21 54 103 54t127 -74q14 -26 18 -62q-4 -82 -20 -208t-28 -250q66 33 154 66q56 -18 68 -56q10 -26 2 -54q-120 -34 -234 -84
q-10 -104 -13 -233q-7 -303 71 -317t160 228q29 77 56 184q45 11 72 0q-4 -16 -18 -84t-60 -181t-100 -169q-49 -56 -110 -56h-14q-246 32 -260 412q-2 40 -2 80z" />
    <glyph glyph-name="Nacute" unicode="&#x143;" horiz-adv-x="1864" 
d="M474 -264q-104 0 -180 72t-98 196q-10 50 -10 103t14 111q42 171 180 194q46 8 84 -5t47 -23q36 -40 3 -110q-24 -48 -42 -40q-73 77 -120 57q-48 -19 -67 -100q-31 -132 21 -265q38 -92 110 -128q128 -54 190 90q72 159 100 534q25 447 -10 764q-18 144 -42 178
q40 64 125 83t121 -27q2 -44 6 -115t3 -216t-3 -173l18 60q141 445 328 522q34 16 59 16q126 0 184 -76q109 -141 100 -414t-49 -500q-14 -92 -32 -210t-27 -221t23 -112q109 -31 218 167q67 127 104 268q22 0 36 2t34 -8q-26 -132 -110 -289q-83 -157 -198 -199
q-48 -18 -104 -6q-110 24 -143 157t-27 301t37 419t39 352t0 189q-10 88 -60 96q-119 21 -250 -226q-116 -240 -162 -430t-56 -264t-37 -237t-78 -282t-111 -184t-146 -71h-22zM1282 1634q-26 0 -26 18q6 66 42 146t114 114q20 8 34 8h4q16 0 33 -13t17 -51v-6
q-2 -40 -20 -56q-30 -12 -95 -58t-87 -100q-8 -2 -16 -2z" />
    <glyph glyph-name="nacute" unicode="&#x144;" 
d="M366 734h4q78 0 124 -114q31 -84 43 -240q13 -156 21 -266t48 -118q48 -8 92 67q72 123 128 347q14 8 36 7t34 -11q-24 -130 -76 -249t-96 -165q-88 -92 -186 -78q-97 14 -146 130q-33 89 -37 236q-3 146 -4 247t-51 105q-32 2 -74 -54q-71 -103 -102 -222
q-14 -46 -12 -103t-10 -301q-18 -48 -82 -50h-6q-60 0 -78 36q14 74 17 257t-25 363q-12 66 -26 94q6 50 66 70q58 22 90 -8q9 -25 25 -112q15 -87 15 -168q10 30 48 109q60 125 158 177q30 14 62 14zM292 824q-26 0 -26 18q6 66 42 146t114 114q20 8 34 8h4q16 0 33 -13
t17 -51v-6q-2 -40 -20 -56q-30 -12 -95 -58t-87 -100q-8 -2 -16 -2z" />
    <glyph glyph-name="Ncaron" unicode="&#x147;" horiz-adv-x="1864" 
d="M474 -264q-104 0 -180 72t-98 196q-10 50 -10 103t14 111q42 171 180 194q46 8 84 -5t47 -23q36 -40 3 -110q-24 -48 -42 -40q-73 77 -120 57q-48 -19 -67 -100q-31 -132 21 -265q38 -92 110 -128q128 -54 190 90q72 159 100 534q25 447 -10 764q-18 144 -42 178
q40 64 125 83t121 -27q2 -44 6 -115t3 -216t-3 -173l18 60q141 445 328 522q34 16 59 16q126 0 184 -76q109 -141 100 -414t-49 -500q-14 -92 -32 -210t-27 -221t23 -112q109 -31 218 167q67 127 104 268q22 0 36 2t34 -8q-26 -132 -110 -289q-83 -157 -198 -199
q-48 -18 -104 -6q-110 24 -143 157t-27 301t37 419t39 352t0 189q-10 88 -60 96q-119 21 -250 -226q-116 -240 -162 -430t-56 -264t-37 -237t-78 -282t-111 -184t-146 -71h-22zM1245 1814q17 0 23 -2q22 -40 38 -80t46 -76q22 48 70 146q46 10 76 -13t30 -37t-4 -22
q-58 -48 -174 -142q-48 44 -89 81t-101 75q0 32 34 51t51 19z" />
    <glyph glyph-name="ncaron" unicode="&#x148;" 
d="M366 734h4q78 0 124 -114q31 -84 43 -240q13 -156 21 -266t48 -118q48 -8 92 67q72 123 128 347q14 8 36 7t34 -11q-24 -130 -76 -249t-96 -165q-88 -92 -186 -78q-97 14 -146 130q-33 89 -37 236q-3 146 -4 247t-51 105q-32 2 -74 -54q-71 -103 -102 -222
q-14 -46 -12 -103t-10 -301q-18 -48 -82 -50h-6q-60 0 -78 36q14 74 17 257t-25 363q-12 66 -26 94q6 50 66 70q58 22 90 -8q9 -25 25 -112q15 -87 15 -168q10 30 48 109q60 125 158 177q30 14 62 14zM241 1022q17 0 23 -2q22 -40 38 -80t46 -76q22 48 70 146q46 10 76 -13
t30 -37t-4 -22q-58 -48 -174 -142q-48 44 -89 81t-101 75q0 32 34 51t51 19z" />
    <glyph glyph-name="Omacron" unicode="&#x14c;" horiz-adv-x="1604" 
d="M948 220q8 20 41 102t72 280t43 402q10 326 -72 448q-30 42 -77 44q-97 4 -157 -120q-54 -106 -65 -278q-17 -263 47 -506q52 -221 162 -362q4 -6 6 -10zM326 583.5q0 -296.5 124 -493.5q80 -130 217 -137t239 185q-130 130 -198 309q-137 359 -96 689q18 154 86 258
q-65 -8 -145 -78q-79 -70 -134 -206q-93 -230 -93 -526.5zM980 1552h6q130 -4 208 -122t103 -296q53 -375 -89 -760q-52 -142 -130 -246l24 -6q145 -33 253 29q107 61 157 144t58 117q24 0 72 -2q-8 -42 -66 -143t-176 -167q-168 -95 -376 -38l-4 -4q-151 -164 -350 -164
h-14q-180 4 -301 120t-177 286t-56 350v10q2 190 65 369q107 304 377 401q84 30 184 30q98 92 232 92zM694 1658q-40 0 -70 2q-54 22 -54 50q0 4 2 8q8 34 64 56q38 -42 140 -25t248 13q40 -30 44 -52v-6q0 -20 -18 -44q-28 4 -270 -2h-86z" />
    <glyph glyph-name="omacron" unicode="&#x14d;" 
d="M458 352q12 102 2 179t-48 69q-53 -16 46 -248zM306 -76q-94 0 -163 35q-191 97 -191 380q0 53 27 145t82 153q104 115 233 115h10q38 -8 40 -34q0 -28 -18 -54q-63 4 -104 -56q-78 -116 -68 -332q6 -114 46 -204t112 -88q54 2 94 120q18 56 32 114l-14 20
q-62 92 -94 204q-46 172 35 247q25 23 65 31q118 30 166 -67q70 -141 20 -355q-14 -62 -36 -118q51 -34 104 -6q95 48 138 240q24 0 74 -2q-8 -40 -38 -119t-75 -123q-87 -85 -175 -78q-30 2 -60 20q-98 -185 -238 -188h-4zM210 874q-40 0 -70 2q-54 22 -54 50q0 4 2 8
q8 34 64 56q38 -42 140 -25t248 13q40 -30 44 -52v-6q0 -20 -18 -44q-28 4 -270 -2h-86z" />
    <glyph glyph-name="Obreve" unicode="&#x14e;" horiz-adv-x="1604" 
d="M948 220q8 20 41 102t72 280t43 402q10 326 -72 448q-30 42 -77 44q-97 4 -157 -120q-54 -106 -65 -278q-17 -263 47 -506q52 -221 162 -362q4 -6 6 -10zM326 583q0 -297 124 -493q80 -130 217 -137t239 185q-130 130 -198 309q-137 359 -96 689q18 154 86 258
q-65 -8 -145 -78q-79 -70 -134 -206q-93 -230 -93 -527zM980 1552h6q130 -4 208 -122t103 -296q53 -375 -89 -760q-52 -142 -130 -246l24 -6q145 -33 253 29q107 61 157 144t58 117q24 0 72 -2q-8 -42 -66 -143t-176 -167q-168 -95 -376 -38l-4 -4q-151 -164 -350 -164h-14
q-180 4 -301 120t-177 286t-56 350v10q2 190 65 369q107 304 377 401q84 30 184 30q98 92 232 92zM1028 1828q0 -6 -14 -38t-48 -76t-104 -44t-110 52t-50 84q0 32 34 40q36 8 70 4q2 -28 13 -69t33 -41q40 0 56 42q14 44 14 78q20 4 36 2q70 0 70 -34z" />
    <glyph glyph-name="obreve" unicode="&#x14f;" 
d="M458 352q12 102 2 179t-48 69q-53 -16 46 -248zM306 -76q-94 0 -163 35q-191 97 -191 380q0 53 27 145t82 153q104 115 233 115h10q38 -8 40 -34q0 -28 -18 -54q-63 4 -104 -56q-78 -116 -68 -332q6 -114 46 -204t112 -88q54 2 94 120q18 56 32 114l-14 20
q-62 92 -94 204q-46 172 35 247q25 23 65 31q118 30 166 -67q70 -141 20 -355q-14 -62 -36 -118q51 -34 104 -6q95 48 138 240q24 0 74 -2q-8 -40 -38 -119t-75 -123q-87 -85 -175 -78q-30 2 -60 20q-98 -185 -238 -188h-4zM492 1022q0 -6 -14 -38t-48 -76t-104 -44t-110 52
t-50 84q0 32 34 40q36 8 70 4q2 -28 13 -69t33 -41q40 0 56 42q14 44 14 78q20 4 36 2q70 0 70 -34z" />
    <glyph glyph-name="Ohungarumlaut" unicode="&#x150;" horiz-adv-x="1604" 
d="M948 220q8 20 41 102t72 280t43 402q10 326 -72 448q-30 42 -77 44q-97 4 -157 -120q-54 -106 -65 -278q-17 -263 47 -506q52 -221 162 -362q4 -6 6 -10zM326 583q0 -297 124 -493q80 -130 217 -137t239 185q-130 130 -198 309q-137 359 -96 689q18 154 86 258
q-65 -8 -145 -78q-79 -70 -134 -206q-93 -230 -93 -527zM980 1552h6q130 -4 208 -122t103 -296q53 -375 -89 -760q-52 -142 -130 -246l24 -6q145 -33 253 29q107 61 157 144t58 117q24 0 72 -2q-8 -42 -66 -143t-176 -167q-168 -95 -376 -38l-4 -4q-151 -164 -350 -164h-14
q-180 4 -301 120t-177 286t-56 350v10q2 190 65 369q107 304 377 401q84 30 184 30q98 92 232 92zM925 1614q-13 0 -17 10q-2 66 0 148t-4 144q26 0 74 2h8q42 2 54 -20q-2 -36 -35 -123t-43 -147q-24 -14 -37 -14zM790 1926q42 0 56 -20q-4 -36 -37 -123t-43 -147
q-28 -20 -40 -14q-10 0 -14 10q0 64 2 147t-6 145q26 0 74 2h8z" />
    <glyph glyph-name="ohungarumlaut" unicode="&#x151;" 
d="M458 352q12 102 2 179t-48 69q-53 -16 46 -248zM306 -76q-94 0 -163 35q-191 97 -191 380q0 53 27 145t82 153q104 115 233 115h10q38 -8 40 -34q0 -28 -18 -54q-63 4 -104 -56q-78 -116 -68 -332q6 -114 46 -204t112 -88q54 2 94 120q18 56 32 114l-14 20
q-62 92 -94 204q-46 172 35 247q25 23 65 31q118 30 166 -67q70 -141 20 -355q-14 -62 -36 -118q51 -34 104 -6q95 48 138 240q24 0 74 -2q-8 -40 -38 -119t-75 -123q-87 -85 -175 -78q-30 2 -60 20q-98 -185 -238 -188h-4zM441 810q-13 0 -17 10q-2 66 0 148t-4 144
q26 0 74 2h8q42 2 54 -20q-2 -36 -35 -123t-43 -147q-24 -14 -37 -14zM306 1122q42 0 56 -20q-4 -36 -37 -123t-43 -147q-28 -20 -40 -14q-10 0 -14 10q0 64 2 147t-6 145q26 0 74 2h8z" />
    <glyph glyph-name="OE" unicode="&#x152;" horiz-adv-x="2246" 
d="M1576 936q2 12 -58 4q54 -26 58 -4zM1282 966v-20q32 20 68 32q-4 4 -24 22t-46 60q2 -48 2 -94zM950 320q117 332 127.5 689t-73.5 469q-28 42 -70 44q-126 6 -183 -145t-53 -332t45 -345q64 -255 207 -380zM300 526.5q0 -213.5 122 -408.5q80 -130 216 -138
q163 -6 280 260l-4 4q-156 104 -248 338q-127 312 -87 607q19 141 79 233q-60 -16 -110 -60q-183 -158 -234 -518q-14 -104 -14 -317.5zM94 678v8q2 190 66 369t202 303t350 128q96 91 238 94h10q132 -4 212 -130q30 -48 54 -108q26 102 116 174q120 92 260 96h8
q155 0 238 -114.5t54.5 -208t-106.5 -127.5q-32 -14 -89 -14t-67 66t24 96q47 -32 78 -20q44 14 44 85t-52 125q-57 52 -144 52q-88 0 -150 -78q-62 -80 -69 -173q-13 -174 73 -297q86 12 151 -10t54 -74t-76 -49t-137 43q-118 -63 -176 -238q-28 -86 -27 -201
q2 -212 117 -341q116 -128 275 -150t303 76q212 142 292 494q34 11 66 4q-38 -212 -130 -353q-164 -251 -416 -307q-70 -14 -123 -14q-254 0 -427 168q-68 66 -106 152q-185 -282 -442 -282h-12q-174 4 -323 140.5t-197 425.5q-16 94 -16 190z" />
    <glyph glyph-name="oe" unicode="&#x153;" horiz-adv-x="1188" 
d="M414 498q-6 114 -52 102q-24 -8 -21 -50q6 -82 71 -184q4 68 2 132zM616 411q0 -59 2 -75q80 30 134 122q42 70 50 117t-8 91q-18 44 -80 -4q-26 -18 -42 -47t-36 -87t-20 -117zM258 -76q-96 0 -165 35q-189 96 -189 355q0 78 27 171t82 153q104 114 231 114h12
q36 -8 38 -35t-16 -53q-78 6 -120 -81q-79 -163 -44 -385q23 -150 92 -196q26 -18 56 -18q46 2 81 85t53 185q-121 121 -140 276q-8 98 46 152q30 28 78 38q120 30 168 -68q2 -6 4 -10q2 2 6 4q80 60 121 72t79 12t80 -16q76 -30 91 -112t-49 -168q-88 -118 -250 -166
q6 -16 21 -67t48 -100q63 -93 119 -97q97 -7 180 76q110 120 158 344q25 4 70 -2q-14 -76 -59 -198t-139 -215t-214 -89h-20q-148 8 -230 94q-42 42 -70 88q-93 -172 -232 -178h-4z" />
    <glyph glyph-name="Racute" unicode="&#x154;" horiz-adv-x="1380" 
d="M374 548l10 92q-74 -2 -76 -53t64 -63zM250 576q0 58 52 92q31 20 86 26q17 134 31 363q15 229 11 249q26 54 80 54h18q68 -10 82 -54q-24 -16 -68 -654q20 -14 42 -30q24 -22 46 -46q385 100 354 404q-14 148 -70 249t-132 157q-94 66 -204 66t-210 -67t-156 -197
t-6 -211t128 -43q6 -42 8 -94t-27 -83t-107 -9q-84 40 -132 176q-18 50 -18 126t50 186q70 162 232 222q110 42 195 42t159 -12t161 -53q175 -82 263 -247q54 -108 54 -202q0 -236 -212 -360q-122 -74 -282 -106q130 -165 258 -536q38 -110 67 -195t68 -192t90 -199t106 -95
t102 51q68 78 29 140q-10 16 -28 28q12 38 36 65t64 11q32 -36 34 -84v-14q2 -42 -14 -82q-26 -72 -88 -124t-134 -52h-6q-280 5 -440 456q-71 204 -114 366q-42 162 -73 258t-75 180q-14 -4 -30 -8q-44 -560 -54 -598q-26 -16 -58 -16t-68 16q-72 36 -80 112q36 18 96 468
q-6 0 -12 2q-94 8 -104 78v20zM624 1610q-26 0 -26 18q6 66 42 146t114 114q20 8 34 8h4q16 0 33 -13t17 -51v-6q-2 -40 -20 -56q-30 -12 -95 -58t-87 -100q-8 -2 -16 -2z" />
    <glyph glyph-name="racute" unicode="&#x155;" horiz-adv-x="704" 
d="M-40 398l46 220q-44 22 -70 60t-26 72v4q0 60 25 101t59 41t61 -31t33 -92t4 -89q70 0 155 16t119 4t44 -28t-4 -105t-8 -231t28 -238t52 -100q65 -6 142 226q26 83 50 180q45 11 72 0q-26 -140 -76 -263t-102 -183t-97 -60q-99 0 -180 54t-90 115t-9 166t19 220t5 127
l-72 12q-46 10 -62 10q-6 -20 -20 -91t-26 -119q-21 -3 -72 2zM196 858q-26 0 -26 18q6 66 42 146t114 114q20 8 34 8h4q16 0 33 -13t17 -51v-6q-2 -40 -20 -56q-30 -12 -95 -58t-87 -100q-8 -2 -16 -2z" />
    <glyph glyph-name="Rcaron" unicode="&#x158;" horiz-adv-x="1380" 
d="M374 548l10 92q-74 -2 -76 -53t64 -63zM250 576q0 58 52 92q31 20 86 26q17 134 31 363q15 229 11 249q26 54 80 54h18q68 -10 82 -54q-24 -16 -68 -654q20 -14 42 -30q24 -22 46 -46q385 100 354 404q-14 148 -70 249t-132 157q-94 66 -204 66t-210 -67t-156 -197
t-6 -211t128 -43q6 -42 8 -94t-27 -83t-107 -9q-84 40 -132 176q-18 50 -18 126t50 186q70 162 232 222q110 42 195 42t159 -12t161 -53q175 -82 263 -247q54 -108 54 -202q0 -236 -212 -360q-122 -74 -282 -106q130 -165 258 -536q38 -110 67 -195t68 -192t90 -199t106 -95
t102 51q68 78 29 140q-10 16 -28 28q12 38 36 65t64 11q32 -36 34 -84v-14q2 -42 -14 -82q-26 -72 -88 -124t-134 -52h-6q-280 5 -440 456q-71 204 -114 366q-42 162 -73 258t-75 180q-14 -4 -30 -8q-44 -560 -54 -598q-26 -16 -58 -16t-68 16q-72 36 -80 112q36 18 96 468
q-6 0 -12 2q-94 8 -104 78v20zM535 1834q17 0 23 -2q22 -40 38 -80t46 -76q22 48 70 146q46 10 76 -13t30 -37t-4 -22q-58 -48 -174 -142q-48 44 -89 81t-101 75q0 32 34 51t51 19z" />
    <glyph glyph-name="rcaron" unicode="&#x159;" horiz-adv-x="704" 
d="M-40 398l46 220q-44 22 -70 60t-26 72v4q0 60 25 101t59 41t61 -31t33 -92t4 -89q70 0 155 16t119 4t44 -28t-4 -105t-8 -231t28 -238t52 -100q65 -6 142 226q26 83 50 180q45 11 72 0q-26 -140 -76 -263t-102 -183t-97 -60q-99 0 -180 54t-90 115t-9 166t19 220t5 127
l-72 12q-46 10 -62 10q-6 -20 -20 -91t-26 -119q-21 -3 -72 2zM111 1114q17 0 23 -2q22 -40 38 -80t46 -76q22 48 70 146q46 10 76 -13t30 -37t-4 -22q-58 -48 -174 -142q-48 44 -89 81t-101 75q0 32 34 51t51 19z" />
    <glyph glyph-name="Sacute" unicode="&#x15a;" horiz-adv-x="1394" 
d="M470 1084q0 -109 100 -200q82 -82 205 -152q266 -151 369 -332q50 -86 50 -205t-38 -204q-127 -283 -504 -283q-72 0 -160 15t-173 84t-142 172t-57 229q0 26 2 50q14 154 160 236q86 18 116 -64t0 -164q-90 34 -113 -60q-33 -134 55 -278q41 -71 112 -112q36 -20 78 -28
q108 -22 208 19q158 65 222 239q20 60 24 143t-51 154t-123 123t-128 93t-142 104t-162 169q-78 106 -73 256t87 246q142 166 365 166t335 -136q133 -159 86 -360q-16 -68 -56 -130q-74 -58 -157 -17t-89 117q92 22 140 92q42 71 30 147q-12 75 -64 136t-140 77
q-148 28 -260 -60t-112 -282zM704 1592q-26 0 -26 18q6 66 42 146t114 114q20 8 34 8h4q16 0 33 -13t17 -51v-6q-2 -40 -20 -56q-30 -12 -95 -58t-87 -100q-8 -2 -16 -2z" />
    <glyph glyph-name="sacute" unicode="&#x15b;" horiz-adv-x="698" 
d="M218 12q-56 -20 -76 -66t8 -58q34 -14 54 64q8 30 14 60zM-96 752q0 46 24 70q27 38 68 38h6q72 -6 84 -70q10 -64 0 -146q70 -35 153 -106q197 -167 219 -328q0 -12 2 -24q70 42 129 101t73 125q44 12 74 2q-15 -93 -100 -175q-86 -81 -172 -131q-7 -116 -46 -180
q-67 -114 -208 -114q-46 0 -82 16q-66 26 -66 82t47 106t121 74q14 87 -17 185q-31 99 -74 170t-75 93q-6 -20 -11 -62t-19 -90q-22 -6 -72 0q41 177 42 190q-100 77 -100 174zM32 978q-26 0 -26 18q6 66 42 146t114 114q20 8 34 8h4q16 0 33 -13t17 -51v-6q-2 -40 -20 -56
q-30 -12 -95 -58t-87 -100q-8 -2 -16 -2z" />
    <glyph glyph-name="Scircumflex" unicode="&#x15c;" horiz-adv-x="1394" 
d="M470 1084q0 -109 100 -200q82 -82 205 -152q266 -151 369 -332q50 -86 50 -205t-38 -204q-127 -283 -504 -283q-72 0 -160 15t-173 84t-142 172t-57 229q0 26 2 50q14 154 160 236q86 18 116 -64t0 -164q-90 34 -113 -60q-33 -134 55 -278q41 -71 112 -112q36 -20 78 -28
q108 -22 208 19q158 65 222 239q20 60 24 143t-51 154t-123 123t-128 93t-142 104t-162 169q-78 106 -73 256t87 246q142 166 365 166t335 -136q133 -159 86 -360q-16 -68 -56 -130q-74 -58 -157 -17t-89 117q92 22 140 92q42 71 30 147q-12 75 -64 136t-140 77
q-148 28 -260 -60t-112 -282zM962 1677q0 -15 -30 -37t-76 -14q-24 48 -70 148q-30 -38 -46 -78t-38 -80h-12q-28 0 -62 18t-34 50q60 38 101 75t89 83l174 -144q4 -6 4 -21z" />
    <glyph glyph-name="scircumflex" unicode="&#x15d;" horiz-adv-x="698" 
d="M218 12q-56 -20 -76 -66t8 -58q34 -14 54 64q8 30 14 60zM-96 752q0 46 24 70q27 38 68 38h6q72 -6 84 -70q10 -64 0 -146q70 -35 153 -106q197 -167 219 -328q0 -12 2 -24q70 42 129 101t73 125q44 12 74 2q-15 -93 -100 -175q-86 -81 -172 -131q-7 -116 -46 -180
q-67 -114 -208 -114q-46 0 -82 16q-66 26 -66 82t47 106t121 74q14 87 -17 185q-31 99 -74 170t-75 93q-6 -20 -11 -62t-19 -90q-22 -6 -72 0q41 177 42 190q-100 77 -100 174zM244 1013q0 -15 -30 -37t-76 -14q-24 48 -70 148q-30 -38 -46 -78t-38 -80h-12q-28 0 -62 18
t-34 50q60 38 101 75t89 83l174 -144q4 -6 4 -21z" />
    <glyph glyph-name="Scaron" unicode="&#x160;" horiz-adv-x="1394" 
d="M470 1084q0 -109 100 -200q82 -82 205 -152q266 -151 369 -332q50 -86 50 -205t-38 -204q-127 -283 -504 -283q-72 0 -160 15t-173 84t-142 172t-57 229q0 26 2 50q14 154 160 236q86 18 116 -64t0 -164q-90 34 -113 -60q-33 -134 55 -278q41 -71 112 -112q36 -20 78 -28
q108 -22 208 19q158 65 222 239q20 60 24 143t-51 154t-123 123t-128 93t-142 104t-162 169q-78 106 -73 256t87 246q142 166 365 166t335 -136q133 -159 86 -360q-16 -68 -56 -130q-74 -58 -157 -17t-89 117q92 22 140 92q42 71 30 147q-12 75 -64 136t-140 77
q-148 28 -260 -60t-112 -282zM671 1812q17 0 23 -2q22 -40 38 -80t46 -76q22 48 70 146q46 10 76 -13t30 -37t-4 -22q-58 -48 -174 -142q-48 44 -89 81t-101 75q0 32 34 51t51 19z" />
    <glyph glyph-name="scaron" unicode="&#x161;" horiz-adv-x="698" 
d="M218 12q-56 -20 -76 -66t8 -58q34 -14 54 64q8 30 14 60zM-96 752q0 46 24 70q27 38 68 38h6q72 -6 84 -70q10 -64 0 -146q70 -35 153 -106q197 -167 219 -328q0 -12 2 -24q70 42 129 101t73 125q44 12 74 2q-15 -93 -100 -175q-86 -81 -172 -131q-7 -116 -46 -180
q-67 -114 -208 -114q-46 0 -82 16q-66 26 -66 82t47 106t121 74q14 87 -17 185q-31 99 -74 170t-75 93q-6 -20 -11 -62t-19 -90q-22 -6 -72 0q41 177 42 190q-100 77 -100 174zM1 1114q17 0 23 -2q22 -40 38 -80t46 -76q22 48 70 146q46 10 76 -13t30 -37t-4 -22
q-58 -48 -174 -142q-48 44 -89 81t-101 75q0 32 34 51t51 19z" />
    <glyph glyph-name="Tcaron" unicode="&#x164;" horiz-adv-x="1478" 
d="M880 -106q-93 0 -136 76q-18 28 -18 66q73 0 104 846q9 387 2 424q20 24 53 43t59 19t44 -4q-8 -24 -6 -200l10 -1054v-112q-2 -44 -4 -60q-36 -40 -98 -44h-10zM360 1310q-78 0 -137 6q-143 15 -177 108q-4 14 -4 37t14 55q26 52 100 48q28 0 22 -23t-28 -31
q-24 16 -47 -7t-1 -56t168 -12q207 29 733 163q527 134 653 140h8q48 0 76 -28q46 -42 46 -114v-2q-2 -72 -40 -96q-81 54 -444 -23q-156 -33 -324 -67q-459 -98 -618 -98zM761 1872q17 0 23 -2q22 -40 38 -80t46 -76q22 48 70 146q46 10 76 -13t30 -37t-4 -22
q-58 -48 -174 -142q-48 44 -89 81t-101 75q0 32 34 51t51 19z" />
    <glyph glyph-name="tcaron" unicode="&#x165;" horiz-adv-x="1052" 
d="M452 1126v-10q-6 -56 -48 -77t-115 -33t-109 -18q-14 -126 -15 -271q-5 -687 111 -713q57 -11 114 38q74 68 138 260q25 90 30 110q16 4 37 4t35 -4q-28 -138 -84 -254q-73 -161 -184 -214q-36 -16 -63 -16q-127 0 -195 65t-102 155q-52 138 -52 396v48q2 78 7 156t8 128
t5 76q-32 -8 -77 -19t-69 -27h-4q-18 0 -18 36v4q0 38 16 46q34 16 146 44l12 2q2 48 3 117t-27 101q16 44 80 52h20q84 0 130 -74q14 -24 18 -60q-6 -34 -10 -76q165 42 198 84q64 -6 64 -56zM478 1316q0 70 56 94q34 14 48 14q40 0 70 -38q18 -26 18 -76v-16
q-2 -38 -34 -121t-80 -105q-6 2 -14 11t-6 19q18 12 41 61t15 83q-42 -18 -78 8t-36 66z" />
    <glyph glyph-name="Utilde" unicode="&#x168;" horiz-adv-x="1854" 
d="M640 696q164 261 220 562q38 184 -10 256q-16 26 -44 30q-84 15 -134 -300q-32 -243 -32 -548zM786 1594q104 0 138 -94q50 -127 2 -342q-71 -330 -280 -598l4 -62q23 -332 96 -450q26 -42 60 -44q76 -4 144 60q127 127 218 381t107 414q38 367 53 555q22 36 71 40
q92 7 149 -50q24 -24 32 -54q-30 -32 -51 -214q-41 -355 -27 -753q14 -397 80 -397q58 -4 103 71q72 119 113 279q16 54 24 84q22 0 68 -2q-8 -46 -42 -158q-65 -214 -172 -312q-42 -40 -92 -40h-8q-86 7 -151 84q-128 150 -163 464q-2 36 -2 56q-6 -31 -39 -122
q-122 -339 -301 -436q-54 -28 -114 -24q-110 8 -197 123t-139 349q-127 -76 -231 -53q-105 23 -157 99q-28 48 -28 88t10 72q26 84 110 86q32 -10 45 -37t7 -37q-48 -18 -70 -72t1 -97t77 -55q106 -22 210 64q6 6 14 12v6q-47 314 9 648t215 436q48 32 104 32zM1330 1670
q0 -74 -72 -104q-18 -8 -43 -8t-93 47q-69 47 -91 51q-45 8 -59 -68q-24 10 -34 40t-10 50q0 81 84 112q10 2 26 2t49 -20t64 -48t57 -32q35 0 52 76q40 -8 58 -52q12 -24 12 -46z" />
    <glyph glyph-name="utilde" unicode="&#x169;" horiz-adv-x="924" 
d="M23 726q35 0 77 -18t62 -58q-2 -62 -10 -135t-18 -175t-5 -204t61 -104q100 -4 158 155t78 403q17 46 54 58q50 20 110 -11t62 -71q-41 -59 -50 -268q-8 -108 3 -202t47 -104q42 -10 86 56q73 109 128 280q20 64 24 88q16 -2 34 -2h34q-19 -123 -87 -281t-163 -197
q-26 -12 -66 -12t-76 25q-88 61 -112 167q-16 62 -22 92q-10 -20 -38 -85q-47 -110 -144 -167q-36 -20 -86 -21q-99 -2 -152 99q-41 75 -52 222q-12 146 -8 259t-16 143q8 26 30 47t57 21zM510 884q0 -74 -72 -104q-18 -8 -43 -8t-93 47q-69 47 -91 51q-45 8 -59 -68
q-24 10 -34 40t-10 50q0 80 84 112q10 2 26 2t49 -20t64 -48t57 -32q35 0 52 76q40 -8 58 -52q12 -24 12 -46z" />
    <glyph glyph-name="Umacron" unicode="&#x16a;" horiz-adv-x="1854" 
d="M640 696q164 261 220 562q38 184 -10 256q-16 26 -44 30q-84 15 -134 -300q-32 -243 -32 -548zM786 1594q104 0 138 -94q50 -127 2 -342q-71 -330 -280 -598l4 -62q23 -332 72.5 -412t83.5 -82q76 -4 144 60q127 127 218 381t107 414q38 367 53 555q22 36 71 40
q92 7 149 -50q24 -24 32 -54q-30 -32 -51 -214q-41 -355 -27 -753q14 -397 80 -397q58 -4 103 71q72 119 113 279q16 54 24 84q22 0 68 -2q-8 -46 -57.5 -209t-156.5 -261q-42 -40 -92 -40h-8q-86 7 -151 84q-128 150 -163 464q-2 36 -2 56q-6 -31 -39 -122
q-122 -339 -301 -436q-54 -28 -114 -24q-110 8 -197 123t-139 349q-127 -76 -231 -53q-105 23 -157 99q-28 48 -28 88t10 72q26 84 110 86q32 -10 45 -37t7 -37q-48 -18 -70 -72t1 -97t77 -55q106 -22 210 64q6 6 14 12v6q-47 314 9 648t215 436q48 32 104 32zM1020 1638
q-40 0 -70 2q-54 22 -54 50q0 4 2 8q8 34 64 56q38 -42 140 -25t248 13q40 -30 44 -52v-6q0 -20 -18 -44q-28 4 -270 -2h-86z" />
    <glyph glyph-name="umacron" unicode="&#x16b;" horiz-adv-x="924" 
d="M23 726q35 0 77 -18t62 -58q-2 -62 -10 -135t-18 -175t-5 -204t61 -104q100 -4 158 155t78 403q17 46 54 58q50 20 110 -11t62 -71q-41 -59 -50 -268q-8 -108 3 -202t47 -104q42 -10 100.5 77.5t113.5 258.5q20 64 24 88q16 -2 34 -2h34q-19 -123 -87 -281t-163 -197
q-26 -12 -66 -12t-76 25q-88 61 -112 167q-16 62 -22 92q-10 -20 -38 -85q-47 -110 -144 -167q-36 -20 -86 -21q-99 -2 -152 99q-41 75 -52 222q-12 146 -8 259t-16 143q8 26 30 47t57 21zM218 820q-40 0 -70 2q-54 22 -54 50q0 4 2 8q8 34 64 56q38 -42 140 -25t248 13
q40 -30 44 -52v-6q0 -20 -18 -44q-28 4 -270 -2h-86z" />
    <glyph glyph-name="Ubreve" unicode="&#x16c;" horiz-adv-x="1854" 
d="M640 696q164 261 220 562q38 184 -10 256q-16 26 -44 30q-84 15 -134 -300q-32 -243 -32 -548zM786 1594q104 0 138 -94q50 -127 2 -342q-71 -330 -280 -598l4 -62q23 -332 96 -450q26 -42 60 -44q76 -4 144 60q127 127 218 381t107 414q38 367 53 555q22 36 71 40
q92 7 149 -50q24 -24 32 -54q-30 -32 -51 -214q-41 -355 -27 -753q14 -397 80 -397q58 -4 103 71q72 119 113 279q16 54 24 84q22 0 68 -2q-8 -46 -42 -158q-65 -214 -172 -312q-42 -40 -92 -40h-8q-86 7 -151 84q-128 150 -163 464q-2 36 -2 56q-6 -31 -39 -122
q-122 -339 -301 -436q-54 -28 -114 -24q-110 8 -197 123t-139 349q-127 -76 -231 -53q-105 23 -157 99q-28 48 -28 88t10 72q26 84 110 86q32 -10 45 -37t7 -37q-48 -18 -70 -72t1 -97t77 -55q106 -22 210 64q6 6 14 12v6q-47 314 9 648t215 436q48 32 104 32zM1288 1746
q0 -6 -14 -38t-48 -76t-104 -44t-110 52t-50 84q0 32 34 40q36 8 70 4q2 -28 13 -69t33 -41q40 0 56 42q14 44 14 78q20 4 36 2q70 0 70 -34z" />
    <glyph glyph-name="ubreve" unicode="&#x16d;" horiz-adv-x="924" 
d="M23 726q35 0 77 -18t62 -58q-2 -62 -10 -135t-18 -175t-5 -204t61 -104q100 -4 158 155t78 403q17 46 54 58q50 20 110 -11t62 -71q-41 -59 -50 -268q-8 -108 3 -202t47 -104q42 -10 86 56q73 109 128 280q20 64 24 88q16 -2 34 -2h34q-19 -123 -87 -281t-163 -197
q-26 -12 -66 -12t-76 25q-88 61 -112 167q-16 62 -22 92q-10 -20 -38 -85q-47 -110 -144 -167q-36 -20 -86 -21q-99 -2 -152 99q-41 75 -52 222q-12 146 -8 259t-16 143q8 26 30 47t57 21zM480 932q0 -6 -14 -38t-48 -76t-104 -44t-110 52t-50 84q0 32 34 40q36 8 70 4
q2 -28 13 -69t33 -41q40 0 56 42q14 44 14 78q20 4 36 2q70 0 70 -34z" />
    <glyph glyph-name="Uring" unicode="&#x16e;" horiz-adv-x="1854" 
d="M640 696q164 261 220 562q38 184 -10 256q-16 26 -44 30q-84 15 -134 -300q-32 -243 -32 -548zM786 1594q104 0 138 -94q50 -127 2 -342q-71 -330 -280 -598l4 -62q23 -332 72.5 -412t83.5 -82q76 -4 144 60q127 127 218 381t107 414q38 367 53 555q22 36 71 40
q92 7 149 -50q24 -24 32 -54q-30 -32 -51 -214q-41 -355 -27 -753q14 -397 80 -397q58 -4 103 71q72 119 113 279q16 54 24 84q22 0 68 -2q-8 -46 -57.5 -209t-156.5 -261q-42 -40 -92 -40h-8q-86 7 -151 84q-128 150 -163 464q-2 36 -2 56q-6 -31 -39 -122
q-122 -339 -301 -436q-54 -28 -114 -24q-110 8 -197 123t-139 349q-127 -76 -231 -53q-105 23 -157 99q-28 48 -28 88t10 72q26 84 110 86q32 -10 45 -37t7 -37q-48 -18 -70 -72t1 -97t77 -55q106 -22 210 64q6 6 14 12v6q-47 314 9 648t215 436q48 32 104 32zM1310 1756
q0 -6 -14 -38t-48 -76t-104 -44t-110 52t-50 84q0 32 34 40q36 8 70 4q2 -28 13 -69t33 -41q40 0 56 42q14 44 14 78q20 4 36 2q70 0 70 -34z" />
    <glyph glyph-name="uring" unicode="&#x16f;" horiz-adv-x="924" 
d="M23 726q35 0 77 -18t62 -58q-2 -62 -10 -135t-18 -175t-5 -204t61 -104q100 -4 158 155t78 403q17 46 54 58q50 20 110 -11t62 -71q-41 -59 -50 -268q-8 -108 3 -202t47 -104q42 -10 86 56q73 109 128 280q20 64 24 88q16 -2 34 -2h34q-19 -123 -87 -281t-163 -197
q-26 -12 -66 -12t-76 25q-88 61 -112 167q-16 62 -22 92q-10 -20 -38 -85q-47 -110 -144 -167q-36 -20 -86 -21q-99 -2 -152 99q-41 75 -52 222q-12 146 -8 259t-16 143q8 26 30 47t57 21zM336 938q-48 4 -52 -63t50 -67q28 2 38 60t-20 50q-12 8 -10 30q-2 -6 -6 -10z
M368 976q72 0 72 -117q0 -31 -28 -65t-74 -34l-2 2q-57 0 -96 34q-47 47 -22 113q24 67 104 65q20 -2 20 -24q2 18 12 22t14 4z" />
    <glyph glyph-name="Uhungarumlaut" unicode="&#x170;" horiz-adv-x="1854" 
d="M640 696q164 261 220 562q38 184 -10 256q-16 26 -44 30q-84 15 -134 -300q-32 -243 -32 -548zM786 1594q104 0 138 -94q50 -127 2 -342q-71 -330 -280 -598l4 -62q23 -332 96 -450q26 -42 60 -44q76 -4 144 60q127 127 218 381t107 414q38 367 53 555q22 36 71 40
q92 7 149 -50q24 -24 32 -54q-30 -32 -51 -214q-41 -355 -27 -753q14 -397 80 -397q58 -4 103 71q72 119 113 279q16 54 24 84q22 0 68 -2q-8 -46 -42 -158q-65 -214 -172 -312q-42 -40 -92 -40h-8q-86 7 -151 84q-128 150 -163 464q-2 36 -2 56q-6 -31 -39 -122
q-122 -339 -301 -436q-54 -28 -114 -24q-110 8 -197 123t-139 349q-127 -76 -231 -53q-105 23 -157 99q-28 48 -28 88t10 72q26 84 110 86q32 -10 45 -37t7 -37q-48 -18 -70 -72t1 -97t77 -55q106 -22 210 64q6 6 14 12v6q-47 314 9 648t215 436q48 32 104 32zM1243 1574
q-13 0 -17 10q-2 66 0 148t-4 144q26 0 74 2h8q42 2 54 -20q-2 -36 -35 -123t-43 -147q-24 -14 -37 -14zM1108 1886q42 0 56 -20q-4 -36 -37 -123t-43 -147q-28 -20 -40 -14q-10 0 -14 10q0 64 2 147t-6 145q26 0 74 2h8z" />
    <glyph glyph-name="uhungarumlaut" unicode="&#x171;" horiz-adv-x="924" 
d="M23 726q35 0 77 -18t62 -58q-2 -62 -10 -135t-18 -175t-5 -204t61 -104q100 -4 158 155t78 403q17 46 54 58q50 20 110 -11t62 -71q-41 -59 -50 -268q-8 -108 3 -202t47 -104q42 -10 86 56q73 109 128 280q20 64 24 88q16 -2 34 -2h34q-19 -123 -87 -281t-163 -197
q-26 -12 -66 -12t-76 25q-88 61 -112 167q-16 62 -22 92q-10 -20 -38 -85q-47 -110 -144 -167q-36 -20 -86 -21q-99 -2 -152 99q-41 75 -52 222q-12 146 -8 259t-16 143q8 26 30 47t57 21zM391 784q-13 0 -17 10q-2 66 0 148t-4 144q26 0 74 2h8q42 2 54 -20
q-2 -36 -35 -123t-43 -147q-24 -14 -37 -14zM256 1096q42 0 56 -20q-4 -36 -37 -123t-43 -147q-28 -20 -40 -14q-10 0 -14 10q0 64 2 147t-6 145q26 0 74 2h8z" />
    <glyph glyph-name="Uogonek" unicode="&#x172;" horiz-adv-x="1854" 
d="M640 696q164 261 220 562q38 184 -10 256q-16 26 -44 30q-84 15 -134 -300q-32 -243 -32 -548zM1358 -326v4q0 90 33 135t61 75l44 44q-35 17 -85 77q-51 59 -93 186q-58 179 -58 315q-20 -67 -46 -140q-114 -320 -294 -416q-54 -28 -114 -24q-110 8 -197 123t-139 349
q-127 -76 -231 -53q-105 23 -157 99q-28 48 -28 88t10 72q26 84 110 86q32 -10 45 -37t7 -37q-48 -18 -70 -72t1 -97t77 -55q106 -22 210 64q6 6 14 12v6q-47 314 9 648t215 436q48 32 104 32q104 0 138 -94q50 -127 2 -342q-71 -330 -280 -598l4 -62q23 -332 72.5 -412
t83.5 -82q76 -4 144 60q127 127 218 381t107 414q38 367 53 555q22 36 71 40q92 7 149 -50q24 -24 32 -54q-30 -32 -51 -214q-41 -355 -27 -753q14 -397 80 -397q58 -4 103 71q72 119 113 279q16 54 24 84q22 0 68 -2q-8 -46 -57.5 -209t-156.5 -261q-30 -28 -64 -36
q-24 -26 -56 -60t-64 -81t-37.5 -146.5t69.5 -162.5q47 -43 118 -32q55 13 82 44q81 71 78.5 157.5t-74.5 66.5q-26 30 -24 64t55 25q137 -23 137 -151q0 -34 -26 -93t-98 -105q-65 -40 -144 -40q-78 0 -134 35q-136 85 -136 241z" />
    <glyph glyph-name="uogonek" unicode="&#x173;" horiz-adv-x="924" 
d="M-64 658q21 68 98 68q24 0 66 -18t62 -58q-2 -62 -10 -135t-18 -175t-5 -204t61 -104q100 -4 158 155t78 403q17 46 54 58q50 20 110 -11t62 -71q-41 -59 -50 -268q-8 -108 3 -202t47 -104q42 -10 100.5 77.5t113.5 258.5q20 64 24 88q16 -2 34 -2h34q-19 -123 -87 -281
t-163 -197q-4 -2 -8 -2q-26 -30 -59 -65t-65 -82t-37.5 -146.5t69.5 -162.5q47 -43 118 -32q55 13 82 44q81 71 78.5 157.5t-74.5 66.5q-26 30 -24 64t55 25q137 -23 137 -151q0 -34 -26 -93t-98 -105q-65 -40 -144 -40q-78 0 -134 35q-136 85 -136 241v4q0 90 33 135t61 75
l38 40q-34 17 -70 63q-36 47 -50 109q-16 62 -22 92q-10 -20 -38 -85q-47 -110 -144 -167q-36 -20 -86 -21q-99 -2 -152 99q-41 75 -52 222q-12 146 -8 259t-16 143z" />
    <glyph glyph-name="Wcircumflex" unicode="&#x174;" horiz-adv-x="1986" 
d="M46 1064q0 152 80 278q93 149 239 138t237 -306q71 -248 99 -623t63 -469q12 -38 32 -38q64 -9 209 697q39 189 47 219q6 30 6 40q34 60 111 36t89 -78q8 -48 27 -199t45 -306q77 -461 132 -461t126 506q69 465 142 770q92 362 212 376h2q46 0 78 -42q14 -18 14 -53
t-24 -97q-78 22 -134 -100q-54 -124 -86 -270t-53 -260t-51 -273t-64 -303t-76 -237t-94 -92q-144 3 -232 227q-49 132 -68 238q-18 106 -29 181t-17 145t-10 80q-4 -16 -36 -189t-80 -319q-53 -183 -128 -288q-50 -70 -105 -71q-97 -2 -150 90q-85 148 -105 541
q-6 108 -12 343t-35 383t-99 154q-72 4 -126 -72q-94 -132 -78 -292q12 -114 104 -136q44 -10 108 12q40 -24 30 -101t-70 -85q-160 15 -226 134q-44 76 -44 172zM1316 1567q0 -15 -30 -37t-76 -14q-24 48 -70 148q-30 -38 -46 -78t-38 -80h-12q-28 0 -62 18t-34 50
q60 38 101 75t89 83l174 -144q4 -6 4 -21z" />
    <glyph glyph-name="wcircumflex" unicode="&#x175;" horiz-adv-x="1214" 
d="M832 502q-20 104 -66 92q-32 -8 -8 -91t80 -181q8 96 -6 180zM370 449q0 105 4 141q24 48 104 58t92 -52q-18 -110 -14 -265t29 -256t81 -87q72 16 114 100q24 54 40 112q-121 147 -146 314q-14 117 46 172q32 32 108 40q72 0 102 -70q68 -159 -22 -430q94 -99 182 -2
q50 58 90 202q24 0 72 2q-58 -245 -192 -308q-96 -43 -186 28q-105 -216 -252 -216q-71 0 -122 58q-34 36 -48 68t-20 46q-18 -46 -46 -86q-60 -80 -120 -88q-16 -2 -51 -2t-81 28t-87 95q-71 116 -113 443q-12 110 -34 158q26 48 100 78q24 10 58 10t70 -42q16 -56 19 -146
t5 -211t19 -239t89 -118q56 2 92 83t44 155q-26 122 -26 227zM674 937q0 -15 -30 -37t-76 -14q-24 48 -70 148q-30 -38 -46 -78t-38 -80h-12q-28 0 -62 18t-34 50q60 38 101 75t89 83l174 -144q4 -6 4 -21z" />
    <glyph glyph-name="Ycircumflex" unicode="&#x176;" horiz-adv-x="1684" 
d="M584 688q78 134 118 241q94 254 88 409q-4 98 -62 106q-24 4 -43 -17q-52 -57 -79 -262q-28 -204 -22 -477zM1170 -46q-149 -84 -206 -174q-103 -161 -108 -314q-4 -152 49 -252t131 -104q86 -7 114 410q14 176 16 286t4 148zM1046 -942q-154 0 -226 127
q-115 202 -20 469q32 88 95 172t159 138q58 34 116 62v156q0 130 -2 220v108q-8 -35 -40 -109q-85 -195 -200 -299q-92 -88 -196 -84q-111 8 -190 112q-72 90 -110 236l-12 44q-114 -62 -218 -40q-71 15 -111 67q-41 53 -41 95q0 157 110 160q30 -10 40 -38t4 -38
q-44 -14 -63 -64q-29 -75 27 -124q18 -14 44 -18q98 -22 196 58q-60 302 6 620q38 180 114 291t180 111q58 0 87 -28q129 -125 0 -513q-70 -211 -205 -385q12 -197 60 -356q36 -118 94 -124q102 -8 192 119q144 204 218 487q41 154 43 295q3 141 17 209q12 26 28 38
q60 34 127 -33q45 -45 57 -97q-70 -64 -70 -696q-2 -148 -6 -296q4 4 32 17t87 50q148 93 183 245h70q-26 -126 -105 -207t-179 -129l-90 -44l-8 -160q-27 -509 -135 -713q-59 -111 -159 -111zM1240 1595q0 -15 -30 -37t-76 -14q-24 48 -70 148q-30 -38 -46 -78t-38 -80h-12
q-28 0 -62 18t-34 50q60 38 101 75t89 83l174 -144q4 -6 4 -21z" />
    <glyph glyph-name="ycircumflex" unicode="&#x177;" horiz-adv-x="932" 
d="M266 -888q45 0 90 460q15 151 20 260q-131 -100 -189 -192t-50 -227q9 -135 44 -218t85 -83zM206 64q50 0 98 98q75 153 106 352q10 66 12 118q12 22 50 41t68 7q54 -22 80 -96q-26 -6 -46 -325q-8 -125 -18 -237q34 24 100 71t141 130t99 195q33 12 74 2
q-29 -124 -111 -221q-81 -97 -164 -152t-145 -95q0 -101 -51 -431t-151 -441q-38 -40 -84 -42h-6q-110 0 -172 101t-58 239q7 259 220 432q64 52 136 102q10 124 15 216t7 118q-43 -140 -101 -201t-112 -62q-104 -2 -165 103q-83 133 -96 486q-6 112 -28 132q26 40 98 40h2
q74 0 130 -54q6 -32 3 -119t-4 -197t11 -210t62 -100zM480 907q0 -15 -30 -37t-76 -14q-24 48 -70 148q-30 -38 -46 -78t-38 -80h-12q-28 0 -62 18t-34 50q60 38 101 75t89 83l174 -144q4 -6 4 -21z" />
    <glyph glyph-name="Ydieresis" unicode="&#x178;" horiz-adv-x="1684" 
d="M584 688q78 134 118 241q94 254 88 409q-4 98 -62 106q-24 4 -43 -17q-52 -57 -79 -262q-28 -204 -22 -477zM1170 -46q-149 -84 -206 -174q-103 -161 -108 -314q-4 -152 49 -252t131 -104q86 -7 114 410q14 176 16 286t4 148zM1046 -942q-154 0 -226 127
q-115 202 -20 469q32 88 95 172t159 138q58 34 116 62v156q0 130 -2 220v108q-8 -35 -40 -109q-85 -195 -200 -299q-92 -88 -196 -84q-111 8 -190 112q-72 90 -110 236l-12 44q-114 -62 -218 -40q-71 15 -111 67q-41 53 -41 95q0 157 110 160q30 -10 40 -38t4 -38
q-44 -14 -63 -64q-29 -75 27 -124q18 -14 44 -18q98 -22 196 58q-60 302 6 620q38 180 114 291t180 111q58 0 87 -28q129 -125 0 -513q-70 -211 -205 -385q12 -197 60 -356q36 -118 94 -124q102 -8 192 119q144 204 218 487q41 154 43 295q3 141 17 209q12 26 28 38
q60 34 127 -33q45 -45 57 -97q-70 -64 -70 -696q-2 -148 -6 -296q4 4 32 17t87 50q148 93 183 245h70q-26 -126 -105 -207t-179 -129l-90 -44l-8 -160q-27 -509 -135 -713q-59 -111 -159 -111zM952 1448q-34 0 -58 17t-24 43q0 98 38 110q22 -14 46 -10t55 -14t31 -50v-16
q-8 -44 -27 -62t-57 -18h-4zM1171 1624q17 0 60 -25t43 -59v-4q-2 -36 -26 -64t-52 -32h-6q-22 0 -56 19t-34 49v12q6 40 26 56t22 42q6 6 23 6z" />
    <glyph glyph-name="Zacute" unicode="&#x179;" horiz-adv-x="1358" 
d="M1190 11q32 -31 32 -63t-26 -64q-18 -18 -46 -34q-98 -34 -192 -34h-4q-154 3 -294 50q-54 16 -124 39t-141 40t-113 -11q-74 8 -102 69t30 137q220 294 408 594q186 300 416 526q-152 -24 -339 -31q-301 -11 -487 41q-64 20 -100 50q-22 26 -22 62q-2 8 -2 16
q0 58 31 99t48 42t29 -15q10 -41 102 -72q138 -40 478 -36q174 2 344 30q66 -2 86 -48t-22 -90q-115 -118 -481 -635q-241 -340 -377 -523q110 20 245 -32t272 -114t181 -64t62 18t12 72q64 12 96 -19zM666 1498q-26 0 -26 18q6 66 42 146t114 114q20 8 34 8h4q16 0 33 -13
t17 -51v-6q-2 -40 -20 -56q-30 -12 -95 -58t-87 -100q-8 -2 -16 -2z" />
    <glyph glyph-name="zacute" unicode="&#x17a;" horiz-adv-x="738" 
d="M588 30q0 -54 -49 -72q-82 -30 -183 -30q-102 0 -187 5t-133 -11q-50 16 -62 60q-14 44 7 73t106 158q236 359 267 433q-91 -39 -276 -22q-4 -18 -19 -97t-25 -125q-21 -5 -74 0q39 162 46 240q-96 48 -96 112v6q0 58 27 100t65 34q31 0 55 -26q23 -26 29 -79t4 -81
q36 -12 104 -11q173 3 242 61q34 12 69 -20t41 -90q-24 -86 -128 -242t-187 -261t-109 -129q32 4 69 7q125 10 197 45q52 26 50 90q44 11 92 -16q48 -28 58 -96v-16zM210 830q-26 0 -26 18q6 66 42 146t114 114q20 8 34 8h4q16 0 33 -13t17 -51v-6q-2 -40 -20 -56
q-30 -12 -95 -58t-87 -100q-8 -2 -16 -2z" />
    <glyph glyph-name="Zdotaccent" unicode="&#x17b;" horiz-adv-x="1358" 
d="M1190 11q32 -31 32 -63t-26 -64q-18 -18 -46 -34q-98 -34 -192 -34h-4q-154 3 -294 50q-54 16 -124 39t-141 40t-113 -11q-74 8 -102 69t30 137q220 294 408 594q186 300 416 526q-152 -24 -339 -31q-301 -11 -487 41q-64 20 -100 50q-22 26 -22 62q-2 8 -2 16
q0 58 31 99t48 42t29 -15q10 -41 102 -72q138 -40 478 -36q174 2 344 30q66 -2 86 -48t-22 -90q-115 -118 -481 -635q-241 -340 -377 -523q110 20 245 -32t272 -114t181 -64t62 18t12 72q64 12 96 -19zM778 1626q0 -20 -15 -52q-24 -52 -73 -52q-94 0 -102 62q-2 14 -2 34
t13 40t7 50q12 14 37 14t53 -6q70 -16 78 -56q4 -14 4 -34z" />
    <glyph glyph-name="zdotaccent" unicode="&#x17c;" horiz-adv-x="738" 
d="M588 30q0 -54 -49 -72q-82 -30 -183 -30q-102 0 -187 5t-133 -11q-50 16 -62 60q-14 44 7 73t106 158q236 359 267 433q-91 -39 -276 -22q-4 -18 -19 -97t-25 -125q-21 -5 -74 0q39 162 46 240q-96 48 -96 112v6q0 58 27 100t65 34q31 0 55 -26q23 -26 29 -79t4 -81
q36 -12 104 -11q173 3 242 61q34 12 69 -20t41 -90q-24 -86 -128 -242t-187 -261t-109 -129q32 4 69 7q125 10 197 45q52 26 50 90q44 11 92 -16q48 -28 58 -96v-16zM388 988q0 -20 -15 -52q-24 -52 -73 -52q-94 0 -102 62q-2 14 -2 34t13 40t7 50q12 14 37 14t53 -6
q70 -16 78 -56q4 -14 4 -34z" />
    <glyph glyph-name="Zcaron" unicode="&#x17d;" horiz-adv-x="1358" 
d="M1190 11q32 -31 32 -63t-26 -64q-18 -18 -46 -34q-98 -34 -192 -34h-4q-154 3 -294 50q-54 16 -124 39t-141 40t-113 -11q-74 8 -102 69t30 137q220 294 408 594q186 300 416 526q-152 -24 -339 -31q-301 -11 -487 41q-64 20 -100 50q-22 26 -22 62q-2 8 -2 16
q0 58 31 99t48 42t29 -15q10 -41 102 -72q138 -40 478 -36q174 2 344 30q66 -2 86 -48t-22 -90q-115 -118 -481 -635q-241 -340 -377 -523q110 20 245 -32t272 -114t181 -64t62 18t12 72q64 12 96 -19zM529 1738q17 0 23 -2q22 -40 38 -80t46 -76q22 48 70 146q46 10 76 -13
t30 -37t-4 -22q-58 -48 -174 -142q-48 44 -89 81t-101 75q0 32 34 51t51 19z" />
    <glyph glyph-name="zcaron" unicode="&#x17e;" horiz-adv-x="738" 
d="M588 30q0 -54 -49 -72q-82 -30 -183 -30q-102 0 -187 5t-133 -11q-50 16 -62 60q-14 44 7 73t106 158q236 359 267 433q-91 -39 -276 -22q-4 -18 -19 -97t-25 -125q-21 -5 -74 0q39 162 46 240q-96 48 -96 112v6q0 58 27 100t65 34q31 0 55 -26q23 -26 29 -79t4 -81
q36 -12 104 -11q173 3 242 61q34 12 69 -20t41 -90q-24 -86 -128 -242t-187 -261t-109 -129q32 4 69 7q125 10 197 45q52 26 50 90q44 11 92 -16q48 -28 58 -96v-16zM173 1094q17 0 23 -2q22 -40 38 -80t46 -76q22 48 70 146q46 10 76 -13t30 -37t-4 -22q-58 -48 -174 -142
q-48 44 -89 81t-101 75q0 32 34 51t51 19z" />
    <glyph glyph-name="uni02bc" unicode="&#x2bc;" horiz-adv-x="458" 
d="M116 1426q0 70 56 94q34 14 48 14q40 0 70 -38q18 -26 18 -76v-16q-2 -38 -34 -121t-80 -105q-6 2 -14 11t-6 19q18 12 41 61t15 83q-42 -18 -78 8t-36 66z" />
    <glyph glyph-name="circumflex" unicode="&#x2c6;" horiz-adv-x="412" 
d="M384 1415q0 -15 -30 -37t-76 -14q-24 48 -70 148q-30 -38 -46 -78t-38 -80h-12q-28 0 -62 18t-34 50q60 38 101 75t89 83l174 -144q4 -6 4 -21z" />
    <glyph glyph-name="caron" unicode="&#x2c7;" horiz-adv-x="412" 
d="M101 1580q17 0 23 -2q22 -40 38 -80t46 -76q22 48 70 146q46 10 76 -13t30 -37t-4 -22q-58 -48 -174 -142q-48 44 -89 81t-101 75q0 32 34 51t51 19z" />
    <glyph glyph-name="uni02c9" unicode="&#x2c9;" horiz-adv-x="680" 
d="M230 1324q-40 0 -70 2q-54 22 -54 50q0 4 2 8q8 34 64 56q38 -42 140 -25t248 13q40 -30 44 -52v-6q0 -20 -18 -44q-28 4 -270 -2h-86z" />
    <glyph glyph-name="breve" unicode="&#x2d8;" horiz-adv-x="412" 
d="M384 1510q0 -6 -14 -38t-48 -76t-104 -44t-110 52t-50 84q0 32 34 40q36 8 70 4q2 -28 13 -69t33 -41q40 0 56 42q14 44 14 78q20 4 36 2q70 0 70 -34z" />
    <glyph glyph-name="dotaccent" unicode="&#x2d9;" horiz-adv-x="400" 
d="M306 1414q0 -20 -15 -52q-24 -52 -73 -52q-94 0 -102 62q-2 14 -2 34t13 40t7 50q12 14 37 14t53 -6q70 -16 78 -56q4 -14 4 -34z" />
    <glyph glyph-name="ring" unicode="&#x2da;" horiz-adv-x="346" 
d="M172 1538q-48 4 -52 -63t50 -67q28 2 38 60t-20 50q-12 8 -10 30q-2 -6 -6 -10zM204 1576q72 0 72 -117q0 -31 -28 -65t-74 -34l-2 2q-57 0 -96 34q-47 47 -22 113q24 67 104 65q20 -2 20 -24q2 18 12 22t14 4z" />
    <glyph glyph-name="ogonek" unicode="&#x2db;" horiz-adv-x="802" 
d="M148 -180v4q0 90 40 145t108 117q28 4 50 4h18l60 -8q-34 -38 -72 -78t-70 -87t-37.5 -146.5t69.5 -162.5q47 -43 118 -32q55 13 82 44q81 71 78.5 157.5t-74.5 66.5q-26 30 -24 64t55 25q137 -23 137 -151q0 -34 -26 -93t-98 -105q-65 -40 -144 -40q-78 0 -134 35
q-136 85 -136 241z" />
    <glyph glyph-name="tilde" unicode="&#x2dc;" horiz-adv-x="428" 
d="M414 1458q0 -74 -72 -104q-18 -8 -43 -8t-93 47q-69 47 -91 51q-45 8 -59 -68q-24 10 -34 40t-10 80t84 82q10 2 26 2t49 -20t64 -48t57 -32q35 0 52 76q40 -8 58 -52q12 -24 12 -46z" />
    <glyph glyph-name="hungarumlaut" unicode="&#x2dd;" horiz-adv-x="502" 
d="M305 1206q-13 0 -17 10q-2 66 0 148t-4 144q26 0 74 2h8q42 2 54 -20q-2 -36 -35 -123t-43 -147q-24 -14 -37 -14zM170 1518q42 0 56 -20q-4 -36 -37 -123t-43 -147q-28 -20 -40 -14q-10 0 -14 10q0 64 2 147t-6 145q26 0 74 2h8z" />
    <glyph glyph-name="uni2010" unicode="&#x2010;" horiz-adv-x="920" 
d="M802 410q0 -28 -20 -52q-117 13 -252 8q-136 -6 -244 2q-52 20 -54 58q0 56 66 82q26 -30 106 -30q70 -4 165 3t189 5q40 -30 44 -64v-12z" />
    <glyph glyph-name="uni2011" unicode="&#x2011;" horiz-adv-x="920" 
d="M802 410q0 -28 -20 -52q-117 13 -252 8q-136 -6 -244 2q-52 20 -54 58q0 56 66 82q26 -30 106 -30q70 -4 165 3t189 5q40 -30 44 -64v-12z" />
    <glyph glyph-name="uni2012" unicode="&#x2012;" horiz-adv-x="920" 
d="M802 410q0 -28 -20 -52q-117 13 -252 8q-136 -6 -244 2q-52 20 -54 58q0 56 66 82q26 -30 106 -30q70 -4 165 3t189 5q40 -30 44 -64v-12z" />
    <glyph glyph-name="endash" unicode="&#x2013;" horiz-adv-x="1064" 
d="M404 480q100 0 247 8t207 6q46 -34 46 -68t-20 -58q-148 16 -265 5t-196 -11t-157 6q-52 20 -52 58v12q8 48 64 70q26 -28 126 -28z" />
    <glyph glyph-name="emdash" unicode="&#x2014;" horiz-adv-x="1064" 
d="M902 435q0 -35 -20 -59q-96 12 -224 6l-260 -8q-68 -2 -136 -2h-2q-64 0 -122 4q-52 22 -52 60v12q8 46 64 68q31 -31 183 -28q153 2 294 11t229 7q46 -36 46 -71z" />
    <glyph glyph-name="quoteright" unicode="&#x2019;" horiz-adv-x="458" 
d="M116 1426q0 70 56 94q34 14 48 14q40 0 70 -38q18 -26 18 -76v-16q-2 -38 -34 -121t-80 -105q-6 2 -14 11t-6 19q18 12 41 61t15 83q-42 -18 -78 8t-36 66z" />
    <glyph glyph-name="quotedblleft" unicode="&#x201c;" horiz-adv-x="694" 
d="M316 1310q0 -72 -56 -94q-34 -14 -48 -14q-40 0 -70 38q-18 26 -18 76v16q2 38 34 121t78 105q6 -2 15 -11t7 -19q-18 -12 -41 -61t-15 -85q40 20 77 -6t37 -66zM530 1294q0 -70 -53 -91t-76 -14t-43 34t-20 79v16q2 38 34 120q34 82 80 104q6 -2 14 -10t6 -18
q-18 -12 -41 -61t-13 -85q40 20 76 -7t36 -67z" />
    <glyph glyph-name="quotedblright" unicode="&#x201d;" horiz-adv-x="674" 
d="M330 1402q0 70 56 94q34 14 48 14t31 -5t37 -32t20 -79v-14q-2 -38 -35 -121t-79 -105q-6 2 -14 10t-6 18q18 12 41 61t13 85q-40 -18 -76 8t-36 66zM116 1416v16q10 60 50 76t54 16q40 0 70 -38q18 -26 18 -55t-2 -52t-34 -106t-78 -105q-6 2 -14 11t-6 19q16 12 40 61
t14 85q-40 -20 -76 6t-36 66z" />
    <glyph glyph-name="uni20ac" unicode="&#x20ac;" horiz-adv-x="1184" 
d="M456 640q168 8 192 8q40 -32 46 -56v-6q0 -22 -20 -48q-110 12 -208 8q18 -148 64 -250q82 -181 196 -218q90 -30 161 24t71 102q43 6 68 -30q-14 -72 -126 -132q-78 -44 -184 -44t-214 70q-74 46 -145 150t-109 314q-68 0 -144 6q-32 50 -32 77t44 45q26 -28 114 -28h8
v116q-64 0 -136 6q-20 20 -24 54v6q0 32 36 62q26 -28 114 -28h20q57 378 267 545q107 85 245 85h24q109 -7 158 -71q49 -63 40 -148q-8 -85 -54 -151t-108 -74q-34 8 -74 48t-10 94q76 4 126 72t26 124q-27 54 -118 58q-90 4 -155 -75q-102 -124 -137 -347
q-14 -74 -20 -152q40 2 89 5t99 1q46 -34 46 -71q0 -13 -20 -37q-116 12 -218 6q0 -60 2 -120z" />
    <glyph glyph-name="trademark" unicode="&#x2122;" horiz-adv-x="1430" 
d="M519 1356q11 0 17 -2q-2 -8 -2 -74v-154q2 -104 2 -202v-116q-20 -24 -60 -24h-6q-46 2 -52 46q14 0 29 101t18 240t1 147q8 14 25 26t28 12zM758 1415q-100 -21 -283 -61t-277 -40t-94 57q0 9 8 23q10 24 40 24q12 0 10 -11t-12 -15q-8 6 -17 -4t3 -25q18 -23 343 71
q325 93 375 98h6q40 0 40 -74q0 -28 -10 -38q-32 16 -132 -5zM1024 1348h12q58 -2 72 -34q-8 -65 -5 -209q7 -327 51 -333q52 -8 72 47t-8 87q4 24 29 26t35 -12q4 -10 4 -29t-13 -63t-46 -75t-69 -31h-12q-67 11 -110 148q-26 90 -36 184t-10 132q-2 -20 -20 -115t-62 -201
q-32 -73 -84.5 -47t-80.5 101q-29 74 -38 107t-11 37q2 -40 2 -84v-54q-5 -208 -52 -272q-24 -12 -43 -12t-42 8t-23 24v4q42 66 68 207t34 241t12 144q-8 32 -14 38q2 20 62 20t68 -46q0 -32 10 -144t36 -200t56 -80q10 4 38 105t43 215t15 154q12 12 60 12z" />
    <glyph glyph-name="act01" unicode="&#xe000;" horiz-adv-x="2120" 
d="M1486 354q-8 94 -8 211t18 333q-96 2 -264 7t-400 3q-726 0 -848 -138q-46 4 -73 48t-27 88q0 75 69 121q43 29 275 29q218 0 686 -34t586 -40q6 80 7 162t-25 112q16 44 78 52h22q50 0 82 -24q59 -44 66 -110q-14 -76 -24 -200q147 -5 188 14q20 2 20 -38q2 -2 2 -4
q0 -38 -20 -44t-78 -8h-116q-6 -118 -8 -242v-162q12 -464 110 -486q112 -21 202 168q56 118 80 240q45 11 72 0q-42 -210 -128 -336q-24 -40 -59 -75q-73 -73 -171 -73t-166 65t-102 153l-16 46q-48 -108 -112 -169q-116 -111 -240 -111q-93 0 -165 32q-127 57 -193 168
l-2 -4q-56 -148 -148 -194q-28 -14 -58 -14h-14q-81 7 -136 61q-54 53 -76 110t-26 83q-12 -46 -73 -111t-133 -77t-126 38q-86 86 -87 229t73 277q44 82 123.5 152t200.5 70q122 0 172 -48q72 -68 64 -143t-54 -93t-91 4t-59 48q24 12 46 58t13 72q-15 44 -69 52t-110 -61
t-96 -176t-41 -225t69 -144q42 -14 85 31t76 123t41 148q36 48 102 2t70 -82q-26 -41 -25 -122q2 -186 93 -202q94 -10 156 222q-26 104 -26 147q0 100 44 185q24 50 60 88q68 78 137 103t108 25q88 0 137 -56q30 -30 45 -84t-21 -116t-112 -79t-62 41q52 26 62 92t-17 98
t-67 28q-68 -6 -96 -90t-20 -204t69 -240t164 -128t177 66t101 143t41 105z" />
    <glyph glyph-name="and01" unicode="&#xe001;" horiz-adv-x="2090" 
d="M1588 1184q51 51 62 117q10 65 -14 121t-50 48q-34 -10 -20 -140q6 -68 22 -146zM1548 890q-46 12 -71 -13t-35 -49q-32 -68 -20 -167t34 -131q66 -97 110 -50q26 32 34 120t-52 290zM1494 390q-54 0 -108 58q-8 -92 -54 -138q-20 -22 -57 -29q-100 -19 -167 121
q-23 47 -92 224q-24 64 -56 56q-22 -6 -41 -71t-13 -120t27 -107t61 -176q-2 -34 -46 -52q-20 -8 -37 -8t-27 10q-8 44 -30 116q-6 -110 -54 -164q-16 -16 -38 -22q-78 -20 -128 27t-64 69q4 -32 -22 -89q-41 -89 -114 -95h-4q-20 0 -42 10q-134 57 -134 260q0 66 26 148
t97 121t109 39t60 -8q64 -28 76 -79t-14 -74t-62 -19t-50 16q18 20 16 76t-60 44q-42 -8 -63 -66t-22 -139t25 -159t77 -78t67 86q14 86 -2 160q12 40 67 25t65 -37q-10 -44 16 -121t80 -67q53 11 58 176q0 32 -4 64q-78 194 -114 226q-2 6 -2 22t30 40t56 14
q32 -32 90 -168q0 156 66 230q35 31 62 26q39 0 82 -50q40 -53 82 -151q42 -99 72 -170t56 -67q34 6 41 64t7 118q-24 48 -40 123q-25 115 32 207q16 24 44 42q82 52 142 44q6 -2 14 -4q-27 93 -38 154q-66 -28 -391 -123q-325 -94 -479 -148q-154 -55 -287 -136t-149 -185
q-44 -22 -94 5q-46 25 -46 119q0 131 198 212q150 64 321 104t488 101q318 61 429 103q-2 10 -2 20q-51 322 92 360q14 4 28 4q46 0 86 -48t27 -141t-109 -183q-6 -6 -12 -10q41 -180 100 -358q60 -178 116 -240q30 -32 64 2q62 52 40 156q-18 76 -64 62q-20 22 -12 82
t46 62q45 -4 72 -44q26 -40 26 -102v-18q-7 -133 -76 -212q-26 -32 -60 -40q-86 -24 -139 25t-67 73q0 -24 -23 -93t-95 -91q-16 -6 -32 -6z" />
    <glyph glyph-name="art01" unicode="&#xe002;" horiz-adv-x="2112" 
d="M617 -102q-99 0 -169 70q-50 48 -72 104t-26 82q-12 -46 -92 -128.5t-180 -57.5q-32 10 -60 36q-88 86 -88 222v14q4 146 61 249q117 212 273 235q46 8 86 8q98 0 150 -48q72 -68 64 -143t-60 -95q-40 -16 -86 6t-60 48q24 12 48 58q35 74 -10 109q-14 11 -40 15
q-60 8 -116 -61t-96 -176t-41 -225t69 -144q42 -14 95 41t91 183q10 40 16 78q36 48 102 2t68 -82q-28 -52 -25 -128q7 -181 93 -196q62 -6 100 71q55 114 81 242q26 127 47 215q20 88 22 110q-44 22 -70 60t-26 70v6q0 60 25 101t59 41q33 0 61 -32q27 -32 33 -92t4 -88
q70 0 155 16q132 25 152.5 -7.5t16.5 -62.5q-22 -134 -18 -277t26 -245t58 -107t73 68q56 110 89 243q-6 72 -6 146t3 130t31 334q-132 10 -336 26t-452 13t-457 -42t-295 -143q-44 4 -69 43t-25 85v14q4 62 58 112q88 80 300 90q78 6 231 6q243 0 1053 -114q6 66 10 143
t-24 107q16 44 80 52h20q50 0 82 -24q59 -44 66 -110q-14 -74 -30 -192q122 -10 156 6q22 2 22 -38v-4q0 -38 -16 -44q-33 -8 -170 -2q-47 -558 4 -793q20 -93 64 -101q55 -14 114 36q92 85 168 370q45 11 72 0q-42 -210 -128 -336q-55 -91 -140 -132q-36 -16 -63 -16
q-125 0 -193 67t-100 163q-10 -26 -33 -84t-62 -102q-67 -76 -125 -76h-8q-90 6 -165 57t-84 111t-9 164t19 220t5 128q-24 4 -72 13t-66 11q-41 -205 -42 -208v-2q-18 -134 -73.5 -284t-152.5 -196q-26 -12 -45 -12z" />
    <glyph glyph-name="ary01" unicode="&#xe003;" horiz-adv-x="2362" 
d="M1602 -588q41 28 71 84q29 56 15 129t-54 73q-60 -2 -56 -114q2 -84 24 -172zM746 750v4q0 60 25 101t60 41t61 -31t33 -92t3 -89q70 0 155 16t119 4t44 -28t-2 -95t-8 -235t26 -258t52 -104q78 -8 178 324q-16 116 -21 230t-23 154q26 30 76 30t112 -38q30 -66 29 -255
t4 -309t53 -122q44 -4 95 89t86 233t39 292q18 32 62 37t73 -13q58 -36 65 -90q-30 -13 -51 -307t-43 -479q-22 -186 -48 -326t-84 -262q-56 -124 -146 -124q-66 -2 -124 64t-96 162l-14 34q-156 -37 -574 84q-178 50 -359 102t-292 61t-175 -1t-101 -40t-85 15.5t-48 130.5
v10q0 94 76 140q76 32 230 -9q209 -56 556.5 -196t509.5 -186q162 -45 240 -37q-56 194 -6 340q32 98 132 94q62 -2 95 -63q52 -96 15 -231q-30 -94 -94 -154q-16 -12 -34 -24q28 -96 72 -170q42 -78 80 -78q76 0 116 440q32 304 32 646q-28 -68 -82 -159t-132 -93
q-131 -5 -186 214l-8 32q-12 -30 -36 -92t-63 -106q-67 -76 -125 -76q-4 0 -8 2q-90 6 -164 56t-84 111t-10 153.5t19 219.5q19 128 5 140l-72 12q-46 10 -62 10l-44 -210h-2q-8 -34 -35 -142t-95 -218q-75 -132 -178 -132h-12q-77 3 -142 64q-48 48 -70 106t-26 82
q-12 -46 -74 -110t-134 -77t-124 39q-88 86 -88 222v14q4 144 61 248q114 208 273 236q46 8 84 8q100 0 152 -48q72 -68 62 -144t-58 -94q-40 -16 -86 6t-60 48q24 12 47 57t11 83q-13 35 -67 42q-53 8 -109 -61t-96 -177t-42 -225t68 -143q42 -14 86 30q68 74 102 194
q10 40 14 78q38 48 104 2t68 -82q-26 -48 -25 -126q2 -181 86.5 -195.5t172.5 233.5q41 102 49 145q9 43 11 45v2q43 196 44 212q-44 22 -70 60t-26 72z" />
    <glyph glyph-name="ay01" unicode="&#xe004;" horiz-adv-x="1558" 
d="M816 -586q4 4 17 15t27 37q42 76 32 163t-52 85q-60 -2 -55 -103t31 -197zM666 692q26 30 87 30t123 -38q20 -44 22 -128t-2 -200t-4 -236t50 -122q42 -4 93 89t85 233q36 140 40 292q18 32 62 37t73 -13q58 -36 65 -90q-28 -13 -42 -326q-9 -167 -23 -347
q-49 -651 -209 -789q-40 -36 -94 -36h-2q-124 0 -224 262q-171 -63 -559 85q-139 53 -253 21q-34 -8 -59 40t-25 97q0 151 90 181q28 12 72 4q72 -2 194 -93q256 -191 412 -251q58 -20 106 -12q-2 4 -2 8q-63 253 6 377q34 61 118 48t112 -101q30 -86 4 -167
q-45 -140 -144 -201q32 -88 74 -162t80 -74q71 -3 116 434q26 317 30 469q4 153 2 169q-26 -68 -81 -159t-131 -93q-133 -5 -188 214q-2 2 -2 6q-8 -18 -16 -38q-59 -144 -158 -196q-28 -12 -60 -12h-12q-80 4 -135 58t-77 112t-26 82q-12 -46 -91 -127.5t-146 -65t-95 44.5
q-88 86 -88 222v14q4 144 74 270q44 82 112 141t131 70t103 11q98 0 150 -48q72 -68 64 -143t-60 -95q-40 -16 -86 6t-60 48q24 12 47 57t11 83q-13 35 -60 42q-74 10 -140 -91t-93 -212t-18 -197t67 -106q42 -14 85 31q65 68 101 193q12 40 16 78q36 48 102 2t68 -82
q-28 -52 -26 -130q5 -183 92 -198q52 -8 104 78t96 224v4q-18 132 -24 252t-24 160z" />
    <glyph glyph-name="br01" unicode="&#xe005;" horiz-adv-x="1326" 
d="M388 378q10 109 -8 176q-14 50 -54 40q-50 -12 -36 -97t82 -113q6 -4 16 -6zM43 1332q-31 0 -57 -51t-29 -124q-4 -103 61 -175q4 28 17 107q39 243 8 243zM44 1392q166 0 138 -446v-2q80 20 152 56t124 63t127 64q221 109 355 71q21 -3 42 -34q14 -28 14 -61t-12 -71
q-24 -80 -70 -80q-96 58 -247 22t-294 -73t-199 -37q-10 -150 -28 -337t-21 -297t16 -194t81 -86q42 0 85 96t71 262q-50 10 -96 51q-80 71 -77 153q2 81 53 120q26 22 69 33q87 22 135 -43q52 -66 52 -210q102 84 134 184q-46 8 -90 42t-43 94t29 98t62 42h14q32 0 60 -32
q30 -40 38 -103t4 -89q62 -2 146 13t119 3t45 -28t6 -44q-22 -136 -21 -319t39 -263q12 -28 28 -30q81 -8 194 346q14 52 20 76q44 11 74 0q-8 -40 -58.5 -210t-155.5 -270q-42 -42 -92 -42h-8q-90 8 -165 58t-85 118q-16 100 -2 206t27 188t1 94q-58 5 -122 28
q-48 -120 -128 -182q-44 -36 -74 -54q-28 -196 -108 -316t-182 -120h-2q-183 4 -236 226q-57 233 22 762q-156 78 -156 250v28q8 88 61 157t135 69z" />
    <glyph glyph-name="ert01" unicode="&#xe006;" horiz-adv-x="1950" 
d="M154 324q60 36 102 107q74 124 42 207q-16 44 -80 -4q-24 -18 -53 -68t-38 -136q-8 -86 -3 -120q16 4 30 14zM1464 1308q50 0 82 -24q59 -44 66 -110q-12 -72 -26 -190q104 -12 136 4q22 2 22 -38v-4q0 -38 -16 -44q-34 -8 -150 -2q-31 -312 -30 -499q2 -280 40 -350
t106 -41q79 28 130 140q52 112 92 262q45 11 72 0q-4 -31 -27 -108q-86 -286 -241 -360q-36 -16 -63 -16q-125 0 -191 65t-96 153l-2 2q-8 -20 -30 -76t-61 -100q-67 -76 -125 -76h-8q-90 6 -165 57t-84 111t-9 158t19 220t5 134q-24 4 -72 13t-66 11q-4 -20 -17 -90
t-25 -116h2q-51 -256 -206 -418q-82 -84 -206 -84h-22q-148 10 -230 94q-122 128 -128 306v16q0 48 10 90q32 160 112 220t121 72t79 12t80 -16q76 -28 92 -108t-48 -170q-89 -119 -250 -166q6 -16 21 -68t48 -101q60 -89 121 -97q98 -6 166 67q100 107 144 265q14 46 23 89
t26 118t19 97q-44 22 -70 60t-26 70v6q0 60 25 101t59 41q33 0 61 -32q27 -32 33 -92t4 -88q70 0 155 16q132 25 152.5 -7.5t6.5 -122.5t-8 -234t28 -243t52 -103q69 -7 146 234l18 56q-8 76 -8 216t17 274t21 154q-118 10 -302 27t-410 15q-554 0 -706 -180q-44 2 -72 52
q-28 44 -28 100q0 76 54 130q90 90 290 100q54 4 195 4t380 -39t366 -63t243 -44q16 199 -16 236q16 44 80 52h20z" />
    <glyph glyph-name="ery01" unicode="&#xe007;" horiz-adv-x="2156" 
d="M1380 -584q39 23 68 81q30 57 17 130t-53 73q-60 -2 -56 -114q2 -84 24 -170zM72 344q60 36 102 107t50 118t-8 90t-80 -3q-45 -34 -66 -101q-41 -129 -28 -225q16 4 30 14zM811 74q-9 60 -9 158t18 220t6 134q-26 4 -72 13t-62 9q-6 -18 -27 -123t-39 -165t-56 -146
t-123 -174t-209 -88q-89 0 -156 32q-170 82 -210 270q-14 64 -14 114t10 92q32 160 112 220t121 72t79 12t80 -18q76 -28 92 -108t-48 -168t-178 -140q-38 -18 -72 -26q6 -18 21 -69t48 -100q63 -93 119 -97q95 -6 178 76q102 109 154 328q10 48 27 123t19 95q-44 22 -70 61
t-26 71v6q0 58 22 96q24 38 40 41t27 4t25 -5t36 -32t28 -86t4 -90q68 0 178.5 20.5t139.5 -26.5q10 -18 -3 -100t-8 -235t27 -254t52 -105q67 -7 150 238q16 48 26 90q-14 114 -19 228t-23 152q24 30 75 30t113 -38q28 -62 28 -252t5 -310t50 -123t95 83q78 139 101 293.5
t25 236.5q18 32 62 38t74 -12q55 -33 66 -90q-31 -19 -52.5 -330.5t-42.5 -477.5t-48 -305t-83 -263t-143 -124t-155 100q-50 72 -82 160q-113 -29 -342 30q-88 24 -181 57t-223 75t-279 66t-243 -48q-28 -22 -63 4q-66 49 -81 146q-6 22 -6 56t20 68t50 52
q133 53 408.5 -79.5t436.5 -206.5q349 -160 479 -146q-28 108 -27 209t37 165q38 64 109 61t103 -64q53 -102 18 -225q-36 -123 -130 -182q30 -98 72 -173t80 -77q36 0 61 93q49 181 67 507q20 251 20 488q-28 -70 -82 -161t-137 -94t-141 101q-26 50 -35 90t-13 56
q-12 -30 -37 -92t-63 -105q-66 -75 -124 -75h-8q-90 6 -165 57t-84 111z" />
    <glyph glyph-name="ey01" unicode="&#xe008;" horiz-adv-x="1504" 
d="M784 -580q88 88 81 185t-49 97q-50 -2 -55 -79t17 -177zM98 366q0 -14 2 -30q78 34 127 114t57 127t-10 89q-16 44 -78 -4q-26 -18 -42 -46q-56 -93 -56 -250zM674 -395q0 91 34 155t112 62q34 -2 59 -21q71 -54 61 -192t-108 -231q-14 -14 -30 -24q22 -72 54 -142
q52 -110 100 -110q74 -4 114 440q8 74 24 323t8 323q-26 -70 -81 -161t-131 -93q-134 -5 -194 216q-10 36 -20 76q-4 -10 -8 -18q-58 -112 -152 -200t-220 -88h-22q-150 12 -235 100q-121 126 -121 320q0 46 8 86q34 160 114 220t121 72t79 12t80 -16q76 -28 90 -110
t-46 -168q-88 -118 -252 -166l12 -36q41 -144 111.5 -199t166.5 -13q48 22 88 60q105 96 164 274q-12 92 -19 197t-27 143q26 30 87 30t121 -36q22 -46 26 -129t4 -199t5 -236t53 -124q47 0 95 92q49 92 83 232q36 140 40 290q18 32 76.5 40t103.5 -54q16 -20 22 -50
q-31 -12 -54 -348q-12 -144 -29 -323q-79 -829 -289 -829q-80 0 -146 100q-48 72 -80 162q-127 -52 -264 -24q-138 28 -254 80t-238 26q-34 -6 -58 38q-22 46 -26 104v12q0 133 92 164q74 30 179 -37q59 -38 144 -107q85 -70 143 -111q143 -101 258 -75q-28 130 -28 221z
" />
    <glyph glyph-name="ff01" unicode="&#xe009;" horiz-adv-x="1080" 
d="M68 -150q-63 -408 -46 -604q10 -140 92 -144q45 0 69 75q52 159 17 413q-20 144 -58 222t-64 106zM624 -144q-37 -409 -15.5 -579.5t95.5 -174.5t93 103q36 201 -47 473q-47 159 -120 246zM-58 1128q30 78 115 78q31 0 73 -24q66 -38 72 -110q12 -184 -33 -541t-63 -431
q76 -14 165 -23t169 -19l8 118q22 284 34 544t-32 416q14 47 61 70q21 10 52 10t73 -24q68 -40 72 -112q20 -298 -66 -1026q106 -2 182 44q96 62 138 125q68 103 88 181q18 2 37 2t37 -4q-42 -168 -164 -298t-284 -118q48 -14 114 -141q124 -239 134 -491q12 -203 -92 -282
q-46 -36 -122 -36h-10q-158 4 -214 166q-58 162 -62 406v58q0 86 10 306q-68 8 -182 24t-160 18q72 -22 138 -168t86 -289q55 -396 -116 -497q-42 -24 -102 -24h-4q-144 4 -188 164q-38 134 -38 338t52 632q30 280 49 541t-27 417z" />
    <glyph glyph-name="ffr01" unicode="&#xe00a;" horiz-adv-x="1732" 
d="M118 186q-31 -310 -46 -536q-14 -226 4 -376t92 -154t105 147t16 331q-32 381 -171 588zM688 252q-6 -77 -25 -274q-19 -198 -29 -374t7 -326t91 -154t110 145q55 227 14 519q-30 260 -138 426q-14 20 -30 38zM144 444l350 -22q14 202 26 432t-34 386q29 80 108 80
q38 0 78 -24q68 -40 72 -112q14 -182 -5 -390t-33 -364q48 16 104 42q120 52 220 174q-44 22 -76 71t-34 97t20 86t54 44h14q36 0 64 -37t37 -102t7 -95q64 0 165 13.5t137 -33.5q12 -18 -1 -105t-9 -233t24 -243t50 -99q68 -10 156 226q41 105 60 180q43 12 72 0
q-8 -40 -42 -151q-67 -219 -172 -315q-42 -40 -92 -40h-8q-90 6 -165 57t-84 111t-9 151t19 220t5 141q-24 4 -70 13t-62 11q-144 -222 -372 -260q101 -90 160 -239q100 -256 100 -520t-76 -413q-68 -124 -170 -124h-4q-158 4 -222 200q-52 154 -52 390v48q8 372 34 642
l-336 14h-18l-2 -28q94 -90 159 -241q103 -239 109 -509q11 -262 -80 -422q-58 -98 -152 -96h-4q-86 2 -140 54q-144 149 -134 584q7 315 36 648l-36 8q-36 10 -38 58v2q0 46 48 50q8 0 34 -2q12 182 22 403t-34 377q24 78 108 78q36 0 78 -24q68 -38 72 -110
q12 -184 -5 -388t-31 -350z" />
    <glyph glyph-name="fi01" unicode="&#xe00b;" horiz-adv-x="984" 
d="M516 1115q0 25 2 41q8 54 70 68q30 8 53 8q62 0 95 -72q14 -32 14 -56t-4 -40q-12 -50 -96 -70q-36 -8 -66 -8t-42 18q6 36 -10 61t-16 50zM82 -415.5q-30 -401.5 108 -408.5q58 -4 89 104t31 268q-5 406 -166 700l-4 6v-2q-28 -266 -58 -667.5zM-58 1292q23 80 113 80
q31 0 73 -24q68 -40 72 -112q12 -182 -5 -383t-31 -341q106 2 205 26t153 70q0 32 -12 50q22 42 104 60q24 6 42 6q46 0 58 -34q-6 -66 -18 -144t-26 -189t-10 -227t76 -128q48 -10 90 63q71 124 126 343q42 11 72 2q-24 -137 -82 -280q-52 -115 -96 -156q-49 -56 -108 -56
h-16q-236 29 -244 274v26q0 136 34 296q-44 -25 -133 -43q-89 -19 -145 -23t-76 -6q-2 -24 -4 -46q84 -82 144 -208q110 -246 122 -536q6 -282 -82 -440q-56 -102 -150 -102h-6q-152 4 -222 200q-56 170 -50 439t20 442t18 233q-24 6 -54 13t-32 55v2q0 46 48 52
q22 -8 46 -14q10 172 20 388t-34 372z" />
    <glyph glyph-name="fr01" unicode="&#xe00c;" horiz-adv-x="1142" 
d="M136 216q0 -2 -19 -201t-30 -388t6 -339t93 -154q50 -2 82 73q54 126 48 333q0 220 -53 398t-127 278zM38 1330q46 0 86 -24q68 -40 72 -112q14 -182 -5 -391t-33 -367q30 12 66 28q118 54 220 174q-46 22 -77 71q-63 100 -15 183q25 46 64 46t69 -38q29 -38 38 -103
t5 -93q66 0 141 10q129 17 161 -30q14 -18 0 -103t-10 -234t25 -245t51 -100q62 -7 156 226q43 121 58 180q45 11 72 0q-8 -38 -41 -150q-63 -212 -171 -316q-44 -40 -92 -40q-4 0 -8 2q-92 6 -166 56t-84 111t-10 153.5t19 219.5q19 128 7 140q-26 4 -71 13t-61 9
q-65 -99 -162 -172q-78 -54 -125 -67t-67 -17q-2 -4 -2 -6q118 -108 181 -295t75 -307t12 -192v-20q-6 -246 -89 -376q-55 -86 -143 -86h-4q-158 8 -222 200q-58 170 -52 439t28 555l8 100q-20 6 -42 8q-38 10 -38 52v2q0 40 48 44q20 -2 40 -6q12 186 23 410t-35 380
q10 26 26 42q28 36 74 36z" />
    <glyph glyph-name="hop01" unicode="&#xe00d;" horiz-adv-x="2274" 
d="M1784 34q-49 -12 -70 -37q-22 -25 10 -29q34 -2 60 66zM1100 388q25 150 17 216q-9 66 -39 60q-26 -8 -23 -90q2 -83 45 -186zM-6 936q14 329 -38 316q-44 -10 -58 -95t36 -161q22 -34 58 -58zM-26 1312q130 0 158 -326q2 -44 4 -92q20 2 66 5q148 10 654 115.5
t739 140.5t329 23q44 -8 86 -67t42 -117v-12q-5 -64 -62 -98q-64 70 -261 80t-406 -8t-651 -73q-442 -56 -534 -59v-88q-6 -165 -24 -338q8 26 40 115t94 151q61 57 129 50t107 -90q48 -115 48 -422q-2 -152 -4 -294t16 -203t40 -79t58 -4q66 -34 32 -94t-86 -60q-6 0 -14 2
q-82 12 -132 66q-124 144 -94 546q4 72 18 200t14 260q-2 74 -34 80q-66 10 -132 -112q-42 -76 -67 -167t-24 -154t-3 -113t-8 -124q-18 -52 -101 -72t-91 46q13 250 36 521q24 271 34 401q-134 50 -182 180q-14 40 -16 80v10q0 66 39 122t123 70q10 2 20 2zM1790 604
q-46 0 -95 -63t-85 -173t-32 -271t-4 -393l-4 -144q-4 -72 -8 -168q-10 -248 -24 -316q-28 -54 -100 -60h-14q-62 0 -95 40t-33 76t6 62q38 0 76.5 214.5t33.5 659.5q-2 64 -4 124q-75 -75 -162 -68q-32 2 -66 22q-113 -225 -262 -228h-4q-178 0 -272 130q-72 100 -72 242
v16q4 152 60 249t124 147q70 48 158 44q38 -8 40 -34q0 -28 -18 -54q-76 6 -119 -82t-51 -201t10 -197q14 -84 51 -143t95 -57q76 3 154 286q-90 134 -104 296q-14 122 41.5 173t119.5 51q63 0 102 -56q61 -88 37 -286q-15 -120 -60 -228q26 -20 54 -20q89 0 138 106
q-23 238 -60 300q-4 62 38 91t90 31h6q44 0 64 -12q23 -93 30 -268q6 12 35 81q46 111 129 155q28 14 70 13q92 -2 153 -80q61 -77 72 -192t-21 -223q-4 -10 -6 -22q216 108 246 228q16 0 35 1t37 -1q-29 -118 -162 -210q-92 -62 -190 -100q-2 -2 -17 -30t-54 -65
q-83 -79 -193 -75q-74 4 -56 66q16 62 100 92q20 8 56 18q59 230 33 423q-11 83 -47 83z" />
    <glyph glyph-name="ing01" unicode="&#xe00e;" horiz-adv-x="2046" 
d="M1306 -596q24 18 46 48q46 72 40 153t-50 81q-66 -2 -62 -110q2 -82 26 -172zM90 1232q63 0 96 -72q14 -32 14 -56t-4 -40q-12 -50 -98 -70q-34 -8 -64 -8t-44 18q8 36 -11 64t-11 85q11 79 122 79zM-72 220q0 128 28 265t4 173q20 42 104 60q24 6 40 6q48 0 60 -34
q-6 -66 -18 -145t-27 -192t-11 -232t78 -133q46 -8 104 87.5t106 258.5q15 46 -4 170q-20 124 -34 152q6 48 62 71t86 -5q11 -25 22 -90q12 -66 15 -120t5 -70q8 26 52 108q65 126 168 178q30 14 62 12h4q48 0 77 -33q70 -80 63 -357q-4 -138 -9 -253t33 -123q47 -14 95 28
q49 42 85 96q-12 42 -14 94q-6 124 42 246q24 66 65 125q82 118 213 155q40 12 76 12t87 -7t103 -55q40 -40 53 -83t13 -63v-4q-4 -44 -41 -76t-99 -25t-74 53q22 24 48 89t-16 101q-12 12 -36 16q-62 10 -126 -88t-99 -206t-41 -192t32 -110t94 5t98 93q49 65 62 144
q8 30 38 41q71 26 132 -19q30 -20 13 -53t-25 -198q-21 -430 -76 -699q-32 -144 -84 -242q-54 -96 -138 -98h-4q-76 0 -136 78t-94 166q-234 -74 -475 -56q-368 27 -643 168q-90 44 -154 88q-36 26 -58 114q-8 32 -8 71t19 70q39 64 127 49q34 -92 152 -178
q106 -80 259 -147q289 -127 575 -131q100 0 182 24q-20 113 -20 182q0 68 35 128t104 64t102 -50t30 -109q-6 -106 -53 -171q-34 -53 -90 -84q30 -86 72 -152q44 -76 82 -76q57 0 108 704q18 310 18 358q-28 -70 -91 -128t-118 -67q-115 -19 -189 67q-100 -147 -222 -128
q-100 14 -146 128q-32 96 -32 254v228q2 102 -46 106q-32 4 -76 -49q-76 -92 -114 -211q-14 -46 -11 -117t-3 -295q-20 -48 -82 -52h-10q-54 0 -70 34q14 74 14 210v42q-51 -144 -108 -206q-58 -62 -116 -62h-16q-236 29 -244 274v28z" />
    <glyph glyph-name="ish01" unicode="&#xe00f;" horiz-adv-x="1848" 
d="M658 88q-72 -36 -93 -96t7 -72q36 -14 60 64q16 52 26 104zM1248 1386q-56 -9 -56 -358q10 4 40 15t58 41t42 66q30 82 -6 162t-78 74zM-8 1221q0 25 2 43q8 54 70 66q30 8 53 8q62 0 95 -72q14 -30 14 -55t-4 -41q-12 -48 -99 -68t-105 8q6 36 -10 61t-16 50zM1036 370
l-6 556q-82 -8 -158 -2q-160 8 -282 50t-160 76q-40 60 -40 134q0 14 2 30q10 92 134 144q18 -60 161.5 -181t348.5 -155q22 257 92 348q54 70 136 70q81 0 129 -49q47 -49 51 -134t-35 -143q-71 -106 -181 -144q-18 -8 -36 -14v-80q2 -150 8 -271t6 -145q6 26 40 112
q58 139 127 171.5t116 29.5q138 -9 145 -309q0 -196 -33 -509t22 -324t107 29q18 -10 27 -39t9 -48q0 -39 -40 -57q-16 -8 -40 -8h-4q-161 7 -214 188q-30 98 -30 226t10 255t22 239t9 186t-36 79t-68 -27t-71 -96t-62 -154t-24 -153t6 -119t6 -130q-18 -52 -101 -72t-91 46
q0 168 -2 318q-64 -48 -142 -92v-4q26 -178 -44 -270q-63 -88 -186 -88q-182 6 -182 114q2 54 53 114t135 100q4 62 -26 143t-75 144t-79 85l-28 -154h-2l-4 -30q-90 -360 -226 -428q-26 -12 -54 -12h-12q-90 10 -140 54q-85 81 -94 228q-4 36 -1 136t21 206t2 134
q20 38 102 52q79 22 98 -26q-6 -68 -17 -147t-25 -192t-10 -231t78 -132q46 -8 88 65q67 116 108 269q8 34 30 112t26 134q-98 77 -98 174q0 46 24 70q27 38 68 38h6q72 -6 84 -70q10 -64 0 -146q82 -46 162 -114q153 -137 200 -264q96 50 160 104z" />
    <glyph glyph-name="ooth01" unicode="&#xe010;" horiz-adv-x="2786" 
d="M1210 496q-6 114 -52 102q-28 -8 -24 -73t66 -143l8 -12q4 66 2 126zM416 468q10 116 -2 187t-32 67q-40 -10 -43 -84.5t65 -153.5zM2148 944q86 33 122 112q36 80 8 158q-30 78 -77 74q-48 -4 -53 -344zM256 660q-50 -14 -96 -106t-38 -272q13 -157 56.5 -227.5
t101.5 -70.5q44 2 82.5 120.5t47.5 273.5q-104 80 -142 212q-10 36 -12 70zM1994 162q-4 674 -4 686q-95 -5 -236 2q-15 -194 -21 -419q-13 -438 42 -445q107 -14 205 154q6 12 14 22zM1052 -78q-94 0 -163 35q-189 96 -189 355q0 32 4 66q-39 -19 -132 -42
q-38 -201 -136 -326q-68 -84 -156 -84h-6q-176 -4 -276 128q-76 101 -76 247q0 145 59 261t163 166q58 26 128 24h4q28 42 65 69t106 27t107 -92q58 -148 28 -350q55 0 134 68l10 8q53 173 196 242q54 26 118 26h10q38 -8 40 -35t-16 -53q-78 6 -120 -81q-61 -126 -54 -303
q12 -155 56 -226q44 -72 95 -70t87 84q42 104 58 216q-126 108 -142 258q-7 98 56 150q26 20 66 28q120 30 167 -67q71 -146 17 -361q4 2 24 3q52 3 116 67q30 28 54 62v108q0 100 10 330q-112 6 -245 17t-440 34t-546 12t-303 -73q-68 6 -110 76q-26 42 -26 73q0 84 88 113
q77 19 645 -55t943 -111q10 130 10 193t-6 85q6 50 88 48h4q84 0 112 -32q-4 -156 -20 -310q102 -6 186 -8h50q20 269 96 356q53 64 131 64q77 0 120 -41t48 -117q9 -133 -115 -242q-50 -42 -124 -68l-4 -2l8 -396q2 -28 2 -36q6 26 41 113t98 145t131 50t100 -86
q51 -124 46 -426l-2 -312q0 -132 21 -212t89 -54q42 -22 42 -48t-12 -48q-32 -56 -84 -56q-6 0 -14 2q-217 32 -224 396q-3 175 18 372q22 198 21 288t-33 96q-38 6 -71 -27t-69 -96t-62 -152t-24 -152t6 -118t6 -129q-18 -50 -99 -67t-87 49v82q-4 -4 -19 -25t-50 -53
q-68 -62 -145 -62q-135 0 -180 174q-30 110 -40 244q-108 -108 -220 -108q-4 -12 -8 -26q-64 -179 -184 -248q-42 -22 -90 -24h-6z" />
    <glyph glyph-name="pe01" unicode="&#xe011;" horiz-adv-x="1422" 
d="M320 52q-74 -18 -88 -55t16 -39q16 -2 35 20q20 22 37 74zM850 328q78 29 132 122q42 70 50 117t-8 91t-70 3q-88 -66 -103 -233q-6 -64 -1 -100zM-56 -428q-86 -109 -100 -282q-8 -90 8 -158t44 -70t46 160t22 374zM1332 -282v-18q-4 -58 -26 -109t-52 -55
q-94 -14 -204 5t-224 49l-152 40q-247 70 -373 71q-127 1 -195 -21q0 -211 -15 -354q-33 -310 -187 -310q-4 0 -6 2q-104 0 -144 94q-24 52 -24 104q0 167 88 310q60 101 148 158v148q0 276 -23 488t-53 280q-2 34 9 57q29 61 111 65h6q42 0 62 -12q23 -93 30 -268
q70 187 180 250q26 14 58 14q130 -2 184 -120t40 -262q-6 -70 -28 -136q72 26 130 56q-6 46 -6 90t10 84q32 160 112 220t121 72t79 12t80 -16q76 -30 92 -110t-49 -168t-177 -140q-38 -18 -72 -26q6 -18 21 -69t48 -100q63 -93 121 -97q98 -6 166 67q100 107 144 265
q16 48 24 88q24 3 72 -2q-16 -76 -61 -198t-131 -208q-96 -96 -222 -96h-20q-148 7 -242 106q-62 64 -90 146l-48 -18q-32 -12 -71 -24t-65 -22q-106 -194 -278 -188q-74 2 -57 79t99 107q28 10 70 24q54 244 38 418q-8 88 -44 90q-38 0 -111.5 -87t-106.5 -285
q-19 -96 -15 -276q3 -180 3 -236q170 46 487 24t463 -11t224 73q52 -14 52 -114z" />
    <glyph glyph-name="pr01" unicode="&#xe012;" horiz-adv-x="1408" 
d="M356 102q-119 -31 -116.5 -78.5t44.5 -43.5q36 2 62 88zM28 -362q-55 -30 -84 -102q-33 -72 -25 -170q7 -98 33 -164t50 -66q32 -2 36 154t-10 348zM664 778q0 66 25 108t60 42t61 -31t33 -92t3 -89q50 -6 142 6t142 -14q34 -21 25 -79q-47 -316 -31 -515q8 -98 40 -100
q62 -10 150 222q20 56 35 107t23 77q38 13 72 0q-50 -219 -132 -363q-82 -143 -172 -143h-8q-92 6 -165 57t-84 112q-28 157 47 427q24 84 16 104q-78 12 -114 24q-78 -214 -170 -312q-58 -62 -98 -100q-36 -136 -112 -214t-188 -78q-54 0 -71 43q-26 64 39 129
q24 19 134 68l6 2q28 190 16 322t-56 134q-44 0 -95 -67t-90 -182t-35 -236t15 -225t19 -182q125 20 354 20h164q251 -6 387 20q135 26 177 88q34 -3 55 -40q21 -36 21 -88v-14q-4 -106 -44 -146t-66 -42q-198 -14 -481 64t-479 78q-42 2 -82 -4l4 -56q20 -336 -34 -456
q-39 -86 -129 -86q-91 0 -145 94q-44 74 -44 178v14q6 184 136 296q38 30 84 50q-30 423 -86 698q-28 144 -60 204q-4 60 42 92q36 28 86 28h4q44 0 64 -12q23 -89 30 -268q6 14 37 87q49 116 135 165q26 14 58 14q130 -2 191 -116t57 -254q0 -8 -2 -18q135 166 186 334
q-102 48 -102 114z" />
    </font>
</defs>
</svg>
